%TF.GenerationSoftware,KiCad,Pcbnew,8.0.5*%
%TF.CreationDate,2024-09-29T22:33:28-04:00*%
%TF.ProjectId,BREAD_Slice,42524541-445f-4536-9c69-63652e6b6963,rev?*%
%TF.SameCoordinates,PX74eba40PY8552dc0*%
%TF.FileFunction,Legend,Top*%
%TF.FilePolarity,Positive*%
%FSLAX46Y46*%
G04 Gerber Fmt 4.6, Leading zero omitted, Abs format (unit mm)*
G04 Created by KiCad (PCBNEW 8.0.5) date 2024-09-29 22:33:28*
%MOMM*%
%LPD*%
G01*
G04 APERTURE LIST*
%ADD10C,0.150000*%
%ADD11C,0.125000*%
%ADD12C,0.300000*%
%ADD13C,0.100000*%
%ADD14C,0.000000*%
%ADD15C,0.120000*%
%ADD16C,0.010000*%
%ADD17C,0.177800*%
%ADD18C,0.200000*%
G04 APERTURE END LIST*
D10*
X6686666Y51677610D02*
X6610476Y51715705D01*
X6610476Y51715705D02*
X6496190Y51715705D01*
X6496190Y51715705D02*
X6381904Y51677610D01*
X6381904Y51677610D02*
X6305714Y51601420D01*
X6305714Y51601420D02*
X6267619Y51525229D01*
X6267619Y51525229D02*
X6229523Y51372848D01*
X6229523Y51372848D02*
X6229523Y51258562D01*
X6229523Y51258562D02*
X6267619Y51106181D01*
X6267619Y51106181D02*
X6305714Y51029991D01*
X6305714Y51029991D02*
X6381904Y50953800D01*
X6381904Y50953800D02*
X6496190Y50915705D01*
X6496190Y50915705D02*
X6572381Y50915705D01*
X6572381Y50915705D02*
X6686666Y50953800D01*
X6686666Y50953800D02*
X6724762Y50991896D01*
X6724762Y50991896D02*
X6724762Y51258562D01*
X6724762Y51258562D02*
X6572381Y51258562D01*
X7067619Y50915705D02*
X7067619Y51715705D01*
X7067619Y51715705D02*
X7524762Y50915705D01*
X7524762Y50915705D02*
X7524762Y51715705D01*
X7905714Y50915705D02*
X7905714Y51715705D01*
X7905714Y51715705D02*
X8096190Y51715705D01*
X8096190Y51715705D02*
X8210476Y51677610D01*
X8210476Y51677610D02*
X8286666Y51601420D01*
X8286666Y51601420D02*
X8324761Y51525229D01*
X8324761Y51525229D02*
X8362857Y51372848D01*
X8362857Y51372848D02*
X8362857Y51258562D01*
X8362857Y51258562D02*
X8324761Y51106181D01*
X8324761Y51106181D02*
X8286666Y51029991D01*
X8286666Y51029991D02*
X8210476Y50953800D01*
X8210476Y50953800D02*
X8096190Y50915705D01*
X8096190Y50915705D02*
X7905714Y50915705D01*
X60359580Y12838096D02*
X60407200Y12790477D01*
X60407200Y12790477D02*
X60454819Y12647620D01*
X60454819Y12647620D02*
X60454819Y12552382D01*
X60454819Y12552382D02*
X60407200Y12409525D01*
X60407200Y12409525D02*
X60311961Y12314287D01*
X60311961Y12314287D02*
X60216723Y12266668D01*
X60216723Y12266668D02*
X60026247Y12219049D01*
X60026247Y12219049D02*
X59883390Y12219049D01*
X59883390Y12219049D02*
X59692914Y12266668D01*
X59692914Y12266668D02*
X59597676Y12314287D01*
X59597676Y12314287D02*
X59502438Y12409525D01*
X59502438Y12409525D02*
X59454819Y12552382D01*
X59454819Y12552382D02*
X59454819Y12647620D01*
X59454819Y12647620D02*
X59502438Y12790477D01*
X59502438Y12790477D02*
X59550057Y12838096D01*
X60407200Y13219049D02*
X60454819Y13361906D01*
X60454819Y13361906D02*
X60454819Y13600001D01*
X60454819Y13600001D02*
X60407200Y13695239D01*
X60407200Y13695239D02*
X60359580Y13742858D01*
X60359580Y13742858D02*
X60264342Y13790477D01*
X60264342Y13790477D02*
X60169104Y13790477D01*
X60169104Y13790477D02*
X60073866Y13742858D01*
X60073866Y13742858D02*
X60026247Y13695239D01*
X60026247Y13695239D02*
X59978628Y13600001D01*
X59978628Y13600001D02*
X59931009Y13409525D01*
X59931009Y13409525D02*
X59883390Y13314287D01*
X59883390Y13314287D02*
X59835771Y13266668D01*
X59835771Y13266668D02*
X59740533Y13219049D01*
X59740533Y13219049D02*
X59645295Y13219049D01*
X59645295Y13219049D02*
X59550057Y13266668D01*
X59550057Y13266668D02*
X59502438Y13314287D01*
X59502438Y13314287D02*
X59454819Y13409525D01*
X59454819Y13409525D02*
X59454819Y13647620D01*
X59454819Y13647620D02*
X59502438Y13790477D01*
X59454819Y14076192D02*
X59454819Y14647620D01*
X60454819Y14361906D02*
X59454819Y14361906D01*
X60454819Y14980954D02*
X59454819Y14980954D01*
X59454819Y14980954D02*
X60169104Y15314287D01*
X60169104Y15314287D02*
X59454819Y15647620D01*
X59454819Y15647620D02*
X60454819Y15647620D01*
X60454819Y16885716D02*
X59454819Y16885716D01*
X60454819Y17361906D02*
X59454819Y17361906D01*
X59454819Y17361906D02*
X60454819Y17933334D01*
X60454819Y17933334D02*
X59454819Y17933334D01*
X66954819Y23552382D02*
X65954819Y23552382D01*
X65954819Y23552382D02*
X65954819Y23933334D01*
X65954819Y23933334D02*
X66002438Y24028572D01*
X66002438Y24028572D02*
X66050057Y24076191D01*
X66050057Y24076191D02*
X66145295Y24123810D01*
X66145295Y24123810D02*
X66288152Y24123810D01*
X66288152Y24123810D02*
X66383390Y24076191D01*
X66383390Y24076191D02*
X66431009Y24028572D01*
X66431009Y24028572D02*
X66478628Y23933334D01*
X66478628Y23933334D02*
X66478628Y23552382D01*
X65954819Y24457144D02*
X66954819Y24695239D01*
X66954819Y24695239D02*
X66240533Y24885715D01*
X66240533Y24885715D02*
X66954819Y25076191D01*
X66954819Y25076191D02*
X65954819Y25314286D01*
X66954819Y26266667D02*
X66478628Y25933334D01*
X66954819Y25695239D02*
X65954819Y25695239D01*
X65954819Y25695239D02*
X65954819Y26076191D01*
X65954819Y26076191D02*
X66002438Y26171429D01*
X66002438Y26171429D02*
X66050057Y26219048D01*
X66050057Y26219048D02*
X66145295Y26266667D01*
X66145295Y26266667D02*
X66288152Y26266667D01*
X66288152Y26266667D02*
X66383390Y26219048D01*
X66383390Y26219048D02*
X66431009Y26171429D01*
X66431009Y26171429D02*
X66478628Y26076191D01*
X66478628Y26076191D02*
X66478628Y25695239D01*
X66907200Y27409525D02*
X66954819Y27552382D01*
X66954819Y27552382D02*
X66954819Y27790477D01*
X66954819Y27790477D02*
X66907200Y27885715D01*
X66907200Y27885715D02*
X66859580Y27933334D01*
X66859580Y27933334D02*
X66764342Y27980953D01*
X66764342Y27980953D02*
X66669104Y27980953D01*
X66669104Y27980953D02*
X66573866Y27933334D01*
X66573866Y27933334D02*
X66526247Y27885715D01*
X66526247Y27885715D02*
X66478628Y27790477D01*
X66478628Y27790477D02*
X66431009Y27600001D01*
X66431009Y27600001D02*
X66383390Y27504763D01*
X66383390Y27504763D02*
X66335771Y27457144D01*
X66335771Y27457144D02*
X66240533Y27409525D01*
X66240533Y27409525D02*
X66145295Y27409525D01*
X66145295Y27409525D02*
X66050057Y27457144D01*
X66050057Y27457144D02*
X66002438Y27504763D01*
X66002438Y27504763D02*
X65954819Y27600001D01*
X65954819Y27600001D02*
X65954819Y27838096D01*
X65954819Y27838096D02*
X66002438Y27980953D01*
X66431009Y28409525D02*
X66431009Y28742858D01*
X66954819Y28885715D02*
X66954819Y28409525D01*
X66954819Y28409525D02*
X65954819Y28409525D01*
X65954819Y28409525D02*
X65954819Y28885715D01*
X66954819Y29790477D02*
X66954819Y29314287D01*
X66954819Y29314287D02*
X65954819Y29314287D01*
D11*
X68798619Y33100001D02*
X68774809Y33052382D01*
X68774809Y33052382D02*
X68774809Y32980953D01*
X68774809Y32980953D02*
X68798619Y32909525D01*
X68798619Y32909525D02*
X68846238Y32861906D01*
X68846238Y32861906D02*
X68893857Y32838096D01*
X68893857Y32838096D02*
X68989095Y32814287D01*
X68989095Y32814287D02*
X69060523Y32814287D01*
X69060523Y32814287D02*
X69155761Y32838096D01*
X69155761Y32838096D02*
X69203380Y32861906D01*
X69203380Y32861906D02*
X69251000Y32909525D01*
X69251000Y32909525D02*
X69274809Y32980953D01*
X69274809Y32980953D02*
X69274809Y33028572D01*
X69274809Y33028572D02*
X69251000Y33100001D01*
X69251000Y33100001D02*
X69227190Y33123810D01*
X69227190Y33123810D02*
X69060523Y33123810D01*
X69060523Y33123810D02*
X69060523Y33028572D01*
X69274809Y33338096D02*
X68774809Y33338096D01*
X68774809Y33338096D02*
X69274809Y33623810D01*
X69274809Y33623810D02*
X68774809Y33623810D01*
X69274809Y33861906D02*
X68774809Y33861906D01*
X68774809Y33861906D02*
X68774809Y33980954D01*
X68774809Y33980954D02*
X68798619Y34052382D01*
X68798619Y34052382D02*
X68846238Y34100001D01*
X68846238Y34100001D02*
X68893857Y34123811D01*
X68893857Y34123811D02*
X68989095Y34147620D01*
X68989095Y34147620D02*
X69060523Y34147620D01*
X69060523Y34147620D02*
X69155761Y34123811D01*
X69155761Y34123811D02*
X69203380Y34100001D01*
X69203380Y34100001D02*
X69251000Y34052382D01*
X69251000Y34052382D02*
X69274809Y33980954D01*
X69274809Y33980954D02*
X69274809Y33861906D01*
X69274809Y35123810D02*
X68774809Y35123810D01*
X68774809Y35123810D02*
X68774809Y35314286D01*
X68774809Y35314286D02*
X68798619Y35361905D01*
X68798619Y35361905D02*
X68822428Y35385715D01*
X68822428Y35385715D02*
X68870047Y35409524D01*
X68870047Y35409524D02*
X68941476Y35409524D01*
X68941476Y35409524D02*
X68989095Y35385715D01*
X68989095Y35385715D02*
X69012904Y35361905D01*
X69012904Y35361905D02*
X69036714Y35314286D01*
X69036714Y35314286D02*
X69036714Y35123810D01*
X68774809Y35576191D02*
X69274809Y35695239D01*
X69274809Y35695239D02*
X68917666Y35790477D01*
X68917666Y35790477D02*
X69274809Y35885715D01*
X69274809Y35885715D02*
X68774809Y36004762D01*
X69274809Y36480953D02*
X69036714Y36314287D01*
X69274809Y36195239D02*
X68774809Y36195239D01*
X68774809Y36195239D02*
X68774809Y36385715D01*
X68774809Y36385715D02*
X68798619Y36433334D01*
X68798619Y36433334D02*
X68822428Y36457144D01*
X68822428Y36457144D02*
X68870047Y36480953D01*
X68870047Y36480953D02*
X68941476Y36480953D01*
X68941476Y36480953D02*
X68989095Y36457144D01*
X68989095Y36457144D02*
X69012904Y36433334D01*
X69012904Y36433334D02*
X69036714Y36385715D01*
X69036714Y36385715D02*
X69036714Y36195239D01*
X69274809Y37457143D02*
X68774809Y37457143D01*
X68774809Y37457143D02*
X68774809Y37647619D01*
X68774809Y37647619D02*
X68798619Y37695238D01*
X68798619Y37695238D02*
X68822428Y37719048D01*
X68822428Y37719048D02*
X68870047Y37742857D01*
X68870047Y37742857D02*
X68941476Y37742857D01*
X68941476Y37742857D02*
X68989095Y37719048D01*
X68989095Y37719048D02*
X69012904Y37695238D01*
X69012904Y37695238D02*
X69036714Y37647619D01*
X69036714Y37647619D02*
X69036714Y37457143D01*
X68774809Y37909524D02*
X69274809Y38028572D01*
X69274809Y38028572D02*
X68917666Y38123810D01*
X68917666Y38123810D02*
X69274809Y38219048D01*
X69274809Y38219048D02*
X68774809Y38338095D01*
X69274809Y38528572D02*
X68774809Y38528572D01*
X68774809Y38528572D02*
X69131952Y38695239D01*
X69131952Y38695239D02*
X68774809Y38861905D01*
X68774809Y38861905D02*
X69274809Y38861905D01*
D10*
X55157142Y3145181D02*
X54680952Y3145181D01*
X54680952Y3145181D02*
X54680952Y4145181D01*
X55490476Y3668991D02*
X55823809Y3668991D01*
X55966666Y3145181D02*
X55490476Y3145181D01*
X55490476Y3145181D02*
X55490476Y4145181D01*
X55490476Y4145181D02*
X55966666Y4145181D01*
X56395238Y3145181D02*
X56395238Y4145181D01*
X56395238Y4145181D02*
X56633333Y4145181D01*
X56633333Y4145181D02*
X56776190Y4097562D01*
X56776190Y4097562D02*
X56871428Y4002324D01*
X56871428Y4002324D02*
X56919047Y3907086D01*
X56919047Y3907086D02*
X56966666Y3716610D01*
X56966666Y3716610D02*
X56966666Y3573753D01*
X56966666Y3573753D02*
X56919047Y3383277D01*
X56919047Y3383277D02*
X56871428Y3288039D01*
X56871428Y3288039D02*
X56776190Y3192800D01*
X56776190Y3192800D02*
X56633333Y3145181D01*
X56633333Y3145181D02*
X56395238Y3145181D01*
X6686666Y40765705D02*
X6229523Y40765705D01*
X6458095Y40765705D02*
X6458095Y41565705D01*
X6458095Y41565705D02*
X6381904Y41451420D01*
X6381904Y41451420D02*
X6305714Y41375229D01*
X6305714Y41375229D02*
X6229523Y41337134D01*
X6991428Y41489515D02*
X7029524Y41527610D01*
X7029524Y41527610D02*
X7105714Y41565705D01*
X7105714Y41565705D02*
X7296190Y41565705D01*
X7296190Y41565705D02*
X7372381Y41527610D01*
X7372381Y41527610D02*
X7410476Y41489515D01*
X7410476Y41489515D02*
X7448571Y41413324D01*
X7448571Y41413324D02*
X7448571Y41337134D01*
X7448571Y41337134D02*
X7410476Y41222848D01*
X7410476Y41222848D02*
X6953333Y40765705D01*
X6953333Y40765705D02*
X7448571Y40765705D01*
X7677143Y41565705D02*
X7943810Y40765705D01*
X7943810Y40765705D02*
X8210476Y41565705D01*
D11*
X65024809Y23833337D02*
X65024809Y23547623D01*
X65024809Y23690480D02*
X64524809Y23690480D01*
X64524809Y23690480D02*
X64596238Y23642861D01*
X64596238Y23642861D02*
X64643857Y23595242D01*
X64643857Y23595242D02*
X64667666Y23547623D01*
X64572428Y24023813D02*
X64548619Y24047622D01*
X64548619Y24047622D02*
X64524809Y24095241D01*
X64524809Y24095241D02*
X64524809Y24214289D01*
X64524809Y24214289D02*
X64548619Y24261908D01*
X64548619Y24261908D02*
X64572428Y24285717D01*
X64572428Y24285717D02*
X64620047Y24309527D01*
X64620047Y24309527D02*
X64667666Y24309527D01*
X64667666Y24309527D02*
X64739095Y24285717D01*
X64739095Y24285717D02*
X65024809Y24000003D01*
X65024809Y24000003D02*
X65024809Y24309527D01*
X64524809Y24452384D02*
X65024809Y24619050D01*
X65024809Y24619050D02*
X64524809Y24785717D01*
X65024809Y26476191D02*
X64524809Y26476191D01*
X65024809Y26714286D02*
X64524809Y26714286D01*
X64524809Y26714286D02*
X65024809Y27000000D01*
X65024809Y27000000D02*
X64524809Y27000000D01*
X64524809Y28999999D02*
X64524809Y28761904D01*
X64524809Y28761904D02*
X64762904Y28738095D01*
X64762904Y28738095D02*
X64739095Y28761904D01*
X64739095Y28761904D02*
X64715285Y28809523D01*
X64715285Y28809523D02*
X64715285Y28928571D01*
X64715285Y28928571D02*
X64739095Y28976190D01*
X64739095Y28976190D02*
X64762904Y28999999D01*
X64762904Y28999999D02*
X64810523Y29023809D01*
X64810523Y29023809D02*
X64929571Y29023809D01*
X64929571Y29023809D02*
X64977190Y28999999D01*
X64977190Y28999999D02*
X65001000Y28976190D01*
X65001000Y28976190D02*
X65024809Y28928571D01*
X65024809Y28928571D02*
X65024809Y28809523D01*
X65024809Y28809523D02*
X65001000Y28761904D01*
X65001000Y28761904D02*
X64977190Y28738095D01*
X64524809Y29166666D02*
X65024809Y29333332D01*
X65024809Y29333332D02*
X64524809Y29499999D01*
D10*
X60504819Y59040477D02*
X59504819Y59040477D01*
X59504819Y59040477D02*
X60219104Y59373810D01*
X60219104Y59373810D02*
X59504819Y59707143D01*
X59504819Y59707143D02*
X60504819Y59707143D01*
X59504819Y60088096D02*
X59504819Y60707143D01*
X59504819Y60707143D02*
X59885771Y60373810D01*
X59885771Y60373810D02*
X59885771Y60516667D01*
X59885771Y60516667D02*
X59933390Y60611905D01*
X59933390Y60611905D02*
X59981009Y60659524D01*
X59981009Y60659524D02*
X60076247Y60707143D01*
X60076247Y60707143D02*
X60314342Y60707143D01*
X60314342Y60707143D02*
X60409580Y60659524D01*
X60409580Y60659524D02*
X60457200Y60611905D01*
X60457200Y60611905D02*
X60504819Y60516667D01*
X60504819Y60516667D02*
X60504819Y60230953D01*
X60504819Y60230953D02*
X60457200Y60135715D01*
X60457200Y60135715D02*
X60409580Y60088096D01*
X6229523Y45903800D02*
X6343809Y45865705D01*
X6343809Y45865705D02*
X6534285Y45865705D01*
X6534285Y45865705D02*
X6610476Y45903800D01*
X6610476Y45903800D02*
X6648571Y45941896D01*
X6648571Y45941896D02*
X6686666Y46018086D01*
X6686666Y46018086D02*
X6686666Y46094277D01*
X6686666Y46094277D02*
X6648571Y46170467D01*
X6648571Y46170467D02*
X6610476Y46208562D01*
X6610476Y46208562D02*
X6534285Y46246658D01*
X6534285Y46246658D02*
X6381904Y46284753D01*
X6381904Y46284753D02*
X6305714Y46322848D01*
X6305714Y46322848D02*
X6267619Y46360943D01*
X6267619Y46360943D02*
X6229523Y46437134D01*
X6229523Y46437134D02*
X6229523Y46513324D01*
X6229523Y46513324D02*
X6267619Y46589515D01*
X6267619Y46589515D02*
X6305714Y46627610D01*
X6305714Y46627610D02*
X6381904Y46665705D01*
X6381904Y46665705D02*
X6572381Y46665705D01*
X6572381Y46665705D02*
X6686666Y46627610D01*
X7181905Y46246658D02*
X7181905Y45865705D01*
X6915238Y46665705D02*
X7181905Y46246658D01*
X7181905Y46246658D02*
X7448571Y46665705D01*
X7715238Y45865705D02*
X7715238Y46665705D01*
X7715238Y46665705D02*
X8172381Y45865705D01*
X8172381Y45865705D02*
X8172381Y46665705D01*
X9010476Y45941896D02*
X8972380Y45903800D01*
X8972380Y45903800D02*
X8858095Y45865705D01*
X8858095Y45865705D02*
X8781904Y45865705D01*
X8781904Y45865705D02*
X8667618Y45903800D01*
X8667618Y45903800D02*
X8591428Y45979991D01*
X8591428Y45979991D02*
X8553333Y46056181D01*
X8553333Y46056181D02*
X8515237Y46208562D01*
X8515237Y46208562D02*
X8515237Y46322848D01*
X8515237Y46322848D02*
X8553333Y46475229D01*
X8553333Y46475229D02*
X8591428Y46551420D01*
X8591428Y46551420D02*
X8667618Y46627610D01*
X8667618Y46627610D02*
X8781904Y46665705D01*
X8781904Y46665705D02*
X8858095Y46665705D01*
X8858095Y46665705D02*
X8972380Y46627610D01*
X8972380Y46627610D02*
X9010476Y46589515D01*
X6686666Y39027610D02*
X6610476Y39065705D01*
X6610476Y39065705D02*
X6496190Y39065705D01*
X6496190Y39065705D02*
X6381904Y39027610D01*
X6381904Y39027610D02*
X6305714Y38951420D01*
X6305714Y38951420D02*
X6267619Y38875229D01*
X6267619Y38875229D02*
X6229523Y38722848D01*
X6229523Y38722848D02*
X6229523Y38608562D01*
X6229523Y38608562D02*
X6267619Y38456181D01*
X6267619Y38456181D02*
X6305714Y38379991D01*
X6305714Y38379991D02*
X6381904Y38303800D01*
X6381904Y38303800D02*
X6496190Y38265705D01*
X6496190Y38265705D02*
X6572381Y38265705D01*
X6572381Y38265705D02*
X6686666Y38303800D01*
X6686666Y38303800D02*
X6724762Y38341896D01*
X6724762Y38341896D02*
X6724762Y38608562D01*
X6724762Y38608562D02*
X6572381Y38608562D01*
X7067619Y38265705D02*
X7067619Y39065705D01*
X7067619Y39065705D02*
X7524762Y38265705D01*
X7524762Y38265705D02*
X7524762Y39065705D01*
X7905714Y38265705D02*
X7905714Y39065705D01*
X7905714Y39065705D02*
X8096190Y39065705D01*
X8096190Y39065705D02*
X8210476Y39027610D01*
X8210476Y39027610D02*
X8286666Y38951420D01*
X8286666Y38951420D02*
X8324761Y38875229D01*
X8324761Y38875229D02*
X8362857Y38722848D01*
X8362857Y38722848D02*
X8362857Y38608562D01*
X8362857Y38608562D02*
X8324761Y38456181D01*
X8324761Y38456181D02*
X8286666Y38379991D01*
X8286666Y38379991D02*
X8210476Y38303800D01*
X8210476Y38303800D02*
X8096190Y38265705D01*
X8096190Y38265705D02*
X7905714Y38265705D01*
X7738878Y35329888D02*
X7691259Y35187031D01*
X7691259Y35187031D02*
X7643640Y35139412D01*
X7643640Y35139412D02*
X7548402Y35091793D01*
X7548402Y35091793D02*
X7405545Y35091793D01*
X7405545Y35091793D02*
X7310307Y35139412D01*
X7310307Y35139412D02*
X7262688Y35187031D01*
X7262688Y35187031D02*
X7215068Y35282269D01*
X7215068Y35282269D02*
X7215068Y35663221D01*
X7215068Y35663221D02*
X8215068Y35663221D01*
X8215068Y35663221D02*
X8215068Y35329888D01*
X8215068Y35329888D02*
X8167449Y35234650D01*
X8167449Y35234650D02*
X8119830Y35187031D01*
X8119830Y35187031D02*
X8024592Y35139412D01*
X8024592Y35139412D02*
X7929354Y35139412D01*
X7929354Y35139412D02*
X7834116Y35187031D01*
X7834116Y35187031D02*
X7786497Y35234650D01*
X7786497Y35234650D02*
X7738878Y35329888D01*
X7738878Y35329888D02*
X7738878Y35663221D01*
X7215068Y34091793D02*
X7691259Y34425126D01*
X7215068Y34663221D02*
X8215068Y34663221D01*
X8215068Y34663221D02*
X8215068Y34282269D01*
X8215068Y34282269D02*
X8167449Y34187031D01*
X8167449Y34187031D02*
X8119830Y34139412D01*
X8119830Y34139412D02*
X8024592Y34091793D01*
X8024592Y34091793D02*
X7881735Y34091793D01*
X7881735Y34091793D02*
X7786497Y34139412D01*
X7786497Y34139412D02*
X7738878Y34187031D01*
X7738878Y34187031D02*
X7691259Y34282269D01*
X7691259Y34282269D02*
X7691259Y34663221D01*
X7738878Y33663221D02*
X7738878Y33329888D01*
X7215068Y33187031D02*
X7215068Y33663221D01*
X7215068Y33663221D02*
X8215068Y33663221D01*
X8215068Y33663221D02*
X8215068Y33187031D01*
X7500783Y32806078D02*
X7500783Y32329888D01*
X7215068Y32901316D02*
X8215068Y32567983D01*
X8215068Y32567983D02*
X7215068Y32234650D01*
X7215068Y31901316D02*
X8215068Y31901316D01*
X8215068Y31901316D02*
X8215068Y31663221D01*
X8215068Y31663221D02*
X8167449Y31520364D01*
X8167449Y31520364D02*
X8072211Y31425126D01*
X8072211Y31425126D02*
X7976973Y31377507D01*
X7976973Y31377507D02*
X7786497Y31329888D01*
X7786497Y31329888D02*
X7643640Y31329888D01*
X7643640Y31329888D02*
X7453164Y31377507D01*
X7453164Y31377507D02*
X7357926Y31425126D01*
X7357926Y31425126D02*
X7262688Y31520364D01*
X7262688Y31520364D02*
X7215068Y31663221D01*
X7215068Y31663221D02*
X7215068Y31901316D01*
X7262688Y30187030D02*
X7215068Y30044173D01*
X7215068Y30044173D02*
X7215068Y29806078D01*
X7215068Y29806078D02*
X7262688Y29710840D01*
X7262688Y29710840D02*
X7310307Y29663221D01*
X7310307Y29663221D02*
X7405545Y29615602D01*
X7405545Y29615602D02*
X7500783Y29615602D01*
X7500783Y29615602D02*
X7596021Y29663221D01*
X7596021Y29663221D02*
X7643640Y29710840D01*
X7643640Y29710840D02*
X7691259Y29806078D01*
X7691259Y29806078D02*
X7738878Y29996554D01*
X7738878Y29996554D02*
X7786497Y30091792D01*
X7786497Y30091792D02*
X7834116Y30139411D01*
X7834116Y30139411D02*
X7929354Y30187030D01*
X7929354Y30187030D02*
X8024592Y30187030D01*
X8024592Y30187030D02*
X8119830Y30139411D01*
X8119830Y30139411D02*
X8167449Y30091792D01*
X8167449Y30091792D02*
X8215068Y29996554D01*
X8215068Y29996554D02*
X8215068Y29758459D01*
X8215068Y29758459D02*
X8167449Y29615602D01*
X7215068Y29044173D02*
X7262688Y29139411D01*
X7262688Y29139411D02*
X7357926Y29187030D01*
X7357926Y29187030D02*
X8215068Y29187030D01*
X7215068Y28663220D02*
X7881735Y28663220D01*
X8215068Y28663220D02*
X8167449Y28710839D01*
X8167449Y28710839D02*
X8119830Y28663220D01*
X8119830Y28663220D02*
X8167449Y28615601D01*
X8167449Y28615601D02*
X8215068Y28663220D01*
X8215068Y28663220D02*
X8119830Y28663220D01*
X7262688Y27758459D02*
X7215068Y27853697D01*
X7215068Y27853697D02*
X7215068Y28044173D01*
X7215068Y28044173D02*
X7262688Y28139411D01*
X7262688Y28139411D02*
X7310307Y28187030D01*
X7310307Y28187030D02*
X7405545Y28234649D01*
X7405545Y28234649D02*
X7691259Y28234649D01*
X7691259Y28234649D02*
X7786497Y28187030D01*
X7786497Y28187030D02*
X7834116Y28139411D01*
X7834116Y28139411D02*
X7881735Y28044173D01*
X7881735Y28044173D02*
X7881735Y27853697D01*
X7881735Y27853697D02*
X7834116Y27758459D01*
X7262688Y26948935D02*
X7215068Y27044173D01*
X7215068Y27044173D02*
X7215068Y27234649D01*
X7215068Y27234649D02*
X7262688Y27329887D01*
X7262688Y27329887D02*
X7357926Y27377506D01*
X7357926Y27377506D02*
X7738878Y27377506D01*
X7738878Y27377506D02*
X7834116Y27329887D01*
X7834116Y27329887D02*
X7881735Y27234649D01*
X7881735Y27234649D02*
X7881735Y27044173D01*
X7881735Y27044173D02*
X7834116Y26948935D01*
X7834116Y26948935D02*
X7738878Y26901316D01*
X7738878Y26901316D02*
X7643640Y26901316D01*
X7643640Y26901316D02*
X7548402Y27377506D01*
X5652744Y35710840D02*
X5605124Y35567983D01*
X5605124Y35567983D02*
X5605124Y35329888D01*
X5605124Y35329888D02*
X5652744Y35234650D01*
X5652744Y35234650D02*
X5700363Y35187031D01*
X5700363Y35187031D02*
X5795601Y35139412D01*
X5795601Y35139412D02*
X5890839Y35139412D01*
X5890839Y35139412D02*
X5986077Y35187031D01*
X5986077Y35187031D02*
X6033696Y35234650D01*
X6033696Y35234650D02*
X6081315Y35329888D01*
X6081315Y35329888D02*
X6128934Y35520364D01*
X6128934Y35520364D02*
X6176553Y35615602D01*
X6176553Y35615602D02*
X6224172Y35663221D01*
X6224172Y35663221D02*
X6319410Y35710840D01*
X6319410Y35710840D02*
X6414648Y35710840D01*
X6414648Y35710840D02*
X6509886Y35663221D01*
X6509886Y35663221D02*
X6557505Y35615602D01*
X6557505Y35615602D02*
X6605124Y35520364D01*
X6605124Y35520364D02*
X6605124Y35282269D01*
X6605124Y35282269D02*
X6557505Y35139412D01*
X5652744Y34329888D02*
X5605124Y34425126D01*
X5605124Y34425126D02*
X5605124Y34615602D01*
X5605124Y34615602D02*
X5652744Y34710840D01*
X5652744Y34710840D02*
X5747982Y34758459D01*
X5747982Y34758459D02*
X6128934Y34758459D01*
X6128934Y34758459D02*
X6224172Y34710840D01*
X6224172Y34710840D02*
X6271791Y34615602D01*
X6271791Y34615602D02*
X6271791Y34425126D01*
X6271791Y34425126D02*
X6224172Y34329888D01*
X6224172Y34329888D02*
X6128934Y34282269D01*
X6128934Y34282269D02*
X6033696Y34282269D01*
X6033696Y34282269D02*
X5938458Y34758459D01*
X5605124Y33853697D02*
X6271791Y33853697D01*
X6081315Y33853697D02*
X6176553Y33806078D01*
X6176553Y33806078D02*
X6224172Y33758459D01*
X6224172Y33758459D02*
X6271791Y33663221D01*
X6271791Y33663221D02*
X6271791Y33567983D01*
X6271791Y33329887D02*
X5605124Y33091792D01*
X5605124Y33091792D02*
X6271791Y32853697D01*
X5605124Y32329887D02*
X5652744Y32425125D01*
X5652744Y32425125D02*
X5700363Y32472744D01*
X5700363Y32472744D02*
X5795601Y32520363D01*
X5795601Y32520363D02*
X6081315Y32520363D01*
X6081315Y32520363D02*
X6176553Y32472744D01*
X6176553Y32472744D02*
X6224172Y32425125D01*
X6224172Y32425125D02*
X6271791Y32329887D01*
X6271791Y32329887D02*
X6271791Y32187030D01*
X6271791Y32187030D02*
X6224172Y32091792D01*
X6224172Y32091792D02*
X6176553Y32044173D01*
X6176553Y32044173D02*
X6081315Y31996554D01*
X6081315Y31996554D02*
X5795601Y31996554D01*
X5795601Y31996554D02*
X5700363Y32044173D01*
X5700363Y32044173D02*
X5652744Y32091792D01*
X5652744Y32091792D02*
X5605124Y32187030D01*
X5605124Y32187030D02*
X5605124Y32329887D01*
X5700363Y30234649D02*
X5652744Y30282268D01*
X5652744Y30282268D02*
X5605124Y30425125D01*
X5605124Y30425125D02*
X5605124Y30520363D01*
X5605124Y30520363D02*
X5652744Y30663220D01*
X5652744Y30663220D02*
X5747982Y30758458D01*
X5747982Y30758458D02*
X5843220Y30806077D01*
X5843220Y30806077D02*
X6033696Y30853696D01*
X6033696Y30853696D02*
X6176553Y30853696D01*
X6176553Y30853696D02*
X6367029Y30806077D01*
X6367029Y30806077D02*
X6462267Y30758458D01*
X6462267Y30758458D02*
X6557505Y30663220D01*
X6557505Y30663220D02*
X6605124Y30520363D01*
X6605124Y30520363D02*
X6605124Y30425125D01*
X6605124Y30425125D02*
X6557505Y30282268D01*
X6557505Y30282268D02*
X6509886Y30234649D01*
X5605124Y29663220D02*
X5652744Y29758458D01*
X5652744Y29758458D02*
X5700363Y29806077D01*
X5700363Y29806077D02*
X5795601Y29853696D01*
X5795601Y29853696D02*
X6081315Y29853696D01*
X6081315Y29853696D02*
X6176553Y29806077D01*
X6176553Y29806077D02*
X6224172Y29758458D01*
X6224172Y29758458D02*
X6271791Y29663220D01*
X6271791Y29663220D02*
X6271791Y29520363D01*
X6271791Y29520363D02*
X6224172Y29425125D01*
X6224172Y29425125D02*
X6176553Y29377506D01*
X6176553Y29377506D02*
X6081315Y29329887D01*
X6081315Y29329887D02*
X5795601Y29329887D01*
X5795601Y29329887D02*
X5700363Y29377506D01*
X5700363Y29377506D02*
X5652744Y29425125D01*
X5652744Y29425125D02*
X5605124Y29520363D01*
X5605124Y29520363D02*
X5605124Y29663220D01*
X6271791Y28901315D02*
X5605124Y28901315D01*
X6176553Y28901315D02*
X6224172Y28853696D01*
X6224172Y28853696D02*
X6271791Y28758458D01*
X6271791Y28758458D02*
X6271791Y28615601D01*
X6271791Y28615601D02*
X6224172Y28520363D01*
X6224172Y28520363D02*
X6128934Y28472744D01*
X6128934Y28472744D02*
X5605124Y28472744D01*
X6271791Y28139410D02*
X6271791Y27758458D01*
X6605124Y27996553D02*
X5747982Y27996553D01*
X5747982Y27996553D02*
X5652744Y27948934D01*
X5652744Y27948934D02*
X5605124Y27853696D01*
X5605124Y27853696D02*
X5605124Y27758458D01*
X5605124Y27425124D02*
X6271791Y27425124D01*
X6081315Y27425124D02*
X6176553Y27377505D01*
X6176553Y27377505D02*
X6224172Y27329886D01*
X6224172Y27329886D02*
X6271791Y27234648D01*
X6271791Y27234648D02*
X6271791Y27139410D01*
X5605124Y26663219D02*
X5652744Y26758457D01*
X5652744Y26758457D02*
X5700363Y26806076D01*
X5700363Y26806076D02*
X5795601Y26853695D01*
X5795601Y26853695D02*
X6081315Y26853695D01*
X6081315Y26853695D02*
X6176553Y26806076D01*
X6176553Y26806076D02*
X6224172Y26758457D01*
X6224172Y26758457D02*
X6271791Y26663219D01*
X6271791Y26663219D02*
X6271791Y26520362D01*
X6271791Y26520362D02*
X6224172Y26425124D01*
X6224172Y26425124D02*
X6176553Y26377505D01*
X6176553Y26377505D02*
X6081315Y26329886D01*
X6081315Y26329886D02*
X5795601Y26329886D01*
X5795601Y26329886D02*
X5700363Y26377505D01*
X5700363Y26377505D02*
X5652744Y26425124D01*
X5652744Y26425124D02*
X5605124Y26520362D01*
X5605124Y26520362D02*
X5605124Y26663219D01*
X5605124Y25758457D02*
X5652744Y25853695D01*
X5652744Y25853695D02*
X5747982Y25901314D01*
X5747982Y25901314D02*
X6605124Y25901314D01*
X3614228Y35377507D02*
X3661847Y35425126D01*
X3661847Y35425126D02*
X3804704Y35520364D01*
X3804704Y35520364D02*
X3899942Y35567983D01*
X3899942Y35567983D02*
X4042800Y35615602D01*
X4042800Y35615602D02*
X4280895Y35663221D01*
X4280895Y35663221D02*
X4471371Y35663221D01*
X4471371Y35663221D02*
X4709466Y35615602D01*
X4709466Y35615602D02*
X4852323Y35567983D01*
X4852323Y35567983D02*
X4947561Y35520364D01*
X4947561Y35520364D02*
X5090419Y35425126D01*
X5090419Y35425126D02*
X5138038Y35377507D01*
X4042800Y35044173D02*
X3995180Y34901316D01*
X3995180Y34901316D02*
X3995180Y34663221D01*
X3995180Y34663221D02*
X4042800Y34567983D01*
X4042800Y34567983D02*
X4090419Y34520364D01*
X4090419Y34520364D02*
X4185657Y34472745D01*
X4185657Y34472745D02*
X4280895Y34472745D01*
X4280895Y34472745D02*
X4376133Y34520364D01*
X4376133Y34520364D02*
X4423752Y34567983D01*
X4423752Y34567983D02*
X4471371Y34663221D01*
X4471371Y34663221D02*
X4518990Y34853697D01*
X4518990Y34853697D02*
X4566609Y34948935D01*
X4566609Y34948935D02*
X4614228Y34996554D01*
X4614228Y34996554D02*
X4709466Y35044173D01*
X4709466Y35044173D02*
X4804704Y35044173D01*
X4804704Y35044173D02*
X4899942Y34996554D01*
X4899942Y34996554D02*
X4947561Y34948935D01*
X4947561Y34948935D02*
X4995180Y34853697D01*
X4995180Y34853697D02*
X4995180Y34615602D01*
X4995180Y34615602D02*
X4947561Y34472745D01*
X3995180Y33567983D02*
X3995180Y34044173D01*
X3995180Y34044173D02*
X4995180Y34044173D01*
X4090419Y32663221D02*
X4042800Y32710840D01*
X4042800Y32710840D02*
X3995180Y32853697D01*
X3995180Y32853697D02*
X3995180Y32948935D01*
X3995180Y32948935D02*
X4042800Y33091792D01*
X4042800Y33091792D02*
X4138038Y33187030D01*
X4138038Y33187030D02*
X4233276Y33234649D01*
X4233276Y33234649D02*
X4423752Y33282268D01*
X4423752Y33282268D02*
X4566609Y33282268D01*
X4566609Y33282268D02*
X4757085Y33234649D01*
X4757085Y33234649D02*
X4852323Y33187030D01*
X4852323Y33187030D02*
X4947561Y33091792D01*
X4947561Y33091792D02*
X4995180Y32948935D01*
X4995180Y32948935D02*
X4995180Y32853697D01*
X4995180Y32853697D02*
X4947561Y32710840D01*
X4947561Y32710840D02*
X4899942Y32663221D01*
X3899942Y32472744D02*
X3899942Y31710840D01*
X4042800Y31520363D02*
X3995180Y31377506D01*
X3995180Y31377506D02*
X3995180Y31139411D01*
X3995180Y31139411D02*
X4042800Y31044173D01*
X4042800Y31044173D02*
X4090419Y30996554D01*
X4090419Y30996554D02*
X4185657Y30948935D01*
X4185657Y30948935D02*
X4280895Y30948935D01*
X4280895Y30948935D02*
X4376133Y30996554D01*
X4376133Y30996554D02*
X4423752Y31044173D01*
X4423752Y31044173D02*
X4471371Y31139411D01*
X4471371Y31139411D02*
X4518990Y31329887D01*
X4518990Y31329887D02*
X4566609Y31425125D01*
X4566609Y31425125D02*
X4614228Y31472744D01*
X4614228Y31472744D02*
X4709466Y31520363D01*
X4709466Y31520363D02*
X4804704Y31520363D01*
X4804704Y31520363D02*
X4899942Y31472744D01*
X4899942Y31472744D02*
X4947561Y31425125D01*
X4947561Y31425125D02*
X4995180Y31329887D01*
X4995180Y31329887D02*
X4995180Y31091792D01*
X4995180Y31091792D02*
X4947561Y30948935D01*
X4518990Y30520363D02*
X4518990Y30187030D01*
X3995180Y30044173D02*
X3995180Y30520363D01*
X3995180Y30520363D02*
X4995180Y30520363D01*
X4995180Y30520363D02*
X4995180Y30044173D01*
X3995180Y29044173D02*
X4471371Y29377506D01*
X3995180Y29615601D02*
X4995180Y29615601D01*
X4995180Y29615601D02*
X4995180Y29234649D01*
X4995180Y29234649D02*
X4947561Y29139411D01*
X4947561Y29139411D02*
X4899942Y29091792D01*
X4899942Y29091792D02*
X4804704Y29044173D01*
X4804704Y29044173D02*
X4661847Y29044173D01*
X4661847Y29044173D02*
X4566609Y29091792D01*
X4566609Y29091792D02*
X4518990Y29139411D01*
X4518990Y29139411D02*
X4471371Y29234649D01*
X4471371Y29234649D02*
X4471371Y29615601D01*
X4995180Y28758458D02*
X3995180Y28425125D01*
X3995180Y28425125D02*
X4995180Y28091792D01*
X3614228Y27853696D02*
X3661847Y27806077D01*
X3661847Y27806077D02*
X3804704Y27710839D01*
X3804704Y27710839D02*
X3899942Y27663220D01*
X3899942Y27663220D02*
X4042800Y27615601D01*
X4042800Y27615601D02*
X4280895Y27567982D01*
X4280895Y27567982D02*
X4471371Y27567982D01*
X4471371Y27567982D02*
X4709466Y27615601D01*
X4709466Y27615601D02*
X4852323Y27663220D01*
X4852323Y27663220D02*
X4947561Y27710839D01*
X4947561Y27710839D02*
X5090419Y27806077D01*
X5090419Y27806077D02*
X5138038Y27853696D01*
X2480475Y35091793D02*
X2432856Y35139412D01*
X2432856Y35139412D02*
X2385236Y35282269D01*
X2385236Y35282269D02*
X2385236Y35377507D01*
X2385236Y35377507D02*
X2432856Y35520364D01*
X2432856Y35520364D02*
X2528094Y35615602D01*
X2528094Y35615602D02*
X2623332Y35663221D01*
X2623332Y35663221D02*
X2813808Y35710840D01*
X2813808Y35710840D02*
X2956665Y35710840D01*
X2956665Y35710840D02*
X3147141Y35663221D01*
X3147141Y35663221D02*
X3242379Y35615602D01*
X3242379Y35615602D02*
X3337617Y35520364D01*
X3337617Y35520364D02*
X3385236Y35377507D01*
X3385236Y35377507D02*
X3385236Y35282269D01*
X3385236Y35282269D02*
X3337617Y35139412D01*
X3337617Y35139412D02*
X3289998Y35091793D01*
X2385236Y34234650D02*
X2909046Y34234650D01*
X2909046Y34234650D02*
X3004284Y34282269D01*
X3004284Y34282269D02*
X3051903Y34377507D01*
X3051903Y34377507D02*
X3051903Y34567983D01*
X3051903Y34567983D02*
X3004284Y34663221D01*
X2432856Y34234650D02*
X2385236Y34329888D01*
X2385236Y34329888D02*
X2385236Y34567983D01*
X2385236Y34567983D02*
X2432856Y34663221D01*
X2432856Y34663221D02*
X2528094Y34710840D01*
X2528094Y34710840D02*
X2623332Y34710840D01*
X2623332Y34710840D02*
X2718570Y34663221D01*
X2718570Y34663221D02*
X2766189Y34567983D01*
X2766189Y34567983D02*
X2766189Y34329888D01*
X2766189Y34329888D02*
X2813808Y34234650D01*
X2385236Y33758459D02*
X3051903Y33758459D01*
X2956665Y33758459D02*
X3004284Y33710840D01*
X3004284Y33710840D02*
X3051903Y33615602D01*
X3051903Y33615602D02*
X3051903Y33472745D01*
X3051903Y33472745D02*
X3004284Y33377507D01*
X3004284Y33377507D02*
X2909046Y33329888D01*
X2909046Y33329888D02*
X2385236Y33329888D01*
X2909046Y33329888D02*
X3004284Y33282269D01*
X3004284Y33282269D02*
X3051903Y33187031D01*
X3051903Y33187031D02*
X3051903Y33044174D01*
X3051903Y33044174D02*
X3004284Y32948935D01*
X3004284Y32948935D02*
X2909046Y32901316D01*
X2909046Y32901316D02*
X2385236Y32901316D01*
X2385236Y31663221D02*
X3385236Y31663221D01*
X2385236Y31091793D02*
X2956665Y31520364D01*
X3385236Y31091793D02*
X2813808Y31663221D01*
X2909046Y29567983D02*
X2861427Y29425126D01*
X2861427Y29425126D02*
X2813808Y29377507D01*
X2813808Y29377507D02*
X2718570Y29329888D01*
X2718570Y29329888D02*
X2575713Y29329888D01*
X2575713Y29329888D02*
X2480475Y29377507D01*
X2480475Y29377507D02*
X2432856Y29425126D01*
X2432856Y29425126D02*
X2385236Y29520364D01*
X2385236Y29520364D02*
X2385236Y29901316D01*
X2385236Y29901316D02*
X3385236Y29901316D01*
X3385236Y29901316D02*
X3385236Y29567983D01*
X3385236Y29567983D02*
X3337617Y29472745D01*
X3337617Y29472745D02*
X3289998Y29425126D01*
X3289998Y29425126D02*
X3194760Y29377507D01*
X3194760Y29377507D02*
X3099522Y29377507D01*
X3099522Y29377507D02*
X3004284Y29425126D01*
X3004284Y29425126D02*
X2956665Y29472745D01*
X2956665Y29472745D02*
X2909046Y29567983D01*
X2909046Y29567983D02*
X2909046Y29901316D01*
X2385236Y28901316D02*
X3051903Y28901316D01*
X2861427Y28901316D02*
X2956665Y28853697D01*
X2956665Y28853697D02*
X3004284Y28806078D01*
X3004284Y28806078D02*
X3051903Y28710840D01*
X3051903Y28710840D02*
X3051903Y28615602D01*
X2385236Y28139411D02*
X2432856Y28234649D01*
X2432856Y28234649D02*
X2480475Y28282268D01*
X2480475Y28282268D02*
X2575713Y28329887D01*
X2575713Y28329887D02*
X2861427Y28329887D01*
X2861427Y28329887D02*
X2956665Y28282268D01*
X2956665Y28282268D02*
X3004284Y28234649D01*
X3004284Y28234649D02*
X3051903Y28139411D01*
X3051903Y28139411D02*
X3051903Y27996554D01*
X3051903Y27996554D02*
X3004284Y27901316D01*
X3004284Y27901316D02*
X2956665Y27853697D01*
X2956665Y27853697D02*
X2861427Y27806078D01*
X2861427Y27806078D02*
X2575713Y27806078D01*
X2575713Y27806078D02*
X2480475Y27853697D01*
X2480475Y27853697D02*
X2432856Y27901316D01*
X2432856Y27901316D02*
X2385236Y27996554D01*
X2385236Y27996554D02*
X2385236Y28139411D01*
X2385236Y27234649D02*
X2432856Y27329887D01*
X2432856Y27329887D02*
X2480475Y27377506D01*
X2480475Y27377506D02*
X2575713Y27425125D01*
X2575713Y27425125D02*
X2861427Y27425125D01*
X2861427Y27425125D02*
X2956665Y27377506D01*
X2956665Y27377506D02*
X3004284Y27329887D01*
X3004284Y27329887D02*
X3051903Y27234649D01*
X3051903Y27234649D02*
X3051903Y27091792D01*
X3051903Y27091792D02*
X3004284Y26996554D01*
X3004284Y26996554D02*
X2956665Y26948935D01*
X2956665Y26948935D02*
X2861427Y26901316D01*
X2861427Y26901316D02*
X2575713Y26901316D01*
X2575713Y26901316D02*
X2480475Y26948935D01*
X2480475Y26948935D02*
X2432856Y26996554D01*
X2432856Y26996554D02*
X2385236Y27091792D01*
X2385236Y27091792D02*
X2385236Y27234649D01*
X2385236Y26472744D02*
X3385236Y26472744D01*
X2766189Y26377506D02*
X2385236Y26091792D01*
X3051903Y26091792D02*
X2670951Y26472744D01*
X2432856Y25710839D02*
X2385236Y25615601D01*
X2385236Y25615601D02*
X2385236Y25425125D01*
X2385236Y25425125D02*
X2432856Y25329887D01*
X2432856Y25329887D02*
X2528094Y25282268D01*
X2528094Y25282268D02*
X2575713Y25282268D01*
X2575713Y25282268D02*
X2670951Y25329887D01*
X2670951Y25329887D02*
X2718570Y25425125D01*
X2718570Y25425125D02*
X2718570Y25567982D01*
X2718570Y25567982D02*
X2766189Y25663220D01*
X2766189Y25663220D02*
X2861427Y25710839D01*
X2861427Y25710839D02*
X2909046Y25710839D01*
X2909046Y25710839D02*
X3004284Y25663220D01*
X3004284Y25663220D02*
X3051903Y25567982D01*
X3051903Y25567982D02*
X3051903Y25425125D01*
X3051903Y25425125D02*
X3004284Y25329887D01*
X775292Y35663221D02*
X1441959Y35663221D01*
X1251483Y35663221D02*
X1346721Y35615602D01*
X1346721Y35615602D02*
X1394340Y35567983D01*
X1394340Y35567983D02*
X1441959Y35472745D01*
X1441959Y35472745D02*
X1441959Y35377507D01*
X822912Y34663221D02*
X775292Y34758459D01*
X775292Y34758459D02*
X775292Y34948935D01*
X775292Y34948935D02*
X822912Y35044173D01*
X822912Y35044173D02*
X918150Y35091792D01*
X918150Y35091792D02*
X1299102Y35091792D01*
X1299102Y35091792D02*
X1394340Y35044173D01*
X1394340Y35044173D02*
X1441959Y34948935D01*
X1441959Y34948935D02*
X1441959Y34758459D01*
X1441959Y34758459D02*
X1394340Y34663221D01*
X1394340Y34663221D02*
X1299102Y34615602D01*
X1299102Y34615602D02*
X1203864Y34615602D01*
X1203864Y34615602D02*
X1108626Y35091792D01*
X1441959Y34282268D02*
X775292Y34044173D01*
X775292Y34044173D02*
X1441959Y33806078D01*
X870531Y33425125D02*
X822912Y33377506D01*
X822912Y33377506D02*
X775292Y33425125D01*
X775292Y33425125D02*
X822912Y33472744D01*
X822912Y33472744D02*
X870531Y33425125D01*
X870531Y33425125D02*
X775292Y33425125D01*
X1061007Y32996554D02*
X1061007Y32520364D01*
X775292Y33091792D02*
X1775292Y32758459D01*
X1775292Y32758459D02*
X775292Y32425126D01*
X441959Y31044173D02*
X441959Y31282268D01*
X441959Y31282268D02*
X1870531Y31282268D01*
X1870531Y31282268D02*
X1870531Y31044173D01*
X1775292Y30472744D02*
X1775292Y30377506D01*
X1775292Y30377506D02*
X1727673Y30282268D01*
X1727673Y30282268D02*
X1680054Y30234649D01*
X1680054Y30234649D02*
X1584816Y30187030D01*
X1584816Y30187030D02*
X1394340Y30139411D01*
X1394340Y30139411D02*
X1156245Y30139411D01*
X1156245Y30139411D02*
X965769Y30187030D01*
X965769Y30187030D02*
X870531Y30234649D01*
X870531Y30234649D02*
X822912Y30282268D01*
X822912Y30282268D02*
X775292Y30377506D01*
X775292Y30377506D02*
X775292Y30472744D01*
X775292Y30472744D02*
X822912Y30567982D01*
X822912Y30567982D02*
X870531Y30615601D01*
X870531Y30615601D02*
X965769Y30663220D01*
X965769Y30663220D02*
X1156245Y30710839D01*
X1156245Y30710839D02*
X1394340Y30710839D01*
X1394340Y30710839D02*
X1584816Y30663220D01*
X1584816Y30663220D02*
X1680054Y30615601D01*
X1680054Y30615601D02*
X1727673Y30567982D01*
X1727673Y30567982D02*
X1775292Y30472744D01*
X775292Y29663220D02*
X775292Y29472744D01*
X775292Y29472744D02*
X822912Y29377506D01*
X822912Y29377506D02*
X870531Y29329887D01*
X870531Y29329887D02*
X1013388Y29234649D01*
X1013388Y29234649D02*
X1203864Y29187030D01*
X1203864Y29187030D02*
X1584816Y29187030D01*
X1584816Y29187030D02*
X1680054Y29234649D01*
X1680054Y29234649D02*
X1727673Y29282268D01*
X1727673Y29282268D02*
X1775292Y29377506D01*
X1775292Y29377506D02*
X1775292Y29567982D01*
X1775292Y29567982D02*
X1727673Y29663220D01*
X1727673Y29663220D02*
X1680054Y29710839D01*
X1680054Y29710839D02*
X1584816Y29758458D01*
X1584816Y29758458D02*
X1346721Y29758458D01*
X1346721Y29758458D02*
X1251483Y29710839D01*
X1251483Y29710839D02*
X1203864Y29663220D01*
X1203864Y29663220D02*
X1156245Y29567982D01*
X1156245Y29567982D02*
X1156245Y29377506D01*
X1156245Y29377506D02*
X1203864Y29282268D01*
X1203864Y29282268D02*
X1251483Y29234649D01*
X1251483Y29234649D02*
X1346721Y29187030D01*
X1156245Y28758458D02*
X1156245Y27996553D01*
X1680054Y27567982D02*
X1727673Y27520363D01*
X1727673Y27520363D02*
X1775292Y27425125D01*
X1775292Y27425125D02*
X1775292Y27187030D01*
X1775292Y27187030D02*
X1727673Y27091792D01*
X1727673Y27091792D02*
X1680054Y27044173D01*
X1680054Y27044173D02*
X1584816Y26996554D01*
X1584816Y26996554D02*
X1489578Y26996554D01*
X1489578Y26996554D02*
X1346721Y27044173D01*
X1346721Y27044173D02*
X775292Y27615601D01*
X775292Y27615601D02*
X775292Y26996554D01*
X1775292Y26377506D02*
X1775292Y26282268D01*
X1775292Y26282268D02*
X1727673Y26187030D01*
X1727673Y26187030D02*
X1680054Y26139411D01*
X1680054Y26139411D02*
X1584816Y26091792D01*
X1584816Y26091792D02*
X1394340Y26044173D01*
X1394340Y26044173D02*
X1156245Y26044173D01*
X1156245Y26044173D02*
X965769Y26091792D01*
X965769Y26091792D02*
X870531Y26139411D01*
X870531Y26139411D02*
X822912Y26187030D01*
X822912Y26187030D02*
X775292Y26282268D01*
X775292Y26282268D02*
X775292Y26377506D01*
X775292Y26377506D02*
X822912Y26472744D01*
X822912Y26472744D02*
X870531Y26520363D01*
X870531Y26520363D02*
X965769Y26567982D01*
X965769Y26567982D02*
X1156245Y26615601D01*
X1156245Y26615601D02*
X1394340Y26615601D01*
X1394340Y26615601D02*
X1584816Y26567982D01*
X1584816Y26567982D02*
X1680054Y26520363D01*
X1680054Y26520363D02*
X1727673Y26472744D01*
X1727673Y26472744D02*
X1775292Y26377506D01*
X1680054Y25663220D02*
X1727673Y25615601D01*
X1727673Y25615601D02*
X1775292Y25520363D01*
X1775292Y25520363D02*
X1775292Y25282268D01*
X1775292Y25282268D02*
X1727673Y25187030D01*
X1727673Y25187030D02*
X1680054Y25139411D01*
X1680054Y25139411D02*
X1584816Y25091792D01*
X1584816Y25091792D02*
X1489578Y25091792D01*
X1489578Y25091792D02*
X1346721Y25139411D01*
X1346721Y25139411D02*
X775292Y25710839D01*
X775292Y25710839D02*
X775292Y25091792D01*
X1441959Y24234649D02*
X775292Y24234649D01*
X1822912Y24472744D02*
X1108626Y24710839D01*
X1108626Y24710839D02*
X1108626Y24091792D01*
X441959Y23806077D02*
X441959Y23567982D01*
X441959Y23567982D02*
X1870531Y23567982D01*
X1870531Y23567982D02*
X1870531Y23806077D01*
X6686666Y61877610D02*
X6610476Y61915705D01*
X6610476Y61915705D02*
X6496190Y61915705D01*
X6496190Y61915705D02*
X6381904Y61877610D01*
X6381904Y61877610D02*
X6305714Y61801420D01*
X6305714Y61801420D02*
X6267619Y61725229D01*
X6267619Y61725229D02*
X6229523Y61572848D01*
X6229523Y61572848D02*
X6229523Y61458562D01*
X6229523Y61458562D02*
X6267619Y61306181D01*
X6267619Y61306181D02*
X6305714Y61229991D01*
X6305714Y61229991D02*
X6381904Y61153800D01*
X6381904Y61153800D02*
X6496190Y61115705D01*
X6496190Y61115705D02*
X6572381Y61115705D01*
X6572381Y61115705D02*
X6686666Y61153800D01*
X6686666Y61153800D02*
X6724762Y61191896D01*
X6724762Y61191896D02*
X6724762Y61458562D01*
X6724762Y61458562D02*
X6572381Y61458562D01*
X7067619Y61115705D02*
X7067619Y61915705D01*
X7067619Y61915705D02*
X7524762Y61115705D01*
X7524762Y61115705D02*
X7524762Y61915705D01*
X7905714Y61115705D02*
X7905714Y61915705D01*
X7905714Y61915705D02*
X8096190Y61915705D01*
X8096190Y61915705D02*
X8210476Y61877610D01*
X8210476Y61877610D02*
X8286666Y61801420D01*
X8286666Y61801420D02*
X8324761Y61725229D01*
X8324761Y61725229D02*
X8362857Y61572848D01*
X8362857Y61572848D02*
X8362857Y61458562D01*
X8362857Y61458562D02*
X8324761Y61306181D01*
X8324761Y61306181D02*
X8286666Y61229991D01*
X8286666Y61229991D02*
X8210476Y61153800D01*
X8210476Y61153800D02*
X8096190Y61115705D01*
X8096190Y61115705D02*
X7905714Y61115705D01*
D11*
X68698619Y57200001D02*
X68674809Y57152382D01*
X68674809Y57152382D02*
X68674809Y57080953D01*
X68674809Y57080953D02*
X68698619Y57009525D01*
X68698619Y57009525D02*
X68746238Y56961906D01*
X68746238Y56961906D02*
X68793857Y56938096D01*
X68793857Y56938096D02*
X68889095Y56914287D01*
X68889095Y56914287D02*
X68960523Y56914287D01*
X68960523Y56914287D02*
X69055761Y56938096D01*
X69055761Y56938096D02*
X69103380Y56961906D01*
X69103380Y56961906D02*
X69151000Y57009525D01*
X69151000Y57009525D02*
X69174809Y57080953D01*
X69174809Y57080953D02*
X69174809Y57128572D01*
X69174809Y57128572D02*
X69151000Y57200001D01*
X69151000Y57200001D02*
X69127190Y57223810D01*
X69127190Y57223810D02*
X68960523Y57223810D01*
X68960523Y57223810D02*
X68960523Y57128572D01*
X69174809Y57438096D02*
X68674809Y57438096D01*
X68674809Y57438096D02*
X69174809Y57723810D01*
X69174809Y57723810D02*
X68674809Y57723810D01*
X69174809Y57961906D02*
X68674809Y57961906D01*
X68674809Y57961906D02*
X68674809Y58080954D01*
X68674809Y58080954D02*
X68698619Y58152382D01*
X68698619Y58152382D02*
X68746238Y58200001D01*
X68746238Y58200001D02*
X68793857Y58223811D01*
X68793857Y58223811D02*
X68889095Y58247620D01*
X68889095Y58247620D02*
X68960523Y58247620D01*
X68960523Y58247620D02*
X69055761Y58223811D01*
X69055761Y58223811D02*
X69103380Y58200001D01*
X69103380Y58200001D02*
X69151000Y58152382D01*
X69151000Y58152382D02*
X69174809Y58080954D01*
X69174809Y58080954D02*
X69174809Y57961906D01*
X69174809Y59223810D02*
X68674809Y59223810D01*
X68674809Y59223810D02*
X68674809Y59414286D01*
X68674809Y59414286D02*
X68698619Y59461905D01*
X68698619Y59461905D02*
X68722428Y59485715D01*
X68722428Y59485715D02*
X68770047Y59509524D01*
X68770047Y59509524D02*
X68841476Y59509524D01*
X68841476Y59509524D02*
X68889095Y59485715D01*
X68889095Y59485715D02*
X68912904Y59461905D01*
X68912904Y59461905D02*
X68936714Y59414286D01*
X68936714Y59414286D02*
X68936714Y59223810D01*
X68674809Y59676191D02*
X69174809Y59795239D01*
X69174809Y59795239D02*
X68817666Y59890477D01*
X68817666Y59890477D02*
X69174809Y59985715D01*
X69174809Y59985715D02*
X68674809Y60104762D01*
X69174809Y60580953D02*
X68936714Y60414287D01*
X69174809Y60295239D02*
X68674809Y60295239D01*
X68674809Y60295239D02*
X68674809Y60485715D01*
X68674809Y60485715D02*
X68698619Y60533334D01*
X68698619Y60533334D02*
X68722428Y60557144D01*
X68722428Y60557144D02*
X68770047Y60580953D01*
X68770047Y60580953D02*
X68841476Y60580953D01*
X68841476Y60580953D02*
X68889095Y60557144D01*
X68889095Y60557144D02*
X68912904Y60533334D01*
X68912904Y60533334D02*
X68936714Y60485715D01*
X68936714Y60485715D02*
X68936714Y60295239D01*
X69174809Y61557143D02*
X68674809Y61557143D01*
X68674809Y61557143D02*
X68674809Y61747619D01*
X68674809Y61747619D02*
X68698619Y61795238D01*
X68698619Y61795238D02*
X68722428Y61819048D01*
X68722428Y61819048D02*
X68770047Y61842857D01*
X68770047Y61842857D02*
X68841476Y61842857D01*
X68841476Y61842857D02*
X68889095Y61819048D01*
X68889095Y61819048D02*
X68912904Y61795238D01*
X68912904Y61795238D02*
X68936714Y61747619D01*
X68936714Y61747619D02*
X68936714Y61557143D01*
X68674809Y62009524D02*
X69174809Y62128572D01*
X69174809Y62128572D02*
X68817666Y62223810D01*
X68817666Y62223810D02*
X69174809Y62319048D01*
X69174809Y62319048D02*
X68674809Y62438095D01*
X69174809Y62628572D02*
X68674809Y62628572D01*
X68674809Y62628572D02*
X69031952Y62795239D01*
X69031952Y62795239D02*
X68674809Y62961905D01*
X68674809Y62961905D02*
X69174809Y62961905D01*
D10*
X60504819Y35140477D02*
X59504819Y35140477D01*
X59504819Y35140477D02*
X60219104Y35473810D01*
X60219104Y35473810D02*
X59504819Y35807143D01*
X59504819Y35807143D02*
X60504819Y35807143D01*
X59504819Y36759524D02*
X59504819Y36283334D01*
X59504819Y36283334D02*
X59981009Y36235715D01*
X59981009Y36235715D02*
X59933390Y36283334D01*
X59933390Y36283334D02*
X59885771Y36378572D01*
X59885771Y36378572D02*
X59885771Y36616667D01*
X59885771Y36616667D02*
X59933390Y36711905D01*
X59933390Y36711905D02*
X59981009Y36759524D01*
X59981009Y36759524D02*
X60076247Y36807143D01*
X60076247Y36807143D02*
X60314342Y36807143D01*
X60314342Y36807143D02*
X60409580Y36759524D01*
X60409580Y36759524D02*
X60457200Y36711905D01*
X60457200Y36711905D02*
X60504819Y36616667D01*
X60504819Y36616667D02*
X60504819Y36378572D01*
X60504819Y36378572D02*
X60457200Y36283334D01*
X60457200Y36283334D02*
X60409580Y36235715D01*
D11*
X68748619Y45100001D02*
X68724809Y45052382D01*
X68724809Y45052382D02*
X68724809Y44980953D01*
X68724809Y44980953D02*
X68748619Y44909525D01*
X68748619Y44909525D02*
X68796238Y44861906D01*
X68796238Y44861906D02*
X68843857Y44838096D01*
X68843857Y44838096D02*
X68939095Y44814287D01*
X68939095Y44814287D02*
X69010523Y44814287D01*
X69010523Y44814287D02*
X69105761Y44838096D01*
X69105761Y44838096D02*
X69153380Y44861906D01*
X69153380Y44861906D02*
X69201000Y44909525D01*
X69201000Y44909525D02*
X69224809Y44980953D01*
X69224809Y44980953D02*
X69224809Y45028572D01*
X69224809Y45028572D02*
X69201000Y45100001D01*
X69201000Y45100001D02*
X69177190Y45123810D01*
X69177190Y45123810D02*
X69010523Y45123810D01*
X69010523Y45123810D02*
X69010523Y45028572D01*
X69224809Y45338096D02*
X68724809Y45338096D01*
X68724809Y45338096D02*
X69224809Y45623810D01*
X69224809Y45623810D02*
X68724809Y45623810D01*
X69224809Y45861906D02*
X68724809Y45861906D01*
X68724809Y45861906D02*
X68724809Y45980954D01*
X68724809Y45980954D02*
X68748619Y46052382D01*
X68748619Y46052382D02*
X68796238Y46100001D01*
X68796238Y46100001D02*
X68843857Y46123811D01*
X68843857Y46123811D02*
X68939095Y46147620D01*
X68939095Y46147620D02*
X69010523Y46147620D01*
X69010523Y46147620D02*
X69105761Y46123811D01*
X69105761Y46123811D02*
X69153380Y46100001D01*
X69153380Y46100001D02*
X69201000Y46052382D01*
X69201000Y46052382D02*
X69224809Y45980954D01*
X69224809Y45980954D02*
X69224809Y45861906D01*
X69224809Y47123810D02*
X68724809Y47123810D01*
X68724809Y47123810D02*
X68724809Y47314286D01*
X68724809Y47314286D02*
X68748619Y47361905D01*
X68748619Y47361905D02*
X68772428Y47385715D01*
X68772428Y47385715D02*
X68820047Y47409524D01*
X68820047Y47409524D02*
X68891476Y47409524D01*
X68891476Y47409524D02*
X68939095Y47385715D01*
X68939095Y47385715D02*
X68962904Y47361905D01*
X68962904Y47361905D02*
X68986714Y47314286D01*
X68986714Y47314286D02*
X68986714Y47123810D01*
X68724809Y47576191D02*
X69224809Y47695239D01*
X69224809Y47695239D02*
X68867666Y47790477D01*
X68867666Y47790477D02*
X69224809Y47885715D01*
X69224809Y47885715D02*
X68724809Y48004762D01*
X69224809Y48480953D02*
X68986714Y48314287D01*
X69224809Y48195239D02*
X68724809Y48195239D01*
X68724809Y48195239D02*
X68724809Y48385715D01*
X68724809Y48385715D02*
X68748619Y48433334D01*
X68748619Y48433334D02*
X68772428Y48457144D01*
X68772428Y48457144D02*
X68820047Y48480953D01*
X68820047Y48480953D02*
X68891476Y48480953D01*
X68891476Y48480953D02*
X68939095Y48457144D01*
X68939095Y48457144D02*
X68962904Y48433334D01*
X68962904Y48433334D02*
X68986714Y48385715D01*
X68986714Y48385715D02*
X68986714Y48195239D01*
X69224809Y49457143D02*
X68724809Y49457143D01*
X68724809Y49457143D02*
X68724809Y49647619D01*
X68724809Y49647619D02*
X68748619Y49695238D01*
X68748619Y49695238D02*
X68772428Y49719048D01*
X68772428Y49719048D02*
X68820047Y49742857D01*
X68820047Y49742857D02*
X68891476Y49742857D01*
X68891476Y49742857D02*
X68939095Y49719048D01*
X68939095Y49719048D02*
X68962904Y49695238D01*
X68962904Y49695238D02*
X68986714Y49647619D01*
X68986714Y49647619D02*
X68986714Y49457143D01*
X68724809Y49909524D02*
X69224809Y50028572D01*
X69224809Y50028572D02*
X68867666Y50123810D01*
X68867666Y50123810D02*
X69224809Y50219048D01*
X69224809Y50219048D02*
X68724809Y50338095D01*
X69224809Y50528572D02*
X68724809Y50528572D01*
X68724809Y50528572D02*
X69081952Y50695239D01*
X69081952Y50695239D02*
X68724809Y50861905D01*
X68724809Y50861905D02*
X69224809Y50861905D01*
D10*
X60404819Y47140477D02*
X59404819Y47140477D01*
X59404819Y47140477D02*
X60119104Y47473810D01*
X60119104Y47473810D02*
X59404819Y47807143D01*
X59404819Y47807143D02*
X60404819Y47807143D01*
X59738152Y48711905D02*
X60404819Y48711905D01*
X59357200Y48473810D02*
X60071485Y48235715D01*
X60071485Y48235715D02*
X60071485Y48854762D01*
D11*
X68648619Y69184001D02*
X68624809Y69136382D01*
X68624809Y69136382D02*
X68624809Y69064953D01*
X68624809Y69064953D02*
X68648619Y68993525D01*
X68648619Y68993525D02*
X68696238Y68945906D01*
X68696238Y68945906D02*
X68743857Y68922096D01*
X68743857Y68922096D02*
X68839095Y68898287D01*
X68839095Y68898287D02*
X68910523Y68898287D01*
X68910523Y68898287D02*
X69005761Y68922096D01*
X69005761Y68922096D02*
X69053380Y68945906D01*
X69053380Y68945906D02*
X69101000Y68993525D01*
X69101000Y68993525D02*
X69124809Y69064953D01*
X69124809Y69064953D02*
X69124809Y69112572D01*
X69124809Y69112572D02*
X69101000Y69184001D01*
X69101000Y69184001D02*
X69077190Y69207810D01*
X69077190Y69207810D02*
X68910523Y69207810D01*
X68910523Y69207810D02*
X68910523Y69112572D01*
X69124809Y69422096D02*
X68624809Y69422096D01*
X68624809Y69422096D02*
X69124809Y69707810D01*
X69124809Y69707810D02*
X68624809Y69707810D01*
X69124809Y69945906D02*
X68624809Y69945906D01*
X68624809Y69945906D02*
X68624809Y70064954D01*
X68624809Y70064954D02*
X68648619Y70136382D01*
X68648619Y70136382D02*
X68696238Y70184001D01*
X68696238Y70184001D02*
X68743857Y70207811D01*
X68743857Y70207811D02*
X68839095Y70231620D01*
X68839095Y70231620D02*
X68910523Y70231620D01*
X68910523Y70231620D02*
X69005761Y70207811D01*
X69005761Y70207811D02*
X69053380Y70184001D01*
X69053380Y70184001D02*
X69101000Y70136382D01*
X69101000Y70136382D02*
X69124809Y70064954D01*
X69124809Y70064954D02*
X69124809Y69945906D01*
X69124809Y71207810D02*
X68624809Y71207810D01*
X68624809Y71207810D02*
X68624809Y71398286D01*
X68624809Y71398286D02*
X68648619Y71445905D01*
X68648619Y71445905D02*
X68672428Y71469715D01*
X68672428Y71469715D02*
X68720047Y71493524D01*
X68720047Y71493524D02*
X68791476Y71493524D01*
X68791476Y71493524D02*
X68839095Y71469715D01*
X68839095Y71469715D02*
X68862904Y71445905D01*
X68862904Y71445905D02*
X68886714Y71398286D01*
X68886714Y71398286D02*
X68886714Y71207810D01*
X68624809Y71660191D02*
X69124809Y71779239D01*
X69124809Y71779239D02*
X68767666Y71874477D01*
X68767666Y71874477D02*
X69124809Y71969715D01*
X69124809Y71969715D02*
X68624809Y72088762D01*
X69124809Y72564953D02*
X68886714Y72398287D01*
X69124809Y72279239D02*
X68624809Y72279239D01*
X68624809Y72279239D02*
X68624809Y72469715D01*
X68624809Y72469715D02*
X68648619Y72517334D01*
X68648619Y72517334D02*
X68672428Y72541144D01*
X68672428Y72541144D02*
X68720047Y72564953D01*
X68720047Y72564953D02*
X68791476Y72564953D01*
X68791476Y72564953D02*
X68839095Y72541144D01*
X68839095Y72541144D02*
X68862904Y72517334D01*
X68862904Y72517334D02*
X68886714Y72469715D01*
X68886714Y72469715D02*
X68886714Y72279239D01*
X69124809Y73541143D02*
X68624809Y73541143D01*
X68624809Y73541143D02*
X68624809Y73731619D01*
X68624809Y73731619D02*
X68648619Y73779238D01*
X68648619Y73779238D02*
X68672428Y73803048D01*
X68672428Y73803048D02*
X68720047Y73826857D01*
X68720047Y73826857D02*
X68791476Y73826857D01*
X68791476Y73826857D02*
X68839095Y73803048D01*
X68839095Y73803048D02*
X68862904Y73779238D01*
X68862904Y73779238D02*
X68886714Y73731619D01*
X68886714Y73731619D02*
X68886714Y73541143D01*
X68624809Y73993524D02*
X69124809Y74112572D01*
X69124809Y74112572D02*
X68767666Y74207810D01*
X68767666Y74207810D02*
X69124809Y74303048D01*
X69124809Y74303048D02*
X68624809Y74422095D01*
X69124809Y74612572D02*
X68624809Y74612572D01*
X68624809Y74612572D02*
X68981952Y74779239D01*
X68981952Y74779239D02*
X68624809Y74945905D01*
X68624809Y74945905D02*
X69124809Y74945905D01*
D10*
X60404819Y83440477D02*
X59404819Y83440477D01*
X59404819Y83440477D02*
X60119104Y83773810D01*
X60119104Y83773810D02*
X59404819Y84107143D01*
X59404819Y84107143D02*
X60404819Y84107143D01*
X60404819Y85107143D02*
X60404819Y84535715D01*
X60404819Y84821429D02*
X59404819Y84821429D01*
X59404819Y84821429D02*
X59547676Y84726191D01*
X59547676Y84726191D02*
X59642914Y84630953D01*
X59642914Y84630953D02*
X59690533Y84535715D01*
X6267618Y48834753D02*
X6534284Y48834753D01*
X6648570Y48415705D02*
X6267618Y48415705D01*
X6267618Y48415705D02*
X6267618Y49215705D01*
X6267618Y49215705D02*
X6648570Y49215705D01*
X6953332Y48453800D02*
X7067618Y48415705D01*
X7067618Y48415705D02*
X7258094Y48415705D01*
X7258094Y48415705D02*
X7334285Y48453800D01*
X7334285Y48453800D02*
X7372380Y48491896D01*
X7372380Y48491896D02*
X7410475Y48568086D01*
X7410475Y48568086D02*
X7410475Y48644277D01*
X7410475Y48644277D02*
X7372380Y48720467D01*
X7372380Y48720467D02*
X7334285Y48758562D01*
X7334285Y48758562D02*
X7258094Y48796658D01*
X7258094Y48796658D02*
X7105713Y48834753D01*
X7105713Y48834753D02*
X7029523Y48872848D01*
X7029523Y48872848D02*
X6991428Y48910943D01*
X6991428Y48910943D02*
X6953332Y48987134D01*
X6953332Y48987134D02*
X6953332Y49063324D01*
X6953332Y49063324D02*
X6991428Y49139515D01*
X6991428Y49139515D02*
X7029523Y49177610D01*
X7029523Y49177610D02*
X7105713Y49215705D01*
X7105713Y49215705D02*
X7296190Y49215705D01*
X7296190Y49215705D02*
X7410475Y49177610D01*
X7639047Y49215705D02*
X8096190Y49215705D01*
X7867618Y48415705D02*
X7867618Y49215705D01*
X8515238Y49215705D02*
X8667619Y49215705D01*
X8667619Y49215705D02*
X8743809Y49177610D01*
X8743809Y49177610D02*
X8820000Y49101420D01*
X8820000Y49101420D02*
X8858095Y48949039D01*
X8858095Y48949039D02*
X8858095Y48682372D01*
X8858095Y48682372D02*
X8820000Y48529991D01*
X8820000Y48529991D02*
X8743809Y48453800D01*
X8743809Y48453800D02*
X8667619Y48415705D01*
X8667619Y48415705D02*
X8515238Y48415705D01*
X8515238Y48415705D02*
X8439047Y48453800D01*
X8439047Y48453800D02*
X8362857Y48529991D01*
X8362857Y48529991D02*
X8324761Y48682372D01*
X8324761Y48682372D02*
X8324761Y48949039D01*
X8324761Y48949039D02*
X8362857Y49101420D01*
X8362857Y49101420D02*
X8439047Y49177610D01*
X8439047Y49177610D02*
X8515238Y49215705D01*
X9200952Y48415705D02*
X9200952Y49215705D01*
X9200952Y49215705D02*
X9505714Y49215705D01*
X9505714Y49215705D02*
X9581904Y49177610D01*
X9581904Y49177610D02*
X9619999Y49139515D01*
X9619999Y49139515D02*
X9658095Y49063324D01*
X9658095Y49063324D02*
X9658095Y48949039D01*
X9658095Y48949039D02*
X9619999Y48872848D01*
X9619999Y48872848D02*
X9581904Y48834753D01*
X9581904Y48834753D02*
X9505714Y48796658D01*
X9505714Y48796658D02*
X9200952Y48796658D01*
X6267619Y43315705D02*
X6267619Y44115705D01*
X6648571Y43315705D02*
X6648571Y44115705D01*
X6648571Y44115705D02*
X7105714Y43315705D01*
X7105714Y43315705D02*
X7105714Y44115705D01*
X7372380Y44115705D02*
X7829523Y44115705D01*
X7600951Y43315705D02*
X7600951Y44115705D01*
X6229523Y53503800D02*
X6343809Y53465705D01*
X6343809Y53465705D02*
X6534285Y53465705D01*
X6534285Y53465705D02*
X6610476Y53503800D01*
X6610476Y53503800D02*
X6648571Y53541896D01*
X6648571Y53541896D02*
X6686666Y53618086D01*
X6686666Y53618086D02*
X6686666Y53694277D01*
X6686666Y53694277D02*
X6648571Y53770467D01*
X6648571Y53770467D02*
X6610476Y53808562D01*
X6610476Y53808562D02*
X6534285Y53846658D01*
X6534285Y53846658D02*
X6381904Y53884753D01*
X6381904Y53884753D02*
X6305714Y53922848D01*
X6305714Y53922848D02*
X6267619Y53960943D01*
X6267619Y53960943D02*
X6229523Y54037134D01*
X6229523Y54037134D02*
X6229523Y54113324D01*
X6229523Y54113324D02*
X6267619Y54189515D01*
X6267619Y54189515D02*
X6305714Y54227610D01*
X6305714Y54227610D02*
X6381904Y54265705D01*
X6381904Y54265705D02*
X6572381Y54265705D01*
X6572381Y54265705D02*
X6686666Y54227610D01*
X7029524Y53465705D02*
X7029524Y54265705D01*
X7029524Y54265705D02*
X7220000Y54265705D01*
X7220000Y54265705D02*
X7334286Y54227610D01*
X7334286Y54227610D02*
X7410476Y54151420D01*
X7410476Y54151420D02*
X7448571Y54075229D01*
X7448571Y54075229D02*
X7486667Y53922848D01*
X7486667Y53922848D02*
X7486667Y53808562D01*
X7486667Y53808562D02*
X7448571Y53656181D01*
X7448571Y53656181D02*
X7410476Y53579991D01*
X7410476Y53579991D02*
X7334286Y53503800D01*
X7334286Y53503800D02*
X7220000Y53465705D01*
X7220000Y53465705D02*
X7029524Y53465705D01*
X7791428Y53694277D02*
X8172381Y53694277D01*
X7715238Y53465705D02*
X7981905Y54265705D01*
X7981905Y54265705D02*
X8248571Y53465705D01*
D11*
X68848619Y81250001D02*
X68824809Y81202382D01*
X68824809Y81202382D02*
X68824809Y81130953D01*
X68824809Y81130953D02*
X68848619Y81059525D01*
X68848619Y81059525D02*
X68896238Y81011906D01*
X68896238Y81011906D02*
X68943857Y80988096D01*
X68943857Y80988096D02*
X69039095Y80964287D01*
X69039095Y80964287D02*
X69110523Y80964287D01*
X69110523Y80964287D02*
X69205761Y80988096D01*
X69205761Y80988096D02*
X69253380Y81011906D01*
X69253380Y81011906D02*
X69301000Y81059525D01*
X69301000Y81059525D02*
X69324809Y81130953D01*
X69324809Y81130953D02*
X69324809Y81178572D01*
X69324809Y81178572D02*
X69301000Y81250001D01*
X69301000Y81250001D02*
X69277190Y81273810D01*
X69277190Y81273810D02*
X69110523Y81273810D01*
X69110523Y81273810D02*
X69110523Y81178572D01*
X69324809Y81488096D02*
X68824809Y81488096D01*
X68824809Y81488096D02*
X69324809Y81773810D01*
X69324809Y81773810D02*
X68824809Y81773810D01*
X69324809Y82011906D02*
X68824809Y82011906D01*
X68824809Y82011906D02*
X68824809Y82130954D01*
X68824809Y82130954D02*
X68848619Y82202382D01*
X68848619Y82202382D02*
X68896238Y82250001D01*
X68896238Y82250001D02*
X68943857Y82273811D01*
X68943857Y82273811D02*
X69039095Y82297620D01*
X69039095Y82297620D02*
X69110523Y82297620D01*
X69110523Y82297620D02*
X69205761Y82273811D01*
X69205761Y82273811D02*
X69253380Y82250001D01*
X69253380Y82250001D02*
X69301000Y82202382D01*
X69301000Y82202382D02*
X69324809Y82130954D01*
X69324809Y82130954D02*
X69324809Y82011906D01*
X69324809Y83273810D02*
X68824809Y83273810D01*
X68824809Y83273810D02*
X68824809Y83464286D01*
X68824809Y83464286D02*
X68848619Y83511905D01*
X68848619Y83511905D02*
X68872428Y83535715D01*
X68872428Y83535715D02*
X68920047Y83559524D01*
X68920047Y83559524D02*
X68991476Y83559524D01*
X68991476Y83559524D02*
X69039095Y83535715D01*
X69039095Y83535715D02*
X69062904Y83511905D01*
X69062904Y83511905D02*
X69086714Y83464286D01*
X69086714Y83464286D02*
X69086714Y83273810D01*
X68824809Y83726191D02*
X69324809Y83845239D01*
X69324809Y83845239D02*
X68967666Y83940477D01*
X68967666Y83940477D02*
X69324809Y84035715D01*
X69324809Y84035715D02*
X68824809Y84154762D01*
X69324809Y84630953D02*
X69086714Y84464287D01*
X69324809Y84345239D02*
X68824809Y84345239D01*
X68824809Y84345239D02*
X68824809Y84535715D01*
X68824809Y84535715D02*
X68848619Y84583334D01*
X68848619Y84583334D02*
X68872428Y84607144D01*
X68872428Y84607144D02*
X68920047Y84630953D01*
X68920047Y84630953D02*
X68991476Y84630953D01*
X68991476Y84630953D02*
X69039095Y84607144D01*
X69039095Y84607144D02*
X69062904Y84583334D01*
X69062904Y84583334D02*
X69086714Y84535715D01*
X69086714Y84535715D02*
X69086714Y84345239D01*
X69324809Y85607143D02*
X68824809Y85607143D01*
X68824809Y85607143D02*
X68824809Y85797619D01*
X68824809Y85797619D02*
X68848619Y85845238D01*
X68848619Y85845238D02*
X68872428Y85869048D01*
X68872428Y85869048D02*
X68920047Y85892857D01*
X68920047Y85892857D02*
X68991476Y85892857D01*
X68991476Y85892857D02*
X69039095Y85869048D01*
X69039095Y85869048D02*
X69062904Y85845238D01*
X69062904Y85845238D02*
X69086714Y85797619D01*
X69086714Y85797619D02*
X69086714Y85607143D01*
X68824809Y86059524D02*
X69324809Y86178572D01*
X69324809Y86178572D02*
X68967666Y86273810D01*
X68967666Y86273810D02*
X69324809Y86369048D01*
X69324809Y86369048D02*
X68824809Y86488095D01*
X69324809Y86678572D02*
X68824809Y86678572D01*
X68824809Y86678572D02*
X69181952Y86845239D01*
X69181952Y86845239D02*
X68824809Y87011905D01*
X68824809Y87011905D02*
X69324809Y87011905D01*
D10*
X6229523Y56053800D02*
X6343809Y56015705D01*
X6343809Y56015705D02*
X6534285Y56015705D01*
X6534285Y56015705D02*
X6610476Y56053800D01*
X6610476Y56053800D02*
X6648571Y56091896D01*
X6648571Y56091896D02*
X6686666Y56168086D01*
X6686666Y56168086D02*
X6686666Y56244277D01*
X6686666Y56244277D02*
X6648571Y56320467D01*
X6648571Y56320467D02*
X6610476Y56358562D01*
X6610476Y56358562D02*
X6534285Y56396658D01*
X6534285Y56396658D02*
X6381904Y56434753D01*
X6381904Y56434753D02*
X6305714Y56472848D01*
X6305714Y56472848D02*
X6267619Y56510943D01*
X6267619Y56510943D02*
X6229523Y56587134D01*
X6229523Y56587134D02*
X6229523Y56663324D01*
X6229523Y56663324D02*
X6267619Y56739515D01*
X6267619Y56739515D02*
X6305714Y56777610D01*
X6305714Y56777610D02*
X6381904Y56815705D01*
X6381904Y56815705D02*
X6572381Y56815705D01*
X6572381Y56815705D02*
X6686666Y56777610D01*
X7486667Y56091896D02*
X7448571Y56053800D01*
X7448571Y56053800D02*
X7334286Y56015705D01*
X7334286Y56015705D02*
X7258095Y56015705D01*
X7258095Y56015705D02*
X7143809Y56053800D01*
X7143809Y56053800D02*
X7067619Y56129991D01*
X7067619Y56129991D02*
X7029524Y56206181D01*
X7029524Y56206181D02*
X6991428Y56358562D01*
X6991428Y56358562D02*
X6991428Y56472848D01*
X6991428Y56472848D02*
X7029524Y56625229D01*
X7029524Y56625229D02*
X7067619Y56701420D01*
X7067619Y56701420D02*
X7143809Y56777610D01*
X7143809Y56777610D02*
X7258095Y56815705D01*
X7258095Y56815705D02*
X7334286Y56815705D01*
X7334286Y56815705D02*
X7448571Y56777610D01*
X7448571Y56777610D02*
X7486667Y56739515D01*
X8210476Y56015705D02*
X7829524Y56015705D01*
X7829524Y56015705D02*
X7829524Y56815705D01*
X27944009Y9892858D02*
X27944009Y10845239D01*
X28515438Y9702382D02*
X26515438Y10369048D01*
X26515438Y10369048D02*
X28515438Y11035715D01*
X28515438Y12845239D02*
X27563057Y12178572D01*
X28515438Y11702382D02*
X26515438Y11702382D01*
X26515438Y11702382D02*
X26515438Y12464287D01*
X26515438Y12464287D02*
X26610676Y12654763D01*
X26610676Y12654763D02*
X26705914Y12750001D01*
X26705914Y12750001D02*
X26896390Y12845239D01*
X26896390Y12845239D02*
X27182104Y12845239D01*
X27182104Y12845239D02*
X27372580Y12750001D01*
X27372580Y12750001D02*
X27467819Y12654763D01*
X27467819Y12654763D02*
X27563057Y12464287D01*
X27563057Y12464287D02*
X27563057Y11702382D01*
X28515438Y13702382D02*
X26515438Y13702382D01*
X26515438Y13702382D02*
X26515438Y14178572D01*
X26515438Y14178572D02*
X26610676Y14464287D01*
X26610676Y14464287D02*
X26801152Y14654763D01*
X26801152Y14654763D02*
X26991628Y14750001D01*
X26991628Y14750001D02*
X27372580Y14845239D01*
X27372580Y14845239D02*
X27658295Y14845239D01*
X27658295Y14845239D02*
X28039247Y14750001D01*
X28039247Y14750001D02*
X28229723Y14654763D01*
X28229723Y14654763D02*
X28420200Y14464287D01*
X28420200Y14464287D02*
X28515438Y14178572D01*
X28515438Y14178572D02*
X28515438Y13702382D01*
X26515438Y15702382D02*
X28134485Y15702382D01*
X28134485Y15702382D02*
X28324961Y15797620D01*
X28324961Y15797620D02*
X28420200Y15892858D01*
X28420200Y15892858D02*
X28515438Y16083334D01*
X28515438Y16083334D02*
X28515438Y16464287D01*
X28515438Y16464287D02*
X28420200Y16654763D01*
X28420200Y16654763D02*
X28324961Y16750001D01*
X28324961Y16750001D02*
X28134485Y16845239D01*
X28134485Y16845239D02*
X26515438Y16845239D01*
X28515438Y17797620D02*
X26515438Y17797620D01*
X28515438Y18750001D02*
X26515438Y18750001D01*
X26515438Y18750001D02*
X28515438Y19892858D01*
X28515438Y19892858D02*
X26515438Y19892858D01*
X26515438Y21226191D02*
X26515438Y21607144D01*
X26515438Y21607144D02*
X26610676Y21797620D01*
X26610676Y21797620D02*
X26801152Y21988096D01*
X26801152Y21988096D02*
X27182104Y22083334D01*
X27182104Y22083334D02*
X27848771Y22083334D01*
X27848771Y22083334D02*
X28229723Y21988096D01*
X28229723Y21988096D02*
X28420200Y21797620D01*
X28420200Y21797620D02*
X28515438Y21607144D01*
X28515438Y21607144D02*
X28515438Y21226191D01*
X28515438Y21226191D02*
X28420200Y21035715D01*
X28420200Y21035715D02*
X28229723Y20845239D01*
X28229723Y20845239D02*
X27848771Y20750001D01*
X27848771Y20750001D02*
X27182104Y20750001D01*
X27182104Y20750001D02*
X26801152Y20845239D01*
X26801152Y20845239D02*
X26610676Y21035715D01*
X26610676Y21035715D02*
X26515438Y21226191D01*
X28515438Y24464287D02*
X26515438Y24464287D01*
X26515438Y24464287D02*
X28515438Y25607144D01*
X28515438Y25607144D02*
X26515438Y25607144D01*
X27944009Y26464287D02*
X27944009Y27416668D01*
X28515438Y26273811D02*
X26515438Y26940477D01*
X26515438Y26940477D02*
X28515438Y27607144D01*
X28515438Y28273811D02*
X26515438Y28273811D01*
X26515438Y28273811D02*
X28515438Y29416668D01*
X28515438Y29416668D02*
X26515438Y29416668D01*
X26515438Y30750001D02*
X26515438Y31130954D01*
X26515438Y31130954D02*
X26610676Y31321430D01*
X26610676Y31321430D02*
X26801152Y31511906D01*
X26801152Y31511906D02*
X27182104Y31607144D01*
X27182104Y31607144D02*
X27848771Y31607144D01*
X27848771Y31607144D02*
X28229723Y31511906D01*
X28229723Y31511906D02*
X28420200Y31321430D01*
X28420200Y31321430D02*
X28515438Y31130954D01*
X28515438Y31130954D02*
X28515438Y30750001D01*
X28515438Y30750001D02*
X28420200Y30559525D01*
X28420200Y30559525D02*
X28229723Y30369049D01*
X28229723Y30369049D02*
X27848771Y30273811D01*
X27848771Y30273811D02*
X27182104Y30273811D01*
X27182104Y30273811D02*
X26801152Y30369049D01*
X26801152Y30369049D02*
X26610676Y30559525D01*
X26610676Y30559525D02*
X26515438Y30750001D01*
X6686666Y58565705D02*
X6229523Y58565705D01*
X6458095Y58565705D02*
X6458095Y59365705D01*
X6458095Y59365705D02*
X6381904Y59251420D01*
X6381904Y59251420D02*
X6305714Y59175229D01*
X6305714Y59175229D02*
X6229523Y59137134D01*
X6991428Y59289515D02*
X7029524Y59327610D01*
X7029524Y59327610D02*
X7105714Y59365705D01*
X7105714Y59365705D02*
X7296190Y59365705D01*
X7296190Y59365705D02*
X7372381Y59327610D01*
X7372381Y59327610D02*
X7410476Y59289515D01*
X7410476Y59289515D02*
X7448571Y59213324D01*
X7448571Y59213324D02*
X7448571Y59137134D01*
X7448571Y59137134D02*
X7410476Y59022848D01*
X7410476Y59022848D02*
X6953333Y58565705D01*
X6953333Y58565705D02*
X7448571Y58565705D01*
X7677143Y59365705D02*
X7943810Y58565705D01*
X7943810Y58565705D02*
X8210476Y59365705D01*
X60504819Y71251477D02*
X59504819Y71251477D01*
X59504819Y71251477D02*
X60219104Y71584810D01*
X60219104Y71584810D02*
X59504819Y71918143D01*
X59504819Y71918143D02*
X60504819Y71918143D01*
X59600057Y72346715D02*
X59552438Y72394334D01*
X59552438Y72394334D02*
X59504819Y72489572D01*
X59504819Y72489572D02*
X59504819Y72727667D01*
X59504819Y72727667D02*
X59552438Y72822905D01*
X59552438Y72822905D02*
X59600057Y72870524D01*
X59600057Y72870524D02*
X59695295Y72918143D01*
X59695295Y72918143D02*
X59790533Y72918143D01*
X59790533Y72918143D02*
X59933390Y72870524D01*
X59933390Y72870524D02*
X60504819Y72299096D01*
X60504819Y72299096D02*
X60504819Y72918143D01*
X69222866Y13149096D02*
X69222866Y13911000D01*
X69222866Y15911001D02*
X69222866Y16672905D01*
X69603819Y16291953D02*
X68841914Y16291953D01*
D12*
X29399757Y70378573D02*
X29328328Y70235715D01*
X29328328Y70235715D02*
X29328328Y70021430D01*
X29328328Y70021430D02*
X29399757Y69807144D01*
X29399757Y69807144D02*
X29542614Y69664287D01*
X29542614Y69664287D02*
X29685471Y69592858D01*
X29685471Y69592858D02*
X29971185Y69521430D01*
X29971185Y69521430D02*
X30185471Y69521430D01*
X30185471Y69521430D02*
X30471185Y69592858D01*
X30471185Y69592858D02*
X30614042Y69664287D01*
X30614042Y69664287D02*
X30756900Y69807144D01*
X30756900Y69807144D02*
X30828328Y70021430D01*
X30828328Y70021430D02*
X30828328Y70164287D01*
X30828328Y70164287D02*
X30756900Y70378573D01*
X30756900Y70378573D02*
X30685471Y70450001D01*
X30685471Y70450001D02*
X30185471Y70450001D01*
X30185471Y70450001D02*
X30185471Y70164287D01*
X29328328Y71307144D02*
X29685471Y71307144D01*
X29542614Y70950001D02*
X29685471Y71307144D01*
X29685471Y71307144D02*
X29542614Y71664287D01*
X29971185Y71092858D02*
X29685471Y71307144D01*
X29685471Y71307144D02*
X29971185Y71521430D01*
X29328328Y72450001D02*
X29685471Y72450001D01*
X29542614Y72092858D02*
X29685471Y72450001D01*
X29685471Y72450001D02*
X29542614Y72807144D01*
X29971185Y72235715D02*
X29685471Y72450001D01*
X29685471Y72450001D02*
X29971185Y72664287D01*
X29328328Y73592858D02*
X29685471Y73592858D01*
X29542614Y73235715D02*
X29685471Y73592858D01*
X29685471Y73592858D02*
X29542614Y73950001D01*
X29971185Y73378572D02*
X29685471Y73592858D01*
X29685471Y73592858D02*
X29971185Y73807144D01*
D10*
X16049714Y41994896D02*
X16525904Y41994896D01*
X15954476Y41709181D02*
X16287809Y42709181D01*
X16287809Y42709181D02*
X16621142Y41709181D01*
X17478285Y41709181D02*
X16906857Y41709181D01*
X17192571Y41709181D02*
X17192571Y42709181D01*
X17192571Y42709181D02*
X17097333Y42566324D01*
X17097333Y42566324D02*
X17002095Y42471086D01*
X17002095Y42471086D02*
X16906857Y42423467D01*
X26346095Y4785181D02*
X26346095Y3975658D01*
X26346095Y3975658D02*
X26393714Y3880420D01*
X26393714Y3880420D02*
X26441333Y3832800D01*
X26441333Y3832800D02*
X26536571Y3785181D01*
X26536571Y3785181D02*
X26727047Y3785181D01*
X26727047Y3785181D02*
X26822285Y3832800D01*
X26822285Y3832800D02*
X26869904Y3880420D01*
X26869904Y3880420D02*
X26917523Y3975658D01*
X26917523Y3975658D02*
X26917523Y4785181D01*
X27346095Y3832800D02*
X27488952Y3785181D01*
X27488952Y3785181D02*
X27727047Y3785181D01*
X27727047Y3785181D02*
X27822285Y3832800D01*
X27822285Y3832800D02*
X27869904Y3880420D01*
X27869904Y3880420D02*
X27917523Y3975658D01*
X27917523Y3975658D02*
X27917523Y4070896D01*
X27917523Y4070896D02*
X27869904Y4166134D01*
X27869904Y4166134D02*
X27822285Y4213753D01*
X27822285Y4213753D02*
X27727047Y4261372D01*
X27727047Y4261372D02*
X27536571Y4308991D01*
X27536571Y4308991D02*
X27441333Y4356610D01*
X27441333Y4356610D02*
X27393714Y4404229D01*
X27393714Y4404229D02*
X27346095Y4499467D01*
X27346095Y4499467D02*
X27346095Y4594705D01*
X27346095Y4594705D02*
X27393714Y4689943D01*
X27393714Y4689943D02*
X27441333Y4737562D01*
X27441333Y4737562D02*
X27536571Y4785181D01*
X27536571Y4785181D02*
X27774666Y4785181D01*
X27774666Y4785181D02*
X27917523Y4737562D01*
X28679428Y4308991D02*
X28822285Y4261372D01*
X28822285Y4261372D02*
X28869904Y4213753D01*
X28869904Y4213753D02*
X28917523Y4118515D01*
X28917523Y4118515D02*
X28917523Y3975658D01*
X28917523Y3975658D02*
X28869904Y3880420D01*
X28869904Y3880420D02*
X28822285Y3832800D01*
X28822285Y3832800D02*
X28727047Y3785181D01*
X28727047Y3785181D02*
X28346095Y3785181D01*
X28346095Y3785181D02*
X28346095Y4785181D01*
X28346095Y4785181D02*
X28679428Y4785181D01*
X28679428Y4785181D02*
X28774666Y4737562D01*
X28774666Y4737562D02*
X28822285Y4689943D01*
X28822285Y4689943D02*
X28869904Y4594705D01*
X28869904Y4594705D02*
X28869904Y4499467D01*
X28869904Y4499467D02*
X28822285Y4404229D01*
X28822285Y4404229D02*
X28774666Y4356610D01*
X28774666Y4356610D02*
X28679428Y4308991D01*
X28679428Y4308991D02*
X28346095Y4308991D01*
X666666Y59445181D02*
X666666Y58730896D01*
X666666Y58730896D02*
X619047Y58588039D01*
X619047Y58588039D02*
X523809Y58492800D01*
X523809Y58492800D02*
X380952Y58445181D01*
X380952Y58445181D02*
X285714Y58445181D01*
X1095238Y59349943D02*
X1142857Y59397562D01*
X1142857Y59397562D02*
X1238095Y59445181D01*
X1238095Y59445181D02*
X1476190Y59445181D01*
X1476190Y59445181D02*
X1571428Y59397562D01*
X1571428Y59397562D02*
X1619047Y59349943D01*
X1619047Y59349943D02*
X1666666Y59254705D01*
X1666666Y59254705D02*
X1666666Y59159467D01*
X1666666Y59159467D02*
X1619047Y59016610D01*
X1619047Y59016610D02*
X1047619Y58445181D01*
X1047619Y58445181D02*
X1666666Y58445181D01*
D13*
X5495238Y10942581D02*
X5495238Y11942581D01*
X5495238Y11466391D02*
X6066666Y11466391D01*
X6066666Y10942581D02*
X6066666Y11942581D01*
X6923809Y10990200D02*
X6828571Y10942581D01*
X6828571Y10942581D02*
X6638095Y10942581D01*
X6638095Y10942581D02*
X6542857Y10990200D01*
X6542857Y10990200D02*
X6495238Y11085439D01*
X6495238Y11085439D02*
X6495238Y11466391D01*
X6495238Y11466391D02*
X6542857Y11561629D01*
X6542857Y11561629D02*
X6638095Y11609248D01*
X6638095Y11609248D02*
X6828571Y11609248D01*
X6828571Y11609248D02*
X6923809Y11561629D01*
X6923809Y11561629D02*
X6971428Y11466391D01*
X6971428Y11466391D02*
X6971428Y11371153D01*
X6971428Y11371153D02*
X6495238Y11275915D01*
X7828571Y10942581D02*
X7828571Y11466391D01*
X7828571Y11466391D02*
X7780952Y11561629D01*
X7780952Y11561629D02*
X7685714Y11609248D01*
X7685714Y11609248D02*
X7495238Y11609248D01*
X7495238Y11609248D02*
X7400000Y11561629D01*
X7828571Y10990200D02*
X7733333Y10942581D01*
X7733333Y10942581D02*
X7495238Y10942581D01*
X7495238Y10942581D02*
X7400000Y10990200D01*
X7400000Y10990200D02*
X7352381Y11085439D01*
X7352381Y11085439D02*
X7352381Y11180677D01*
X7352381Y11180677D02*
X7400000Y11275915D01*
X7400000Y11275915D02*
X7495238Y11323534D01*
X7495238Y11323534D02*
X7733333Y11323534D01*
X7733333Y11323534D02*
X7828571Y11371153D01*
X8161905Y11609248D02*
X8542857Y11609248D01*
X8304762Y11942581D02*
X8304762Y11085439D01*
X8304762Y11085439D02*
X8352381Y10990200D01*
X8352381Y10990200D02*
X8447619Y10942581D01*
X8447619Y10942581D02*
X8542857Y10942581D01*
X9590477Y10990200D02*
X9733334Y10942581D01*
X9733334Y10942581D02*
X9971429Y10942581D01*
X9971429Y10942581D02*
X10066667Y10990200D01*
X10066667Y10990200D02*
X10114286Y11037820D01*
X10114286Y11037820D02*
X10161905Y11133058D01*
X10161905Y11133058D02*
X10161905Y11228296D01*
X10161905Y11228296D02*
X10114286Y11323534D01*
X10114286Y11323534D02*
X10066667Y11371153D01*
X10066667Y11371153D02*
X9971429Y11418772D01*
X9971429Y11418772D02*
X9780953Y11466391D01*
X9780953Y11466391D02*
X9685715Y11514010D01*
X9685715Y11514010D02*
X9638096Y11561629D01*
X9638096Y11561629D02*
X9590477Y11656867D01*
X9590477Y11656867D02*
X9590477Y11752105D01*
X9590477Y11752105D02*
X9638096Y11847343D01*
X9638096Y11847343D02*
X9685715Y11894962D01*
X9685715Y11894962D02*
X9780953Y11942581D01*
X9780953Y11942581D02*
X10019048Y11942581D01*
X10019048Y11942581D02*
X10161905Y11894962D01*
X10590477Y10942581D02*
X10590477Y11609248D01*
X10590477Y11942581D02*
X10542858Y11894962D01*
X10542858Y11894962D02*
X10590477Y11847343D01*
X10590477Y11847343D02*
X10638096Y11894962D01*
X10638096Y11894962D02*
X10590477Y11942581D01*
X10590477Y11942581D02*
X10590477Y11847343D01*
X11066667Y11609248D02*
X11066667Y10942581D01*
X11066667Y11514010D02*
X11114286Y11561629D01*
X11114286Y11561629D02*
X11209524Y11609248D01*
X11209524Y11609248D02*
X11352381Y11609248D01*
X11352381Y11609248D02*
X11447619Y11561629D01*
X11447619Y11561629D02*
X11495238Y11466391D01*
X11495238Y11466391D02*
X11495238Y10942581D01*
X11971429Y10942581D02*
X11971429Y11942581D01*
X12066667Y11323534D02*
X12352381Y10942581D01*
X12352381Y11609248D02*
X11971429Y11228296D01*
D10*
X65904819Y47516667D02*
X66619104Y47516667D01*
X66619104Y47516667D02*
X66761961Y47469048D01*
X66761961Y47469048D02*
X66857200Y47373810D01*
X66857200Y47373810D02*
X66904819Y47230953D01*
X66904819Y47230953D02*
X66904819Y47135715D01*
X65904819Y48421429D02*
X65904819Y48230953D01*
X65904819Y48230953D02*
X65952438Y48135715D01*
X65952438Y48135715D02*
X66000057Y48088096D01*
X66000057Y48088096D02*
X66142914Y47992858D01*
X66142914Y47992858D02*
X66333390Y47945239D01*
X66333390Y47945239D02*
X66714342Y47945239D01*
X66714342Y47945239D02*
X66809580Y47992858D01*
X66809580Y47992858D02*
X66857200Y48040477D01*
X66857200Y48040477D02*
X66904819Y48135715D01*
X66904819Y48135715D02*
X66904819Y48326191D01*
X66904819Y48326191D02*
X66857200Y48421429D01*
X66857200Y48421429D02*
X66809580Y48469048D01*
X66809580Y48469048D02*
X66714342Y48516667D01*
X66714342Y48516667D02*
X66476247Y48516667D01*
X66476247Y48516667D02*
X66381009Y48469048D01*
X66381009Y48469048D02*
X66333390Y48421429D01*
X66333390Y48421429D02*
X66285771Y48326191D01*
X66285771Y48326191D02*
X66285771Y48135715D01*
X66285771Y48135715D02*
X66333390Y48040477D01*
X66333390Y48040477D02*
X66381009Y47992858D01*
X66381009Y47992858D02*
X66476247Y47945239D01*
X65904819Y71616667D02*
X66619104Y71616667D01*
X66619104Y71616667D02*
X66761961Y71569048D01*
X66761961Y71569048D02*
X66857200Y71473810D01*
X66857200Y71473810D02*
X66904819Y71330953D01*
X66904819Y71330953D02*
X66904819Y71235715D01*
X66238152Y72521429D02*
X66904819Y72521429D01*
X65857200Y72283334D02*
X66571485Y72045239D01*
X66571485Y72045239D02*
X66571485Y72664286D01*
X62366666Y32595181D02*
X62366666Y31880896D01*
X62366666Y31880896D02*
X62319047Y31738039D01*
X62319047Y31738039D02*
X62223809Y31642800D01*
X62223809Y31642800D02*
X62080952Y31595181D01*
X62080952Y31595181D02*
X61985714Y31595181D01*
X62890476Y31595181D02*
X63080952Y31595181D01*
X63080952Y31595181D02*
X63176190Y31642800D01*
X63176190Y31642800D02*
X63223809Y31690420D01*
X63223809Y31690420D02*
X63319047Y31833277D01*
X63319047Y31833277D02*
X63366666Y32023753D01*
X63366666Y32023753D02*
X63366666Y32404705D01*
X63366666Y32404705D02*
X63319047Y32499943D01*
X63319047Y32499943D02*
X63271428Y32547562D01*
X63271428Y32547562D02*
X63176190Y32595181D01*
X63176190Y32595181D02*
X62985714Y32595181D01*
X62985714Y32595181D02*
X62890476Y32547562D01*
X62890476Y32547562D02*
X62842857Y32499943D01*
X62842857Y32499943D02*
X62795238Y32404705D01*
X62795238Y32404705D02*
X62795238Y32166610D01*
X62795238Y32166610D02*
X62842857Y32071372D01*
X62842857Y32071372D02*
X62890476Y32023753D01*
X62890476Y32023753D02*
X62985714Y31976134D01*
X62985714Y31976134D02*
X63176190Y31976134D01*
X63176190Y31976134D02*
X63271428Y32023753D01*
X63271428Y32023753D02*
X63319047Y32071372D01*
X63319047Y32071372D02*
X63366666Y32166610D01*
X60104819Y19690477D02*
X60819104Y19690477D01*
X60819104Y19690477D02*
X60961961Y19642858D01*
X60961961Y19642858D02*
X61057200Y19547620D01*
X61057200Y19547620D02*
X61104819Y19404763D01*
X61104819Y19404763D02*
X61104819Y19309525D01*
X61104819Y20690477D02*
X61104819Y20119049D01*
X61104819Y20404763D02*
X60104819Y20404763D01*
X60104819Y20404763D02*
X60247676Y20309525D01*
X60247676Y20309525D02*
X60342914Y20214287D01*
X60342914Y20214287D02*
X60390533Y20119049D01*
X60104819Y21309525D02*
X60104819Y21404763D01*
X60104819Y21404763D02*
X60152438Y21500001D01*
X60152438Y21500001D02*
X60200057Y21547620D01*
X60200057Y21547620D02*
X60295295Y21595239D01*
X60295295Y21595239D02*
X60485771Y21642858D01*
X60485771Y21642858D02*
X60723866Y21642858D01*
X60723866Y21642858D02*
X60914342Y21595239D01*
X60914342Y21595239D02*
X61009580Y21547620D01*
X61009580Y21547620D02*
X61057200Y21500001D01*
X61057200Y21500001D02*
X61104819Y21404763D01*
X61104819Y21404763D02*
X61104819Y21309525D01*
X61104819Y21309525D02*
X61057200Y21214287D01*
X61057200Y21214287D02*
X61009580Y21166668D01*
X61009580Y21166668D02*
X60914342Y21119049D01*
X60914342Y21119049D02*
X60723866Y21071430D01*
X60723866Y21071430D02*
X60485771Y21071430D01*
X60485771Y21071430D02*
X60295295Y21119049D01*
X60295295Y21119049D02*
X60200057Y21166668D01*
X60200057Y21166668D02*
X60152438Y21214287D01*
X60152438Y21214287D02*
X60104819Y21309525D01*
X65854819Y14616667D02*
X66569104Y14616667D01*
X66569104Y14616667D02*
X66711961Y14569048D01*
X66711961Y14569048D02*
X66807200Y14473810D01*
X66807200Y14473810D02*
X66854819Y14330953D01*
X66854819Y14330953D02*
X66854819Y14235715D01*
X66283390Y15235715D02*
X66235771Y15140477D01*
X66235771Y15140477D02*
X66188152Y15092858D01*
X66188152Y15092858D02*
X66092914Y15045239D01*
X66092914Y15045239D02*
X66045295Y15045239D01*
X66045295Y15045239D02*
X65950057Y15092858D01*
X65950057Y15092858D02*
X65902438Y15140477D01*
X65902438Y15140477D02*
X65854819Y15235715D01*
X65854819Y15235715D02*
X65854819Y15426191D01*
X65854819Y15426191D02*
X65902438Y15521429D01*
X65902438Y15521429D02*
X65950057Y15569048D01*
X65950057Y15569048D02*
X66045295Y15616667D01*
X66045295Y15616667D02*
X66092914Y15616667D01*
X66092914Y15616667D02*
X66188152Y15569048D01*
X66188152Y15569048D02*
X66235771Y15521429D01*
X66235771Y15521429D02*
X66283390Y15426191D01*
X66283390Y15426191D02*
X66283390Y15235715D01*
X66283390Y15235715D02*
X66331009Y15140477D01*
X66331009Y15140477D02*
X66378628Y15092858D01*
X66378628Y15092858D02*
X66473866Y15045239D01*
X66473866Y15045239D02*
X66664342Y15045239D01*
X66664342Y15045239D02*
X66759580Y15092858D01*
X66759580Y15092858D02*
X66807200Y15140477D01*
X66807200Y15140477D02*
X66854819Y15235715D01*
X66854819Y15235715D02*
X66854819Y15426191D01*
X66854819Y15426191D02*
X66807200Y15521429D01*
X66807200Y15521429D02*
X66759580Y15569048D01*
X66759580Y15569048D02*
X66664342Y15616667D01*
X66664342Y15616667D02*
X66473866Y15616667D01*
X66473866Y15616667D02*
X66378628Y15569048D01*
X66378628Y15569048D02*
X66331009Y15521429D01*
X66331009Y15521429D02*
X66283390Y15426191D01*
X65804819Y35466667D02*
X66519104Y35466667D01*
X66519104Y35466667D02*
X66661961Y35419048D01*
X66661961Y35419048D02*
X66757200Y35323810D01*
X66757200Y35323810D02*
X66804819Y35180953D01*
X66804819Y35180953D02*
X66804819Y35085715D01*
X65804819Y35847620D02*
X65804819Y36514286D01*
X65804819Y36514286D02*
X66804819Y36085715D01*
X49961905Y3197412D02*
X49961905Y4197412D01*
X49961905Y4197412D02*
X50200000Y4197412D01*
X50200000Y4197412D02*
X50342857Y4149793D01*
X50342857Y4149793D02*
X50438095Y4054555D01*
X50438095Y4054555D02*
X50485714Y3959317D01*
X50485714Y3959317D02*
X50533333Y3768841D01*
X50533333Y3768841D02*
X50533333Y3625984D01*
X50533333Y3625984D02*
X50485714Y3435508D01*
X50485714Y3435508D02*
X50438095Y3340270D01*
X50438095Y3340270D02*
X50342857Y3245031D01*
X50342857Y3245031D02*
X50200000Y3197412D01*
X50200000Y3197412D02*
X49961905Y3197412D01*
X51485714Y3197412D02*
X50914286Y3197412D01*
X51200000Y3197412D02*
X51200000Y4197412D01*
X51200000Y4197412D02*
X51104762Y4054555D01*
X51104762Y4054555D02*
X51009524Y3959317D01*
X51009524Y3959317D02*
X50914286Y3911698D01*
X65904819Y59566667D02*
X66619104Y59566667D01*
X66619104Y59566667D02*
X66761961Y59519048D01*
X66761961Y59519048D02*
X66857200Y59423810D01*
X66857200Y59423810D02*
X66904819Y59280953D01*
X66904819Y59280953D02*
X66904819Y59185715D01*
X65904819Y60519048D02*
X65904819Y60042858D01*
X65904819Y60042858D02*
X66381009Y59995239D01*
X66381009Y59995239D02*
X66333390Y60042858D01*
X66333390Y60042858D02*
X66285771Y60138096D01*
X66285771Y60138096D02*
X66285771Y60376191D01*
X66285771Y60376191D02*
X66333390Y60471429D01*
X66333390Y60471429D02*
X66381009Y60519048D01*
X66381009Y60519048D02*
X66476247Y60566667D01*
X66476247Y60566667D02*
X66714342Y60566667D01*
X66714342Y60566667D02*
X66809580Y60519048D01*
X66809580Y60519048D02*
X66857200Y60471429D01*
X66857200Y60471429D02*
X66904819Y60376191D01*
X66904819Y60376191D02*
X66904819Y60138096D01*
X66904819Y60138096D02*
X66857200Y60042858D01*
X66857200Y60042858D02*
X66809580Y59995239D01*
X65904819Y83566667D02*
X66619104Y83566667D01*
X66619104Y83566667D02*
X66761961Y83519048D01*
X66761961Y83519048D02*
X66857200Y83423810D01*
X66857200Y83423810D02*
X66904819Y83280953D01*
X66904819Y83280953D02*
X66904819Y83185715D01*
X65904819Y83947620D02*
X65904819Y84566667D01*
X65904819Y84566667D02*
X66285771Y84233334D01*
X66285771Y84233334D02*
X66285771Y84376191D01*
X66285771Y84376191D02*
X66333390Y84471429D01*
X66333390Y84471429D02*
X66381009Y84519048D01*
X66381009Y84519048D02*
X66476247Y84566667D01*
X66476247Y84566667D02*
X66714342Y84566667D01*
X66714342Y84566667D02*
X66809580Y84519048D01*
X66809580Y84519048D02*
X66857200Y84471429D01*
X66857200Y84471429D02*
X66904819Y84376191D01*
X66904819Y84376191D02*
X66904819Y84090477D01*
X66904819Y84090477D02*
X66857200Y83995239D01*
X66857200Y83995239D02*
X66809580Y83947620D01*
D14*
%TO.C,G\u002A\u002A\u002A*%
G36*
X44664795Y83500483D02*
G01*
X45160583Y83445792D01*
X45306975Y83420884D01*
X45835845Y83297822D01*
X46366294Y83133971D01*
X46853188Y82945366D01*
X47251390Y82748041D01*
X47323639Y82704404D01*
X47623422Y82493225D01*
X47971857Y82213183D01*
X48340383Y81890886D01*
X48700437Y81552941D01*
X49023459Y81225956D01*
X49280884Y80936538D01*
X49418451Y80752937D01*
X49672226Y80292489D01*
X49895850Y79751223D01*
X50080723Y79164512D01*
X50218248Y78567725D01*
X50299826Y77996235D01*
X50316859Y77485410D01*
X50285995Y77184091D01*
X50114872Y76477511D01*
X49863881Y75767319D01*
X49551985Y75098206D01*
X49198149Y74514863D01*
X49091859Y74370014D01*
X48667533Y73855069D01*
X48248495Y73432340D01*
X47796394Y73070496D01*
X47272875Y72738210D01*
X46756379Y72462285D01*
X45964466Y72143417D01*
X45130517Y71958377D01*
X44265585Y71906796D01*
X44168555Y71915734D01*
X43380722Y71988303D01*
X42486981Y72202529D01*
X41595414Y72549104D01*
X41403784Y72641514D01*
X40718223Y73047938D01*
X40124745Y73541721D01*
X39609998Y74137078D01*
X39160627Y74848225D01*
X38960551Y75242640D01*
X38681245Y75899350D01*
X38499008Y76499375D01*
X38404829Y77083880D01*
X38391781Y77610082D01*
X39769278Y77610082D01*
X39789294Y77438210D01*
X39904514Y77229131D01*
X40112405Y77045082D01*
X40362419Y76928877D01*
X40401435Y76919742D01*
X40521332Y76879491D01*
X40574290Y76793119D01*
X40584436Y76615347D01*
X40583748Y76577623D01*
X40599970Y76391060D01*
X40663125Y76165391D01*
X40783177Y75871928D01*
X40951136Y75520040D01*
X41104491Y75205323D01*
X41236084Y74924205D01*
X41330777Y74709724D01*
X41371523Y74602481D01*
X41500041Y74388857D01*
X41732279Y74266437D01*
X42055472Y74241229D01*
X42125198Y74247817D01*
X42381605Y74260280D01*
X42528589Y74219689D01*
X42559128Y74192183D01*
X42663324Y74117505D01*
X42860758Y74013347D01*
X43109787Y73901567D01*
X43123837Y73895763D01*
X43399537Y73762725D01*
X43643503Y73610877D01*
X43794891Y73481508D01*
X43974671Y73335510D01*
X44168555Y73311183D01*
X44396190Y73410581D01*
X44598535Y73565527D01*
X44912211Y73750939D01*
X45265703Y73854000D01*
X45569700Y73933429D01*
X45914529Y74052274D01*
X46159853Y74155271D01*
X46415184Y74268471D01*
X46587738Y74322164D01*
X46722018Y74324866D01*
X46854136Y74288153D01*
X47142370Y74231239D01*
X47362747Y74299777D01*
X47527126Y74498911D01*
X47573599Y74600354D01*
X47647452Y74830028D01*
X47651385Y75025316D01*
X47610450Y75207038D01*
X47564224Y75405896D01*
X47575746Y75529365D01*
X47654643Y75638113D01*
X47683518Y75667609D01*
X47840116Y75874262D01*
X47992129Y76155845D01*
X48114626Y76456537D01*
X48182673Y76720516D01*
X48189068Y76799523D01*
X48211456Y76966936D01*
X48305285Y77047726D01*
X48400988Y77074697D01*
X48679590Y77194552D01*
X48873679Y77393094D01*
X48973108Y77637975D01*
X48967729Y77896850D01*
X48847397Y78137370D01*
X48761509Y78223984D01*
X48481633Y78381162D01*
X48291622Y78410796D01*
X48132178Y78418115D01*
X48070248Y78467977D01*
X48074770Y78602233D01*
X48087687Y78685567D01*
X48096795Y78881710D01*
X48051996Y79096267D01*
X47942411Y79376940D01*
X47917112Y79433435D01*
X47800384Y79673901D01*
X47695583Y79860393D01*
X47624289Y79954728D01*
X47621349Y79956747D01*
X47574614Y80067363D01*
X47576498Y80306787D01*
X47584903Y80388173D01*
X47593462Y80723845D01*
X47518590Y80967695D01*
X47347974Y81153481D01*
X47291214Y81193309D01*
X47139831Y81262542D01*
X46966214Y81259811D01*
X46837035Y81229924D01*
X46654312Y81194876D01*
X46481768Y81205794D01*
X46263512Y81270000D01*
X46121549Y81323681D01*
X45811438Y81434824D01*
X45480922Y81537682D01*
X45297443Y81586490D01*
X45020239Y81680379D01*
X44757662Y81813786D01*
X44655576Y81885220D01*
X44369542Y82052085D01*
X44095101Y82078661D01*
X43840691Y81964566D01*
X43792017Y81923985D01*
X43621898Y81812724D01*
X43351072Y81682007D01*
X43018982Y81546808D01*
X42665071Y81422102D01*
X42328784Y81322863D01*
X42056307Y81265035D01*
X41718481Y81154347D01*
X41460244Y80945204D01*
X41306810Y80659955D01*
X41288742Y80584585D01*
X41220587Y80371799D01*
X41101649Y80119902D01*
X41032760Y80001912D01*
X40822308Y79592535D01*
X40676161Y79149738D01*
X40613963Y78735101D01*
X40613068Y78686335D01*
X40600026Y78503265D01*
X40547065Y78424577D01*
X40465167Y78410796D01*
X40296272Y78378042D01*
X40107023Y78302075D01*
X39932553Y78139932D01*
X39813413Y77891437D01*
X39769278Y77610082D01*
X38391781Y77610082D01*
X38389699Y77694031D01*
X38395452Y77824366D01*
X38500910Y78667389D01*
X38717639Y79488011D01*
X39034659Y80271683D01*
X39440993Y81003854D01*
X39925662Y81669972D01*
X40477687Y82255489D01*
X41086091Y82745852D01*
X41739894Y83126512D01*
X42428119Y83382918D01*
X42625204Y83430402D01*
X43045611Y83491597D01*
X43558331Y83523559D01*
X44114384Y83526463D01*
X44664795Y83500483D01*
G37*
G36*
X45085077Y57247128D02*
G01*
X45912460Y57080180D01*
X46690090Y56795277D01*
X46837099Y56725941D01*
X47595071Y56279826D01*
X48286012Y55722856D01*
X48893840Y55073963D01*
X49402472Y54352081D01*
X49795826Y53576140D01*
X49994585Y53008821D01*
X50062109Y52702689D01*
X50118807Y52314044D01*
X50161592Y51884921D01*
X50187376Y51457354D01*
X50193071Y51073381D01*
X50175591Y50775036D01*
X50164045Y50701705D01*
X50040951Y50210546D01*
X49862407Y49664817D01*
X49651229Y49131202D01*
X49552751Y48915129D01*
X49395212Y48612890D01*
X49219620Y48340072D01*
X48998403Y48059389D01*
X48703991Y47733555D01*
X48592318Y47616266D01*
X47984855Y47043943D01*
X47364753Y46588946D01*
X46693681Y46226587D01*
X46025000Y45962851D01*
X45155248Y45727739D01*
X44310618Y45628359D01*
X44231958Y45631750D01*
X43469211Y45664631D01*
X42609131Y45836476D01*
X42236648Y45949198D01*
X41445691Y46285278D01*
X40723138Y46741435D01*
X40078219Y47306117D01*
X39520162Y47967774D01*
X39058197Y48714854D01*
X38701552Y49535806D01*
X38459457Y50419077D01*
X38402393Y50748249D01*
X38338053Y51477444D01*
X39743749Y51477444D01*
X39790892Y51221036D01*
X39938963Y50985942D01*
X40192576Y50800729D01*
X40250745Y50774497D01*
X40373716Y50711622D01*
X40453551Y50623978D01*
X40506817Y50476563D01*
X40550078Y50234375D01*
X40568212Y50103714D01*
X40617145Y49932232D01*
X40722455Y49672316D01*
X40868222Y49360434D01*
X41023881Y49059862D01*
X41280621Y48620139D01*
X41509694Y48304388D01*
X41725478Y48098523D01*
X41942351Y47988458D01*
X42146933Y47959659D01*
X42342110Y47930240D01*
X42613433Y47851977D01*
X42924682Y47739863D01*
X43239637Y47608890D01*
X43522077Y47474051D01*
X43735782Y47350339D01*
X43841101Y47258402D01*
X44007013Y47119644D01*
X44231958Y47101154D01*
X44499506Y47200184D01*
X44793228Y47413984D01*
X44798296Y47418544D01*
X44991920Y47540015D01*
X45231599Y47625558D01*
X45267228Y47632839D01*
X45497308Y47690837D01*
X45782027Y47785260D01*
X45969048Y47858242D01*
X46213854Y47953583D01*
X46389182Y47992212D01*
X46554987Y47981254D01*
X46705553Y47945742D01*
X46915232Y47898853D01*
X47044992Y47905309D01*
X47151023Y47970468D01*
X47173603Y47990361D01*
X47354401Y48244642D01*
X47433046Y48562146D01*
X47403461Y48868059D01*
X47365026Y49052605D01*
X47392972Y49165465D01*
X47497278Y49265922D01*
X47641411Y49435600D01*
X47789827Y49701915D01*
X47921607Y50019406D01*
X48015829Y50342609D01*
X48033005Y50430113D01*
X48077709Y50616726D01*
X48158940Y50721301D01*
X48322208Y50792187D01*
X48394644Y50814305D01*
X48609639Y50900029D01*
X48773377Y51004095D01*
X48806592Y51038549D01*
X48883549Y51231920D01*
X48905241Y51490457D01*
X48871884Y51746100D01*
X48803846Y51905483D01*
X48640950Y52031340D01*
X48357367Y52105549D01*
X48342445Y52107658D01*
X47988563Y52156329D01*
X48024728Y52425962D01*
X48009844Y52703662D01*
X47916907Y53027020D01*
X47768266Y53338026D01*
X47586268Y53578667D01*
X47577386Y53587162D01*
X47409617Y53744773D01*
X47549812Y54061708D01*
X47631188Y54263897D01*
X47650675Y54398698D01*
X47611500Y54527514D01*
X47577873Y54595486D01*
X47431393Y54784089D01*
X47241475Y54928302D01*
X47078720Y54999345D01*
X46952628Y54996749D01*
X46784128Y54918750D01*
X46782854Y54918064D01*
X46619740Y54840029D01*
X46507717Y54837519D01*
X46373140Y54913468D01*
X46340868Y54935677D01*
X45970927Y55136444D01*
X45526266Y55292195D01*
X45240162Y55355207D01*
X44950822Y55449296D01*
X44716214Y55644930D01*
X44709534Y55652487D01*
X44480710Y55842686D01*
X44242558Y55891729D01*
X43978961Y55801551D01*
X43896307Y55750208D01*
X43732718Y55653125D01*
X43482180Y55519509D01*
X43189055Y55372700D01*
X43072401Y55316732D01*
X42745848Y55170876D01*
X42510848Y55089664D01*
X42335079Y55063695D01*
X42233298Y55072719D01*
X41972593Y55059369D01*
X41707027Y54946661D01*
X41474831Y54763790D01*
X41314237Y54539955D01*
X41262500Y54331309D01*
X41230677Y54210347D01*
X41145236Y53998091D01*
X41021222Y53730183D01*
X40942059Y53572096D01*
X40721491Y53106460D01*
X40591685Y52744012D01*
X40553322Y52487228D01*
X40604026Y52341542D01*
X40680299Y52225762D01*
X40623225Y52161317D01*
X40472145Y52144887D01*
X40161731Y52088888D01*
X39933783Y51939937D01*
X39792918Y51726600D01*
X39743749Y51477444D01*
X38338053Y51477444D01*
X38335777Y51503239D01*
X38372235Y52212190D01*
X38517770Y52904297D01*
X38778381Y53608757D01*
X39134412Y54309659D01*
X39656528Y55117311D01*
X40237181Y55793799D01*
X40880823Y56341762D01*
X41591907Y56763835D01*
X42374886Y57062656D01*
X43234211Y57240863D01*
X44174336Y57301093D01*
X44184943Y57301109D01*
X45085077Y57247128D01*
G37*
G36*
X43119892Y65982982D02*
G01*
X43544299Y65891916D01*
X44353089Y65635624D01*
X45063589Y65294894D01*
X45703163Y64856276D01*
X45781645Y64792098D01*
X46428244Y64177365D01*
X46939355Y63519612D01*
X47320002Y62808736D01*
X47575213Y62034633D01*
X47710011Y61187200D01*
X47729485Y60876137D01*
X47741331Y60499189D01*
X47738178Y60222244D01*
X47715128Y60001340D01*
X47667285Y59792516D01*
X47589752Y59551810D01*
X47578302Y59518927D01*
X47436064Y59146708D01*
X47269960Y58765255D01*
X47099670Y58416055D01*
X46944873Y58140593D01*
X46876560Y58039635D01*
X46785941Y57955390D01*
X46668318Y57956960D01*
X46564048Y57993142D01*
X46382363Y58048643D01*
X46117304Y58111443D01*
X45844662Y58164577D01*
X45546795Y58226903D01*
X45376942Y58304026D01*
X45319222Y58421763D01*
X45357752Y58605932D01*
X45445170Y58813989D01*
X45594759Y59150146D01*
X45694003Y59396613D01*
X45757236Y59592713D01*
X45798790Y59777771D01*
X45801139Y59790671D01*
X45847917Y59956666D01*
X45941136Y60043967D01*
X46129043Y60097144D01*
X46133962Y60098139D01*
X46428927Y60212887D01*
X46608930Y60414360D01*
X46672726Y60701118D01*
X46672827Y60721773D01*
X46616279Y61021553D01*
X46448423Y61231165D01*
X46165598Y61354720D01*
X46096211Y61369233D01*
X45888956Y61425496D01*
X45794477Y61494235D01*
X45792021Y61517322D01*
X45784243Y61702100D01*
X45715146Y61953723D01*
X45603666Y62219088D01*
X45468739Y62445094D01*
X45454567Y62463637D01*
X45331319Y62652465D01*
X45268349Y62854575D01*
X45245889Y63134097D01*
X45245711Y63141211D01*
X45211358Y63478197D01*
X45127232Y63684394D01*
X45113869Y63700444D01*
X44975839Y63809239D01*
X44819172Y63820564D01*
X44600857Y63736029D01*
X44570871Y63720760D01*
X44413318Y63650980D01*
X44309300Y63661546D01*
X44187915Y63759709D01*
X44187671Y63759938D01*
X43888300Y63958463D01*
X43485328Y64108087D01*
X43011676Y64206697D01*
X42500266Y64252178D01*
X41984022Y64242416D01*
X41495864Y64175296D01*
X41068716Y64048705D01*
X40903480Y63970850D01*
X40701939Y63861153D01*
X40437523Y63717593D01*
X40218421Y63598845D01*
X39941824Y63425205D01*
X39714604Y63219544D01*
X39514028Y62953044D01*
X39317362Y62596887D01*
X39160696Y62258020D01*
X39043195Y61975108D01*
X38985968Y61788191D01*
X38981830Y61665679D01*
X39010083Y61595708D01*
X39049459Y61496621D01*
X38983035Y61443295D01*
X38895248Y61420404D01*
X38701487Y61344416D01*
X38500018Y61219070D01*
X38488958Y61210402D01*
X38353826Y61077177D01*
X38293089Y60923961D01*
X38279924Y60711219D01*
X38308524Y60425062D01*
X38411721Y60238522D01*
X38615607Y60115291D01*
X38738276Y60073459D01*
X39011136Y59991708D01*
X39011136Y59568555D01*
X39026139Y59308964D01*
X39080581Y59061763D01*
X39188609Y58774760D01*
X39282756Y58566592D01*
X39414794Y58297654D01*
X39534083Y58076635D01*
X39621318Y57938508D01*
X39642734Y57914449D01*
X39795230Y57877034D01*
X40043413Y57911292D01*
X40297497Y57944395D01*
X40455255Y57895002D01*
X40546625Y57750514D01*
X40564173Y57692129D01*
X40554840Y57573079D01*
X40457392Y57423327D01*
X40265294Y57226681D01*
X40027959Y57026547D01*
X39829239Y56931873D01*
X39620410Y56933232D01*
X39352748Y57021196D01*
X39305338Y57040928D01*
X39034373Y57151121D01*
X38733534Y57267358D01*
X38637769Y57302877D01*
X38299991Y57483684D01*
X37921899Y57791672D01*
X37837275Y57872886D01*
X37592803Y58128753D01*
X37418809Y58359588D01*
X37278218Y58622451D01*
X37151814Y58927841D01*
X37055266Y59182439D01*
X36990698Y59380485D01*
X36953418Y59560414D01*
X36938732Y59760661D01*
X36941948Y60019661D01*
X36958372Y60375850D01*
X36963320Y60471597D01*
X37010322Y61150740D01*
X37080414Y61717429D01*
X37183117Y62202888D01*
X37327951Y62638342D01*
X37524435Y63055015D01*
X37782090Y63484131D01*
X37963074Y63750690D01*
X38538513Y64459514D01*
X39179387Y65042847D01*
X39878685Y65497997D01*
X40629396Y65822276D01*
X41424508Y66012993D01*
X42257010Y66067458D01*
X43119892Y65982982D01*
G37*
G36*
X42838764Y88965730D02*
G01*
X43624775Y88731955D01*
X44374183Y88371342D01*
X45073767Y87882710D01*
X45127753Y87837573D01*
X45500270Y87495613D01*
X45815987Y87139966D01*
X46107499Y86729412D01*
X46407399Y86222732D01*
X46413786Y86211189D01*
X46670515Y85701279D01*
X46842998Y85237169D01*
X46949256Y84762826D01*
X46992297Y84412192D01*
X47009116Y84156900D01*
X46998685Y84022419D01*
X46958580Y83987392D01*
X46944533Y83991305D01*
X46758298Y84059626D01*
X46481918Y84153857D01*
X46163461Y84258386D01*
X45850998Y84357598D01*
X45592597Y84435879D01*
X45477226Y84467928D01*
X45262047Y84545902D01*
X45095709Y84645059D01*
X45069116Y84670293D01*
X44981064Y84813061D01*
X44869441Y85054844D01*
X44749241Y85355585D01*
X44635458Y85675230D01*
X44543090Y85973722D01*
X44487129Y86211006D01*
X44483340Y86235060D01*
X44434459Y86440080D01*
X44365519Y86587757D01*
X44349721Y86605983D01*
X44245537Y86661977D01*
X44035543Y86745701D01*
X43752572Y86844810D01*
X43499432Y86925736D01*
X43142387Y87037055D01*
X42793004Y87149019D01*
X42500906Y87245586D01*
X42368526Y87291336D01*
X42119074Y87366251D01*
X41896225Y87389904D01*
X41626794Y87367930D01*
X41538696Y87355228D01*
X41036122Y87266507D01*
X40636293Y87164399D01*
X40297641Y87036681D01*
X40071875Y86923935D01*
X39808092Y86792004D01*
X39540202Y86677299D01*
X39422443Y86635310D01*
X39171538Y86527079D01*
X38922122Y86376529D01*
X38881250Y86345933D01*
X38705545Y86159985D01*
X38514370Y85882269D01*
X38328744Y85553561D01*
X38169687Y85214640D01*
X38058217Y84906284D01*
X38015354Y84669270D01*
X38015341Y84666040D01*
X37996988Y84478970D01*
X37914072Y84371561D01*
X37772215Y84300352D01*
X37571451Y84183350D01*
X37417078Y84038593D01*
X37411419Y84030771D01*
X37328573Y83824300D01*
X37294229Y83553786D01*
X37314979Y83293286D01*
X37338574Y83212608D01*
X37450400Y83080764D01*
X37647813Y82964381D01*
X37872831Y82893603D01*
X37969410Y82884659D01*
X38088920Y82872062D01*
X38110665Y82805767D01*
X38070215Y82680908D01*
X38026077Y82433130D01*
X38087042Y82168527D01*
X38260482Y81856242D01*
X38270926Y81840755D01*
X38458010Y81565071D01*
X38199415Y81189603D01*
X37966810Y80900286D01*
X37735895Y80729282D01*
X37472264Y80655176D01*
X37328840Y80647728D01*
X37063520Y80719384D01*
X36801394Y80932345D01*
X36545495Y81283597D01*
X36381800Y81589062D01*
X36135046Y82176632D01*
X35989445Y82727519D01*
X35933921Y83295770D01*
X35942662Y83731863D01*
X36063492Y84610991D01*
X36319572Y85440944D01*
X36708825Y86216927D01*
X37229176Y86934148D01*
X37422422Y87149810D01*
X38094447Y87770860D01*
X38822421Y88273333D01*
X39593122Y88656048D01*
X40393329Y88917825D01*
X41209819Y89057485D01*
X42029371Y89073846D01*
X42838764Y88965730D01*
G37*
G36*
X42413628Y63031242D02*
G01*
X42443653Y63029993D01*
X42795030Y63003946D01*
X43070099Y62950066D01*
X43336412Y62852042D01*
X43501144Y62774626D01*
X43949263Y62479203D01*
X44311928Y62090071D01*
X44580541Y61631789D01*
X44746508Y61128917D01*
X44801234Y60606013D01*
X44736123Y60087639D01*
X44584814Y59678224D01*
X44273024Y59176358D01*
X43901524Y58803089D01*
X43464792Y58553257D01*
X43328994Y58504379D01*
X42895834Y58375608D01*
X42486009Y58270875D01*
X42211023Y58213446D01*
X42127575Y58196019D01*
X41848586Y58156881D01*
X41677097Y58159301D01*
X41674405Y58159951D01*
X41532571Y58222308D01*
X41322581Y58344997D01*
X41101196Y58493597D01*
X40735065Y58834355D01*
X40447106Y59280069D01*
X40231965Y59840245D01*
X40144822Y60190625D01*
X40071664Y60584428D01*
X40056649Y60754280D01*
X41402418Y60754280D01*
X41432187Y60433821D01*
X41569987Y60137824D01*
X41609473Y60086744D01*
X41752336Y59939302D01*
X41902821Y59859214D01*
X42119994Y59819395D01*
X42211023Y59810916D01*
X42617759Y59826909D01*
X42936878Y59953275D01*
X43178962Y60194629D01*
X43213717Y60248248D01*
X43338379Y60574917D01*
X43319187Y60904528D01*
X43213971Y61142813D01*
X42968326Y61424686D01*
X42658599Y61580728D01*
X42296898Y61607676D01*
X41895332Y61502266D01*
X41889443Y61499818D01*
X41638230Y61323540D01*
X41473493Y61062941D01*
X41402418Y60754280D01*
X40056649Y60754280D01*
X40044776Y60888591D01*
X40065523Y61150625D01*
X40135267Y61418043D01*
X40183992Y61555451D01*
X40435034Y62031483D01*
X40797052Y62447161D01*
X41239419Y62769993D01*
X41410031Y62856146D01*
X41658933Y62958906D01*
X41869889Y63015736D01*
X42101816Y63036545D01*
X42413628Y63031242D01*
G37*
G36*
X42005641Y85964689D02*
G01*
X42469995Y85859302D01*
X42877351Y85649741D01*
X42928001Y85614178D01*
X43158150Y85413732D01*
X43338919Y85192954D01*
X43456976Y84978527D01*
X43498989Y84797132D01*
X43451624Y84675452D01*
X43409233Y84651073D01*
X43016709Y84512156D01*
X42731773Y84424684D01*
X42529446Y84383064D01*
X42384749Y84381700D01*
X42301209Y84402889D01*
X42126245Y84441947D01*
X41875384Y84466943D01*
X41708797Y84471890D01*
X41317422Y84428101D01*
X41005944Y84285230D01*
X40742763Y84025145D01*
X40620717Y83847584D01*
X40490913Y83674692D01*
X40296115Y83457313D01*
X40061684Y83219120D01*
X39812982Y82983791D01*
X39575371Y82775002D01*
X39374213Y82616429D01*
X39234868Y82531748D01*
X39202761Y82523864D01*
X39117949Y82560390D01*
X39063272Y82682835D01*
X39034042Y82910503D01*
X39025568Y83253633D01*
X39088918Y83887479D01*
X39271410Y84460896D01*
X39561708Y84961205D01*
X39948476Y85375726D01*
X40420375Y85691780D01*
X40966072Y85896689D01*
X41456667Y85972631D01*
X42005641Y85964689D01*
G37*
G36*
X29815067Y59392698D02*
G01*
X30110482Y59374702D01*
X30367621Y59334594D01*
X30639452Y59264104D01*
X30978940Y59154966D01*
X30979830Y59154668D01*
X31346879Y59023522D01*
X31723379Y58875879D01*
X32049818Y58735553D01*
X32170455Y58678189D01*
X32478055Y58535082D01*
X32804317Y58399494D01*
X33036364Y58315192D01*
X33311911Y58217438D01*
X33575905Y58110427D01*
X33690900Y58057172D01*
X33894317Y57968124D01*
X34173458Y57862088D01*
X34448571Y57768374D01*
X34745175Y57666592D01*
X35028073Y57557639D01*
X35221635Y57471884D01*
X35315545Y57425998D01*
X35419595Y57378768D01*
X35550600Y57323698D01*
X35725376Y57254288D01*
X35960739Y57164040D01*
X36273503Y57046457D01*
X36680485Y56895041D01*
X37198500Y56703293D01*
X37474148Y56601439D01*
X38002766Y56399259D01*
X38428311Y56221919D01*
X38740969Y56073919D01*
X38930931Y55959762D01*
X38981785Y55909624D01*
X38956630Y55828661D01*
X38850121Y55690708D01*
X38764089Y55601917D01*
X38491638Y55281338D01*
X38207587Y54838126D01*
X37923390Y54292113D01*
X37663722Y53696307D01*
X37431126Y53040900D01*
X37288937Y52439504D01*
X37232886Y51847417D01*
X37258703Y51219937D01*
X37360471Y50521307D01*
X37414667Y50218739D01*
X37455532Y49975414D01*
X37478088Y49821940D01*
X37480331Y49784375D01*
X37411655Y49800699D01*
X37235884Y49856816D01*
X36981598Y49943317D01*
X36749242Y50025077D01*
X36252823Y50200271D01*
X35663307Y50405494D01*
X35019072Y50627619D01*
X34358498Y50853520D01*
X33719966Y51070069D01*
X33141854Y51264141D01*
X32675568Y51418351D01*
X32276282Y51554970D01*
X31857089Y51708362D01*
X31476428Y51856685D01*
X31263652Y51946036D01*
X30792719Y52146155D01*
X30393685Y52295555D01*
X30011260Y52411717D01*
X29590159Y52512124D01*
X29318032Y52567332D01*
X29264376Y52578217D01*
X28618446Y52735592D01*
X28077331Y52943840D01*
X27605514Y53220147D01*
X27167476Y53581699D01*
X27143643Y53604414D01*
X26772633Y53993005D01*
X26500809Y54363644D01*
X26298283Y54762939D01*
X26169384Y55123653D01*
X26047384Y55748966D01*
X26047851Y55776043D01*
X28010717Y55776043D01*
X28140160Y55353415D01*
X28177225Y55278178D01*
X28338478Y55018854D01*
X28523083Y54849062D01*
X28764409Y54752079D01*
X29095827Y54711185D01*
X29318032Y54706534D01*
X29623359Y54710801D01*
X29830703Y54731189D01*
X29986322Y54779085D01*
X30136473Y54865871D01*
X30228318Y54930562D01*
X30553469Y55239633D01*
X30744371Y55593813D01*
X30798030Y55983155D01*
X30711453Y56397709D01*
X30687749Y56457725D01*
X30476708Y56827549D01*
X30190899Y57086862D01*
X29813679Y57247112D01*
X29448259Y57310416D01*
X29014221Y57299002D01*
X28657809Y57168139D01*
X28367473Y56911533D01*
X28178778Y56618750D01*
X28023584Y56192893D01*
X28010717Y55776043D01*
X26047851Y55776043D01*
X26058304Y56382198D01*
X26193283Y57004344D01*
X26443456Y57596397D01*
X26799959Y58139351D01*
X27253931Y58614202D01*
X27796507Y59001943D01*
X28037158Y59128772D01*
X28285953Y59244609D01*
X28481555Y59321115D01*
X28666264Y59366440D01*
X28882375Y59388735D01*
X29172186Y59396150D01*
X29428409Y59396851D01*
X29815067Y59392698D01*
G37*
G36*
X37635799Y79583599D02*
G01*
X37621032Y79511222D01*
X37527918Y79217909D01*
X37433243Y78827803D01*
X37347402Y78387934D01*
X37289018Y78009082D01*
X37252207Y77279460D01*
X37324234Y76527620D01*
X37496027Y75784266D01*
X37758516Y75080100D01*
X38102627Y74445823D01*
X38490494Y73942831D01*
X38886376Y73515232D01*
X38649296Y73336002D01*
X38460298Y73221043D01*
X38149354Y73066236D01*
X37731360Y72877588D01*
X37221208Y72661105D01*
X36633794Y72422795D01*
X35984012Y72168665D01*
X35286755Y71904721D01*
X34556919Y71636970D01*
X33809397Y71371419D01*
X33583338Y71292881D01*
X33145635Y71137320D01*
X32668060Y70960597D01*
X32212197Y70785850D01*
X31880390Y70653105D01*
X31276621Y70416088D01*
X30764992Y70244274D01*
X30313221Y70129740D01*
X29889028Y70064565D01*
X29460129Y70040826D01*
X29383341Y70040341D01*
X29324647Y70044675D01*
X28667561Y70093200D01*
X28042132Y70254640D01*
X27497647Y70528959D01*
X27024696Y70920454D01*
X26748269Y71243650D01*
X26380630Y71841866D01*
X26148300Y72470921D01*
X26049867Y73115440D01*
X26066260Y73425744D01*
X28002805Y73425744D01*
X28029107Y73015702D01*
X28174001Y72602646D01*
X28178962Y72593012D01*
X28391326Y72316751D01*
X28695261Y72139048D01*
X29100179Y72055421D01*
X29324647Y72047318D01*
X29797002Y72107056D01*
X30193884Y72272257D01*
X30501181Y72530645D01*
X30704779Y72869948D01*
X30790564Y73277891D01*
X30792150Y73323580D01*
X30764007Y73529016D01*
X30688987Y73769784D01*
X30663856Y73828694D01*
X30423520Y74205277D01*
X30098581Y74467409D01*
X29685075Y74617415D01*
X29249820Y74658523D01*
X28854743Y74594503D01*
X28521064Y74417151D01*
X28260222Y74148532D01*
X28083656Y73810708D01*
X28002805Y73425744D01*
X26066260Y73425744D01*
X26083921Y73760050D01*
X26249052Y74389375D01*
X26543849Y74988040D01*
X26966902Y75540672D01*
X27160294Y75734747D01*
X27663989Y76140442D01*
X28196763Y76429488D01*
X28805967Y76626865D01*
X28887216Y76645746D01*
X29110043Y76703735D01*
X29446584Y76801812D01*
X29874261Y76932605D01*
X30370496Y77088742D01*
X30912714Y77262850D01*
X31478335Y77447556D01*
X32044784Y77635489D01*
X32589482Y77819275D01*
X33089852Y77991542D01*
X33523317Y78144917D01*
X33866193Y78271606D01*
X34383550Y78468257D01*
X34916035Y78668739D01*
X35445871Y78866542D01*
X35955281Y79055157D01*
X36426488Y79228075D01*
X36841714Y79378786D01*
X37183184Y79500780D01*
X37433120Y79587549D01*
X37573744Y79632584D01*
X37596469Y79637500D01*
X37635799Y79583599D01*
G37*
G36*
X29730661Y92342438D02*
G01*
X29795489Y92224360D01*
X29833714Y92042636D01*
X29838635Y91929305D01*
X29813670Y91790223D01*
X29750710Y91603836D01*
X29641646Y91348585D01*
X29478367Y91002916D01*
X29325361Y90691344D01*
X28902906Y89864847D01*
X28521475Y89172818D01*
X28181643Y88616232D01*
X27883987Y88196067D01*
X27781541Y88071786D01*
X27583145Y87832769D01*
X27357081Y87543558D01*
X27125531Y87234546D01*
X26910677Y86936125D01*
X26734700Y86678685D01*
X26619782Y86492618D01*
X26598470Y86450818D01*
X26556834Y86299449D01*
X26605502Y86159272D01*
X26660250Y86080073D01*
X26825917Y85893789D01*
X26987816Y85750582D01*
X27126908Y85662630D01*
X27242103Y85659518D01*
X27389349Y85725322D01*
X27707355Y85951906D01*
X28045141Y86308287D01*
X28393827Y86782819D01*
X28744534Y87363856D01*
X28975898Y87806290D01*
X29162638Y88186625D01*
X29337041Y88547454D01*
X29484103Y88857329D01*
X29588820Y89084804D01*
X29619810Y89155900D01*
X29826435Y89644450D01*
X29988790Y90014990D01*
X30115766Y90283683D01*
X30216256Y90466689D01*
X30299151Y90580168D01*
X30373344Y90640283D01*
X30447726Y90663194D01*
X30449243Y90663379D01*
X30521320Y90661763D01*
X30596143Y90630633D01*
X30683344Y90557094D01*
X30792553Y90428253D01*
X30933400Y90231217D01*
X31115518Y89953091D01*
X31348535Y89580982D01*
X31642085Y89101995D01*
X31758947Y88909944D01*
X32100771Y88337937D01*
X32378484Y87848448D01*
X32610496Y87405593D01*
X32815214Y86973491D01*
X33011049Y86516260D01*
X33099370Y86297308D01*
X33606850Y84872258D01*
X33985081Y83478543D01*
X34232542Y82123087D01*
X34347715Y80812816D01*
X34354334Y80579434D01*
X34371307Y79681310D01*
X34118750Y79611702D01*
X33984775Y79571131D01*
X33734348Y79491828D01*
X33388018Y79380434D01*
X32966332Y79243592D01*
X32489837Y79087946D01*
X31979082Y78920137D01*
X31953977Y78911865D01*
X31430532Y78741432D01*
X30929427Y78582154D01*
X30473608Y78441028D01*
X30086019Y78325049D01*
X29789606Y78241214D01*
X29608807Y78196809D01*
X28618946Y77952886D01*
X27747987Y77630508D01*
X26991481Y77226131D01*
X26344974Y76736209D01*
X25804017Y76157198D01*
X25364159Y75485553D01*
X25020946Y74717729D01*
X24939355Y74478125D01*
X24801008Y73835232D01*
X24769796Y73140818D01*
X24844620Y72438828D01*
X25005680Y71825469D01*
X25243908Y71228858D01*
X25514543Y70733440D01*
X25844872Y70296186D01*
X26216402Y69916223D01*
X26865638Y69402256D01*
X27566118Y69022194D01*
X28326492Y68772052D01*
X28923402Y68669306D01*
X29613039Y68635827D01*
X30308660Y68695814D01*
X31033450Y68853925D01*
X31810597Y69114816D01*
X32423011Y69372264D01*
X32816154Y69545536D01*
X33246604Y69728469D01*
X33691950Y69912262D01*
X34129782Y70088116D01*
X34537688Y70247232D01*
X34893257Y70380809D01*
X35174077Y70480048D01*
X35357738Y70536149D01*
X35410907Y70545455D01*
X35536789Y70482064D01*
X35588610Y70383097D01*
X35596137Y70284007D01*
X35603079Y70053303D01*
X35609335Y69703686D01*
X35614805Y69247859D01*
X35619384Y68698525D01*
X35622973Y68068387D01*
X35625470Y67370146D01*
X35626772Y66616506D01*
X35626778Y65820170D01*
X35626593Y65638637D01*
X35624520Y64615834D01*
X35620827Y63728691D01*
X35615347Y62968556D01*
X35607911Y62326779D01*
X35598354Y61794708D01*
X35586506Y61363692D01*
X35572202Y61025080D01*
X35555272Y60770221D01*
X35535550Y60590464D01*
X35527964Y60543727D01*
X35450359Y60215135D01*
X35341286Y59881497D01*
X35214015Y59571753D01*
X35081816Y59314847D01*
X34957958Y59139719D01*
X34855712Y59075310D01*
X34854695Y59075327D01*
X34706946Y59102112D01*
X34506719Y59163510D01*
X34479546Y59173495D01*
X34301836Y59240276D01*
X34033173Y59341158D01*
X33717726Y59459559D01*
X33541477Y59525693D01*
X33190480Y59660480D01*
X32764513Y59828691D01*
X32321419Y60007280D01*
X31976702Y60149122D01*
X31226344Y60432432D01*
X30551415Y60620396D01*
X29922655Y60717005D01*
X29310803Y60726251D01*
X28686599Y60652124D01*
X28521779Y60620330D01*
X27761422Y60395988D01*
X27052861Y60053659D01*
X26421342Y59607393D01*
X26035112Y59236829D01*
X25699148Y58830583D01*
X25430763Y58409341D01*
X25205079Y57928414D01*
X25019496Y57412500D01*
X24911066Y57056099D01*
X24844431Y56762026D01*
X24810112Y56468465D01*
X24798634Y56113598D01*
X24798248Y55969319D01*
X24854303Y55156027D01*
X25024007Y54423072D01*
X25313939Y53754019D01*
X25730682Y53132435D01*
X26100315Y52717849D01*
X26402130Y52432363D01*
X26708362Y52192421D01*
X27042857Y51986389D01*
X27429463Y51802633D01*
X27892025Y51629519D01*
X28454393Y51455413D01*
X28989692Y51308253D01*
X29386295Y51199966D01*
X29735897Y51098254D01*
X30013705Y51010828D01*
X30194931Y50945397D01*
X30252476Y50915479D01*
X30264715Y50820374D01*
X30156542Y50702553D01*
X29948124Y50571949D01*
X29659625Y50438495D01*
X29311210Y50312122D01*
X28923044Y50202765D01*
X28709212Y50155324D01*
X28449445Y50109438D01*
X28188060Y50078901D01*
X27894026Y50062457D01*
X27536313Y50058849D01*
X27083889Y50066819D01*
X26760917Y50076413D01*
X26323442Y50092686D01*
X25925054Y50111289D01*
X25592554Y50130673D01*
X25352742Y50149289D01*
X25236731Y50164475D01*
X25130002Y50183863D01*
X25077948Y50154903D01*
X25066517Y50046062D01*
X25081659Y49825808D01*
X25082312Y49817934D01*
X25069594Y49391845D01*
X24967602Y48865194D01*
X24955847Y48819550D01*
X24875087Y48475585D01*
X24833576Y48181676D01*
X24825414Y47871168D01*
X24841428Y47526705D01*
X24859430Y47195200D01*
X24858230Y46962533D01*
X24832069Y46783849D01*
X24775187Y46614294D01*
X24703879Y46455480D01*
X24523643Y46157274D01*
X24253191Y45813535D01*
X23923472Y45457134D01*
X23565434Y45120939D01*
X23210025Y44837822D01*
X23126252Y44779883D01*
X22679528Y44532077D01*
X22613458Y44506707D01*
X22187544Y44343162D01*
X21703607Y44230891D01*
X21407354Y44207387D01*
X20986568Y44242648D01*
X20528966Y44339719D01*
X20068415Y44485529D01*
X19638784Y44667007D01*
X19273938Y44871083D01*
X19007746Y45084684D01*
X18945450Y45157533D01*
X18855822Y45307720D01*
X18847791Y45451820D01*
X18888473Y45600220D01*
X18969214Y45777869D01*
X19059169Y45885696D01*
X19073114Y45892962D01*
X19184023Y45881402D01*
X19379717Y45814313D01*
X19618701Y45706034D01*
X19628857Y45700905D01*
X19837729Y45599371D01*
X20011987Y45532990D01*
X20192323Y45494330D01*
X20419429Y45475959D01*
X20733997Y45470443D01*
X20892030Y45470171D01*
X21316428Y45477184D01*
X21603728Y45500700D01*
X21760581Y45544438D01*
X21793640Y45612113D01*
X21709557Y45707443D01*
X21528897Y45826033D01*
X21028709Y46176730D01*
X20661809Y46569138D01*
X20420334Y47014895D01*
X20296422Y47525638D01*
X20283727Y47657790D01*
X21517408Y47657790D01*
X21586692Y47355088D01*
X21724744Y47124153D01*
X21968392Y46904728D01*
X22276596Y46756127D01*
X22613458Y46682349D01*
X22943081Y46687394D01*
X23229570Y46775260D01*
X23425700Y46934642D01*
X23477893Y47097500D01*
X23476879Y47347951D01*
X23426776Y47641140D01*
X23334847Y47924707D01*
X23223910Y48106363D01*
X23051924Y48306226D01*
X22978408Y48375702D01*
X22690809Y48552645D01*
X22398644Y48605612D01*
X22120430Y48553089D01*
X21874683Y48413560D01*
X21679920Y48205511D01*
X21554656Y47947426D01*
X21517408Y47657790D01*
X20283727Y47657790D01*
X20282456Y47671023D01*
X20308328Y48222213D01*
X20467992Y48722255D01*
X20763954Y49177606D01*
X20940866Y49368276D01*
X21263914Y49639133D01*
X21594146Y49807359D01*
X21977305Y49890623D01*
X22338078Y49907955D01*
X22859758Y49854717D01*
X23337221Y49685577D01*
X23688075Y49477537D01*
X24007519Y49257753D01*
X24053537Y49564814D01*
X24078161Y49841934D01*
X24078528Y50121213D01*
X24076056Y50157408D01*
X24057439Y50309754D01*
X24011644Y50409252D01*
X23907220Y50485045D01*
X23712718Y50566274D01*
X23583523Y50613787D01*
X23166821Y50768826D01*
X22844744Y50898790D01*
X22594914Y51014183D01*
X22574757Y51023493D01*
X22314326Y51162750D01*
X22020915Y51336377D01*
X21983887Y51358983D01*
X21251119Y51855679D01*
X20876049Y52109915D01*
X20057384Y52794545D01*
X19892314Y52932589D01*
X19029254Y53831193D01*
X18283443Y54809914D01*
X17651451Y55872941D01*
X17129851Y57024461D01*
X16953394Y57504862D01*
X16825576Y57885046D01*
X16714648Y58241551D01*
X16619019Y58588448D01*
X16537097Y58939812D01*
X16467291Y59309713D01*
X16408009Y59712225D01*
X16357660Y60161420D01*
X16314653Y60671370D01*
X16277396Y61256148D01*
X16244298Y61929826D01*
X16213767Y62706477D01*
X16184213Y63600172D01*
X16155994Y64556250D01*
X16128811Y65493735D01*
X16104240Y66297761D01*
X16081790Y66979151D01*
X16074746Y67171863D01*
X16813910Y67171863D01*
X16824826Y66774831D01*
X16824880Y66773768D01*
X16860690Y66238904D01*
X16909324Y65769796D01*
X16967688Y65388461D01*
X17032687Y65116917D01*
X17071358Y65020011D01*
X17170511Y64734430D01*
X17240816Y64313494D01*
X17281770Y63763356D01*
X17292873Y63090169D01*
X17279803Y62463637D01*
X17263891Y61738143D01*
X17271773Y61094463D01*
X17305130Y60471796D01*
X17348661Y59974148D01*
X17396440Y59524754D01*
X17445060Y59160196D01*
X17503790Y58837845D01*
X17581895Y58515069D01*
X17688641Y58149237D01*
X17833296Y57697720D01*
X17863354Y57606244D01*
X18008820Y57167953D01*
X18124144Y56837970D01*
X18223779Y56587343D01*
X18322179Y56387125D01*
X18433797Y56208366D01*
X18573085Y56022117D01*
X18754497Y55799430D01*
X18782017Y55766187D01*
X19147164Y55338946D01*
X19445188Y55024449D01*
X19688176Y54814801D01*
X19888212Y54702108D01*
X20057384Y54678474D01*
X20207776Y54736005D01*
X20276563Y54789877D01*
X20374998Y54891524D01*
X20398526Y54984924D01*
X20349884Y55124180D01*
X20298787Y55229048D01*
X20188872Y55410880D01*
X20077348Y55541718D01*
X20076220Y55542660D01*
X19881661Y55759303D01*
X19668887Y56089229D01*
X19449521Y56504520D01*
X19235185Y56977260D01*
X19037501Y57479533D01*
X18868094Y57983420D01*
X18738585Y58461005D01*
X18737147Y58468811D01*
X20421238Y58468811D01*
X20434212Y58402357D01*
X20514722Y58233762D01*
X20657546Y58043264D01*
X20702685Y57995348D01*
X20883654Y57846072D01*
X21072724Y57783030D01*
X21251119Y57773296D01*
X21480918Y57792147D01*
X21653214Y57869572D01*
X21822841Y58018637D01*
X22020302Y58297579D01*
X22081981Y58590355D01*
X22007203Y58876277D01*
X21857255Y59077710D01*
X21613271Y59238036D01*
X21334846Y59293436D01*
X21170273Y59272587D01*
X21050414Y59257403D01*
X20788404Y59143430D01*
X20577251Y58965012D01*
X20445385Y58735641D01*
X20421238Y58468811D01*
X18737147Y58468811D01*
X18660597Y58884371D01*
X18651840Y58963921D01*
X18611651Y59279587D01*
X18555224Y59590836D01*
X18504632Y59795014D01*
X18459727Y59993809D01*
X18410533Y60295937D01*
X18362930Y60660769D01*
X18322797Y61047680D01*
X18321894Y61057798D01*
X18299210Y61301336D01*
X20407489Y61301336D01*
X20482727Y60997272D01*
X20632475Y60770409D01*
X20797842Y60606831D01*
X20954929Y60532679D01*
X21170273Y60515341D01*
X21547558Y60561785D01*
X21816153Y60701791D01*
X21967452Y60910467D01*
X22054759Y61189209D01*
X22039157Y61421117D01*
X21987006Y61548352D01*
X21769212Y61848936D01*
X21496524Y62032818D01*
X21190300Y62090463D01*
X21174989Y62087115D01*
X20909988Y62029171D01*
X20627395Y61845752D01*
X20457804Y61593651D01*
X20407489Y61301336D01*
X18299210Y61301336D01*
X18221847Y62131912D01*
X18123407Y63077211D01*
X18024499Y63909152D01*
X18009069Y64020798D01*
X20378607Y64020798D01*
X20479575Y63732841D01*
X20662423Y63498521D01*
X20902459Y63335713D01*
X21174989Y63262296D01*
X21455317Y63296145D01*
X21670071Y63413625D01*
X21886582Y63662650D01*
X21996937Y63962488D01*
X21995539Y64274050D01*
X21876788Y64558245D01*
X21840803Y64605553D01*
X21600337Y64789124D01*
X21290523Y64870134D01*
X21175337Y64859554D01*
X20965117Y64840245D01*
X20663698Y64728476D01*
X20479516Y64574815D01*
X20386881Y64357339D01*
X20384215Y64344512D01*
X20378607Y64020798D01*
X18009069Y64020798D01*
X17923051Y64643191D01*
X17816988Y65294786D01*
X17704236Y65879392D01*
X17629847Y66215909D01*
X17569164Y66518020D01*
X17528122Y66771084D01*
X20408523Y66771084D01*
X20430948Y66565010D01*
X20518763Y66398536D01*
X20666094Y66242586D01*
X20934430Y66032418D01*
X21175337Y65948099D01*
X21418458Y65982923D01*
X21549717Y66042705D01*
X21757376Y66196732D01*
X21935726Y66400903D01*
X22047818Y66607629D01*
X22067912Y66710118D01*
X22038758Y66836061D01*
X21966652Y67020487D01*
X21950536Y67055371D01*
X21762407Y67333226D01*
X21517373Y67482336D01*
X21289712Y67514773D01*
X20951685Y67458836D01*
X20674907Y67305637D01*
X20485345Y67077091D01*
X20408966Y66795114D01*
X20408523Y66771084D01*
X17528122Y66771084D01*
X17512452Y66867709D01*
X17485073Y67077625D01*
X17427658Y67412012D01*
X17340345Y67620043D01*
X17214078Y67718168D01*
X17125284Y67731250D01*
X16981780Y67706174D01*
X16886184Y67617764D01*
X16832296Y67446251D01*
X16813910Y67171863D01*
X16074746Y67171863D01*
X16060972Y67548731D01*
X16041297Y68017325D01*
X16022275Y68395760D01*
X16003417Y68694859D01*
X15984233Y68925447D01*
X15964234Y69098350D01*
X15945506Y69211714D01*
X15888036Y69501553D01*
X16831376Y69505889D01*
X17459548Y69525984D01*
X17992701Y69586004D01*
X18476812Y69695079D01*
X18957858Y69862341D01*
X19243125Y69984865D01*
X19931309Y70360229D01*
X20552759Y70825019D01*
X21086896Y71359445D01*
X21513140Y71943720D01*
X21744003Y72389554D01*
X22048917Y73193425D01*
X22260592Y73963587D01*
X22375514Y74681561D01*
X22390171Y75328871D01*
X22358570Y75621704D01*
X22261954Y76067585D01*
X22116403Y76544259D01*
X21939849Y77002910D01*
X21750225Y77394719D01*
X21643009Y77569656D01*
X21299304Y77973897D01*
X20846670Y78364377D01*
X20320189Y78717929D01*
X19754941Y79011385D01*
X19186010Y79221579D01*
X19109659Y79242623D01*
X18519460Y79339736D01*
X17872299Y79347233D01*
X17220892Y79269297D01*
X16617955Y79110111D01*
X16410883Y79028472D01*
X16129437Y78904906D01*
X16178693Y79830436D01*
X16214119Y80392595D01*
X16259174Y80861347D01*
X16321940Y81287598D01*
X16410501Y81722251D01*
X16532940Y82216210D01*
X16593590Y82443196D01*
X16859902Y83288108D01*
X16931550Y83460946D01*
X20770641Y83460946D01*
X20792235Y83033159D01*
X20839414Y82854833D01*
X21033326Y82485301D01*
X21333465Y82182996D01*
X21712198Y81961205D01*
X22141891Y81833218D01*
X22594914Y81812320D01*
X22898011Y81864922D01*
X23300271Y82043464D01*
X23625441Y82325637D01*
X23859782Y82685400D01*
X23989554Y83096715D01*
X24001019Y83533541D01*
X23934849Y83830000D01*
X23793112Y84096329D01*
X23560642Y84373755D01*
X23280502Y84619280D01*
X22995755Y84789905D01*
X22957997Y84805360D01*
X22519775Y84905008D01*
X22093749Y84880060D01*
X21697751Y84746933D01*
X21349611Y84522042D01*
X21067159Y84221803D01*
X20868226Y83862632D01*
X20770641Y83460946D01*
X16931550Y83460946D01*
X17195494Y84097664D01*
X17611675Y84890770D01*
X18119752Y85686330D01*
X18731031Y86503249D01*
X19456821Y87360434D01*
X19687551Y87616204D01*
X19940965Y87900666D01*
X20115689Y88120947D01*
X20235300Y88314699D01*
X20323376Y88519571D01*
X20396057Y88747623D01*
X20486430Y89091261D01*
X20568754Y89462426D01*
X20618551Y89739773D01*
X20645992Y89962490D01*
X20676716Y90272066D01*
X20708282Y90635518D01*
X20738254Y91019865D01*
X20764192Y91392125D01*
X20783657Y91719317D01*
X20794211Y91968457D01*
X20793492Y92105789D01*
X20837339Y92123893D01*
X20973812Y92050722D01*
X21190865Y91894360D01*
X21476455Y91662888D01*
X21561615Y91590397D01*
X21999518Y91288917D01*
X22552982Y91028396D01*
X23197121Y90816580D01*
X23907051Y90661216D01*
X24657888Y90570052D01*
X24882386Y90556607D01*
X25860674Y90573200D01*
X26768751Y90715756D01*
X27607195Y90984471D01*
X28376583Y91379543D01*
X29077491Y91901168D01*
X29231736Y92041574D01*
X29467448Y92251078D01*
X29627535Y92351355D01*
X29730661Y92342438D01*
G37*
G36*
X25753393Y97913497D02*
G01*
X25987831Y97890161D01*
X26204639Y97845154D01*
X26446028Y97772602D01*
X26675123Y97694300D01*
X27196664Y97480279D01*
X27721085Y97208350D01*
X28201620Y96905518D01*
X28591502Y96598785D01*
X28623063Y96569541D01*
X28933633Y96201162D01*
X29136796Y95773236D01*
X29242259Y95261957D01*
X29260106Y95007387D01*
X29257841Y94586217D01*
X29220499Y94241052D01*
X29184356Y94092711D01*
X28946808Y93587867D01*
X28586411Y93123686D01*
X28122541Y92716337D01*
X27574573Y92381989D01*
X26961882Y92136813D01*
X26779694Y92085921D01*
X26005882Y91942334D01*
X25189780Y91885311D01*
X24365884Y91912303D01*
X24074205Y91951985D01*
X23568689Y92020759D01*
X22832690Y92208129D01*
X22303428Y92416779D01*
X21919714Y92640285D01*
X21534070Y92936921D01*
X21175875Y93277229D01*
X20874508Y93631755D01*
X20763181Y93807307D01*
X23591141Y93807307D01*
X23627718Y93629323D01*
X23778031Y93428942D01*
X23828864Y93376591D01*
X24074205Y93131250D01*
X24942192Y93131250D01*
X25810179Y93131250D01*
X26067874Y93374288D01*
X26265603Y93611147D01*
X26323500Y93823872D01*
X26241782Y94023157D01*
X26084240Y94173885D01*
X25971327Y94253041D01*
X25858466Y94305559D01*
X25713634Y94336865D01*
X25504802Y94352388D01*
X25199947Y94357557D01*
X24998270Y94357955D01*
X24907947Y94355925D01*
X24529469Y94347417D01*
X24182325Y94312008D01*
X23935455Y94246036D01*
X23767478Y94143812D01*
X23657821Y94001156D01*
X23591141Y93807307D01*
X20763181Y93807307D01*
X20659347Y93971042D01*
X20590403Y94134331D01*
X20489235Y94659951D01*
X20523944Y95186882D01*
X20686868Y95701432D01*
X20888011Y96048030D01*
X23585893Y96048030D01*
X23699004Y95807967D01*
X23805536Y95699313D01*
X23906548Y95620660D01*
X24008042Y95567866D01*
X24140336Y95535793D01*
X24333745Y95519306D01*
X24618585Y95513265D01*
X24907947Y95512500D01*
X25304510Y95516380D01*
X25584619Y95530165D01*
X25775983Y95557073D01*
X25906311Y95600323D01*
X25966757Y95635467D01*
X26212750Y95859759D01*
X26320954Y96093092D01*
X26289530Y96325971D01*
X26139435Y96528189D01*
X26058161Y96597970D01*
X25970668Y96646217D01*
X25850126Y96676893D01*
X25669704Y96693959D01*
X25402574Y96701378D01*
X25021904Y96703111D01*
X24954752Y96703125D01*
X24555122Y96701893D01*
X24272970Y96695556D01*
X24081461Y96680152D01*
X23953759Y96651718D01*
X23863029Y96606293D01*
X23782436Y96539916D01*
X23769863Y96528189D01*
X23609162Y96296233D01*
X23585893Y96048030D01*
X20888011Y96048030D01*
X20970347Y96189906D01*
X21366721Y96638614D01*
X21868330Y97033861D01*
X22371094Y97317264D01*
X22971839Y97575503D01*
X23543243Y97753392D01*
X24135019Y97862037D01*
X24796884Y97912545D01*
X25062784Y97918646D01*
X25459114Y97921034D01*
X25753393Y97913497D01*
G37*
G36*
X18587982Y77850722D02*
G01*
X18836995Y77799194D01*
X19260775Y77681661D01*
X19589225Y77546225D01*
X19870980Y77364865D01*
X20154670Y77109556D01*
X20305122Y76953249D01*
X20566494Y76649488D01*
X20741433Y76379116D01*
X20861531Y76092467D01*
X20870775Y76064032D01*
X21007450Y75420758D01*
X21028735Y74744356D01*
X20933392Y74089997D01*
X20916519Y74024643D01*
X20643620Y73263546D01*
X20264814Y72598125D01*
X19785681Y72032417D01*
X19211803Y71570460D01*
X18548761Y71216289D01*
X17802135Y70973940D01*
X16977507Y70847450D01*
X16497556Y70828733D01*
X16127505Y70834429D01*
X15668522Y70850804D01*
X15175399Y70875440D01*
X14702928Y70905922D01*
X14639351Y70910686D01*
X14251716Y70937145D01*
X13910209Y70954479D01*
X13643004Y70961714D01*
X13478276Y70957875D01*
X13444435Y70952033D01*
X13275601Y70945822D01*
X13091611Y71012908D01*
X12965554Y71124275D01*
X12954797Y71146415D01*
X12943565Y71318067D01*
X12990974Y71610555D01*
X13094400Y72014045D01*
X13251220Y72518704D01*
X13458809Y73114699D01*
X13535709Y73323580D01*
X13842308Y74114063D01*
X14129123Y74780957D01*
X14405913Y75341935D01*
X14682438Y75814669D01*
X14968457Y76216833D01*
X15273729Y76566100D01*
X15390679Y76682732D01*
X16005546Y77200036D01*
X16629036Y77574297D01*
X17264823Y77806705D01*
X17916580Y77898450D01*
X18587982Y77850722D01*
G37*
G36*
X15438728Y88111411D02*
G01*
X16087289Y88040993D01*
X16667891Y87924684D01*
X16944886Y87847188D01*
X17253388Y87736405D01*
X17519837Y87611798D01*
X17714346Y87489915D01*
X17807024Y87387305D01*
X17810796Y87367765D01*
X17763131Y87290900D01*
X17641652Y87154112D01*
X17553961Y87066002D01*
X17253046Y86728490D01*
X16927082Y86282847D01*
X16593700Y85758806D01*
X16270526Y85186101D01*
X15975192Y84594463D01*
X15725326Y84013626D01*
X15690623Y83923357D01*
X15543744Y83494791D01*
X15400604Y83006766D01*
X15270691Y82498889D01*
X15163494Y82010763D01*
X15088502Y81581993D01*
X15056162Y81275116D01*
X15036793Y81032324D01*
X15008543Y80858900D01*
X14977509Y80792196D01*
X14977337Y80792194D01*
X14893892Y80843423D01*
X14746356Y80978368D01*
X14561441Y81168572D01*
X14365859Y81385580D01*
X14186324Y81600935D01*
X14063018Y81766194D01*
X13679128Y82394647D01*
X13335023Y83104560D01*
X13026104Y83908971D01*
X12747773Y84820916D01*
X12495430Y85853434D01*
X12323890Y86696612D01*
X12247984Y87117620D01*
X12208778Y87441968D01*
X12220595Y87683101D01*
X12297759Y87854467D01*
X12454592Y87969510D01*
X12705418Y88041677D01*
X13064560Y88084414D01*
X13546341Y88111166D01*
X13843299Y88122965D01*
X14698600Y88138035D01*
X15438728Y88111411D01*
G37*
G36*
X44858655Y80371432D02*
G01*
X45051507Y80319644D01*
X45471585Y80148479D01*
X45885150Y79911595D01*
X46247688Y79638448D01*
X46514688Y79358490D01*
X46524774Y79344784D01*
X46798046Y78877136D01*
X46983085Y78367364D01*
X47073289Y77849918D01*
X47062054Y77359246D01*
X46973531Y77003694D01*
X46707590Y76421215D01*
X46390482Y75955849D01*
X46001061Y75583549D01*
X45518187Y75280266D01*
X45411648Y75227267D01*
X45138184Y75110065D01*
X44892020Y75046392D01*
X44604415Y75021679D01*
X44430929Y75019375D01*
X44179937Y75034512D01*
X43906645Y75050993D01*
X43471709Y75154863D01*
X43083721Y75344324D01*
X42833825Y75521903D01*
X42357890Y75969999D01*
X41992205Y76466693D01*
X41746820Y76993766D01*
X41631787Y77532997D01*
X41624152Y77714846D01*
X41641479Y77882437D01*
X43156460Y77882437D01*
X43183542Y77483297D01*
X43318004Y77137164D01*
X43541272Y76864811D01*
X43834774Y76687009D01*
X44179937Y76624531D01*
X44276463Y76629802D01*
X44653698Y76730223D01*
X44967464Y76931323D01*
X45202495Y77207746D01*
X45343528Y77534134D01*
X45375298Y77885129D01*
X45282538Y78235374D01*
X45264741Y78271484D01*
X45104997Y78484772D01*
X44873301Y78685124D01*
X44617287Y78839169D01*
X44384593Y78913534D01*
X44344846Y78915909D01*
X43915848Y78858046D01*
X43572108Y78690516D01*
X43324078Y78422410D01*
X43182211Y78062817D01*
X43156460Y77882437D01*
X41641479Y77882437D01*
X41664169Y78101903D01*
X41770358Y78538474D01*
X41924841Y78956754D01*
X41984390Y79081198D01*
X42296704Y79537550D01*
X42708658Y79910681D01*
X43195541Y80190612D01*
X43732642Y80367366D01*
X44295250Y80430965D01*
X44858655Y80371432D01*
G37*
G36*
X44498409Y54206033D02*
G01*
X44679828Y54172135D01*
X45308279Y53975875D01*
X45849852Y53664911D01*
X46300222Y53242910D01*
X46655069Y52713541D01*
X46814836Y52360241D01*
X46979215Y51822679D01*
X47028973Y51343884D01*
X46965435Y50896684D01*
X46896241Y50688230D01*
X46683631Y50231982D01*
X46420957Y49855524D01*
X46078944Y49508407D01*
X45588754Y49136061D01*
X45091717Y48901704D01*
X44569013Y48799505D01*
X44224642Y48814154D01*
X44001825Y48823632D01*
X43913824Y48837432D01*
X43279156Y49004810D01*
X42745893Y49274501D01*
X42312282Y49647892D01*
X41976570Y50126368D01*
X41806289Y50504410D01*
X41646354Y51122284D01*
X41631254Y51514600D01*
X43077562Y51514600D01*
X43127776Y51174966D01*
X43285460Y50852378D01*
X43554710Y50573930D01*
X43869180Y50418634D01*
X44224642Y50378064D01*
X44585838Y50444414D01*
X44917514Y50609880D01*
X45184413Y50866656D01*
X45238414Y50946701D01*
X45355470Y51270386D01*
X45353130Y51634805D01*
X45233493Y51996172D01*
X44998080Y52307349D01*
X44671015Y52514321D01*
X44270440Y52606544D01*
X44176509Y52610368D01*
X43801670Y52553260D01*
X43496870Y52390611D01*
X43269594Y52146940D01*
X43127330Y51846764D01*
X43077562Y51514600D01*
X41631254Y51514600D01*
X41623255Y51722413D01*
X41729567Y52291013D01*
X41957862Y52814302D01*
X42300715Y53278496D01*
X42750698Y53669811D01*
X43300385Y53974465D01*
X43762402Y54134777D01*
X44048466Y54203459D01*
X44270030Y54226243D01*
X44498409Y54206033D01*
G37*
D15*
%TO.C,A1*%
X18588000Y43740000D02*
X18588000Y41070000D01*
X18588000Y38530000D02*
X18588000Y300000D01*
X18588000Y300000D02*
X23668000Y300000D01*
X21258000Y41070000D02*
X18588000Y41070000D01*
X21258000Y38530000D02*
X18588000Y38530000D01*
X21258000Y38530000D02*
X21258000Y41070000D01*
X21258000Y38530000D02*
X21258000Y2970000D01*
X21258000Y2970000D02*
X18588000Y2970000D01*
X23668000Y8180000D02*
X31548000Y8180000D01*
X23668000Y-2240000D02*
X23668000Y8180000D01*
X31548000Y8180000D02*
X31548000Y-2240000D01*
X31548000Y-2240000D02*
X23668000Y-2240000D01*
X33958000Y41070000D02*
X33958000Y2970000D01*
X33958000Y41070000D02*
X36628000Y41070000D01*
X33958000Y2970000D02*
X36628000Y2970000D01*
X36628000Y43740000D02*
X18588000Y43740000D01*
X36628000Y300000D02*
X31548000Y300000D01*
X36628000Y300000D02*
X36628000Y43740000D01*
%TO.C,J2*%
X-6490000Y62780000D02*
X-6490000Y37260000D01*
X-6490000Y62780000D02*
X2140000Y62780000D01*
X-6490000Y62660000D02*
X2140000Y62660000D01*
X-6490000Y62541905D02*
X2140000Y62541905D01*
X-6490000Y62423810D02*
X2140000Y62423810D01*
X-6490000Y62305715D02*
X2140000Y62305715D01*
X-6490000Y62187620D02*
X2140000Y62187620D01*
X-6490000Y62069525D02*
X2140000Y62069525D01*
X-6490000Y61951430D02*
X2140000Y61951430D01*
X-6490000Y61833335D02*
X2140000Y61833335D01*
X-6490000Y61715240D02*
X2140000Y61715240D01*
X-6490000Y61597145D02*
X2140000Y61597145D01*
X-6490000Y61479050D02*
X2140000Y61479050D01*
X-6490000Y61360955D02*
X2140000Y61360955D01*
X-6490000Y61242860D02*
X2140000Y61242860D01*
X-6490000Y61124765D02*
X2140000Y61124765D01*
X-6490000Y61006670D02*
X2140000Y61006670D01*
X-6490000Y60888575D02*
X2140000Y60888575D01*
X-6490000Y60770480D02*
X2140000Y60770480D01*
X-6490000Y60652385D02*
X2140000Y60652385D01*
X-6490000Y60534290D02*
X2140000Y60534290D01*
X-6490000Y60416195D02*
X2140000Y60416195D01*
X-6490000Y60298100D02*
X2140000Y60298100D01*
X-6490000Y60180000D02*
X2140000Y60180000D01*
X-6490000Y57640000D02*
X2140000Y57640000D01*
X-6490000Y55100000D02*
X2140000Y55100000D01*
X-6490000Y52560000D02*
X2140000Y52560000D01*
X-6490000Y50020000D02*
X2140000Y50020000D01*
X-6490000Y47480000D02*
X2140000Y47480000D01*
X-6490000Y44940000D02*
X2140000Y44940000D01*
X-6490000Y42400000D02*
X2140000Y42400000D01*
X-6490000Y39860000D02*
X2140000Y39860000D01*
X-6490000Y37260000D02*
X2140000Y37260000D01*
X2140000Y62780000D02*
X2140000Y37260000D01*
X2140000Y61810000D02*
X2490000Y61810000D01*
X2140000Y61090000D02*
X2490000Y61090000D01*
X2140000Y59270000D02*
X2550000Y59270000D01*
X2140000Y58550000D02*
X2550000Y58550000D01*
X2140000Y56730000D02*
X2550000Y56730000D01*
X2140000Y56010000D02*
X2550000Y56010000D01*
X2140000Y54190000D02*
X2550000Y54190000D01*
X2140000Y53470000D02*
X2550000Y53470000D01*
X2140000Y51650000D02*
X2550000Y51650000D01*
X2140000Y50930000D02*
X2550000Y50930000D01*
X2140000Y49110000D02*
X2550000Y49110000D01*
X2140000Y48390000D02*
X2550000Y48390000D01*
X2140000Y46570000D02*
X2550000Y46570000D01*
X2140000Y45850000D02*
X2550000Y45850000D01*
X2140000Y44030000D02*
X2550000Y44030000D01*
X2140000Y43310000D02*
X2550000Y43310000D01*
X2140000Y41490000D02*
X2550000Y41490000D01*
X2140000Y40770000D02*
X2550000Y40770000D01*
X2140000Y38950000D02*
X2550000Y38950000D01*
X2140000Y38230000D02*
X2550000Y38230000D01*
X3600000Y62780000D02*
X4710000Y62780000D01*
X4710000Y62780000D02*
X4710000Y61450000D01*
D16*
%TO.C,Logo1*%
X3896872Y70864977D02*
X4000471Y70862382D01*
X4089632Y70858246D01*
X4157928Y70852563D01*
X4198934Y70845331D01*
X4207326Y70840971D01*
X4215792Y70816698D01*
X4229565Y70761426D01*
X4247450Y70680662D01*
X4268252Y70579912D01*
X4290777Y70464683D01*
X4302582Y70401902D01*
X4324849Y70282787D01*
X4345021Y70176565D01*
X4362085Y70088427D01*
X4375031Y70023566D01*
X4382845Y69987174D01*
X4384578Y69981184D01*
X4404110Y69971061D01*
X4451157Y69949662D01*
X4518997Y69919839D01*
X4600909Y69884445D01*
X4690172Y69846332D01*
X4780065Y69808353D01*
X4863865Y69773360D01*
X4934853Y69744206D01*
X4986306Y69723743D01*
X5011503Y69714823D01*
X5012604Y69714657D01*
X5032481Y69724769D01*
X5078223Y69753117D01*
X5145283Y69796723D01*
X5229116Y69852606D01*
X5325174Y69917787D01*
X5380350Y69955679D01*
X5481519Y70024725D01*
X5573370Y70086050D01*
X5651256Y70136663D01*
X5710531Y70173571D01*
X5746549Y70193782D01*
X5754623Y70196701D01*
X5773416Y70184153D01*
X5813543Y70149463D01*
X5870507Y70097063D01*
X5939815Y70031384D01*
X6016969Y69956856D01*
X6097475Y69877913D01*
X6176837Y69798983D01*
X6250560Y69724500D01*
X6314148Y69658894D01*
X6363106Y69606596D01*
X6392939Y69572039D01*
X6400058Y69560478D01*
X6390047Y69541654D01*
X6361922Y69496631D01*
X6318546Y69429787D01*
X6262782Y69345499D01*
X6197494Y69248144D01*
X6147754Y69174707D01*
X5895449Y68803667D01*
X6150445Y68185095D01*
X6595069Y68101275D01*
X7039693Y68017454D01*
X7039693Y67092006D01*
X6595069Y67008186D01*
X6150445Y66924365D01*
X6022947Y66615080D01*
X5895449Y66305794D01*
X6147754Y65934754D01*
X6218004Y65830843D01*
X6280728Y65736913D01*
X6333062Y65657348D01*
X6372143Y65596530D01*
X6395107Y65558843D01*
X6400058Y65548579D01*
X6387324Y65530090D01*
X6352118Y65490580D01*
X6298938Y65434478D01*
X6232282Y65366213D01*
X6156646Y65290214D01*
X6076528Y65210908D01*
X5996426Y65132725D01*
X5920836Y65060093D01*
X5854255Y64997441D01*
X5801182Y64949197D01*
X5766113Y64919790D01*
X5754377Y64912759D01*
X5732740Y64922877D01*
X5685338Y64951241D01*
X5616807Y64994871D01*
X5531785Y65050782D01*
X5434907Y65115994D01*
X5379650Y65153781D01*
X5278752Y65222657D01*
X5187701Y65283860D01*
X5111030Y65334422D01*
X5053272Y65371372D01*
X5018957Y65391742D01*
X5011746Y65394803D01*
X4991252Y65387864D01*
X4943487Y65368949D01*
X4875168Y65340913D01*
X4793011Y65306609D01*
X4703730Y65268891D01*
X4614042Y65230613D01*
X4530662Y65194630D01*
X4460306Y65163794D01*
X4409690Y65140961D01*
X4385529Y65128983D01*
X4384578Y65128276D01*
X4379964Y65109469D01*
X4369672Y65059382D01*
X4354713Y64983207D01*
X4336099Y64886135D01*
X4314841Y64773357D01*
X4302582Y64707558D01*
X4279638Y64587050D01*
X4257805Y64478203D01*
X4238278Y64386524D01*
X4222252Y64317519D01*
X4210921Y64276696D01*
X4207326Y64268489D01*
X4182994Y64260452D01*
X4128041Y64253967D01*
X4048892Y64249030D01*
X3951974Y64245636D01*
X3843713Y64243782D01*
X3730535Y64243462D01*
X3618865Y64244673D01*
X3515132Y64247410D01*
X3425759Y64251669D01*
X3357174Y64257445D01*
X3315803Y64264733D01*
X3307190Y64269105D01*
X3296867Y64295236D01*
X3282108Y64350607D01*
X3264648Y64427893D01*
X3246220Y64519770D01*
X3240259Y64551842D01*
X3211934Y64706476D01*
X3189124Y64828625D01*
X3170920Y64922327D01*
X3156417Y64991616D01*
X3144708Y65040529D01*
X3134885Y65073103D01*
X3126044Y65093372D01*
X3117276Y65105374D01*
X3115543Y65107053D01*
X3087629Y65123816D01*
X3033305Y65149386D01*
X2959223Y65181212D01*
X2872035Y65216740D01*
X2778392Y65253417D01*
X2684948Y65288689D01*
X2598353Y65320004D01*
X2525260Y65344807D01*
X2472322Y65360546D01*
X2446189Y65364668D01*
X2445274Y65364324D01*
X2423914Y65350359D01*
X2376916Y65318678D01*
X2309173Y65272609D01*
X2225577Y65215482D01*
X2131018Y65150627D01*
X2104146Y65132157D01*
X2006725Y65066301D01*
X1917837Y65008350D01*
X1842588Y64961462D01*
X1786080Y64928793D01*
X1753419Y64913500D01*
X1749407Y64912759D01*
X1728316Y64925608D01*
X1686536Y64961112D01*
X1628555Y65014707D01*
X1558865Y65081829D01*
X1481955Y65157913D01*
X1402317Y65238396D01*
X1324439Y65318713D01*
X1252814Y65394301D01*
X1191930Y65460595D01*
X1146279Y65513031D01*
X1120350Y65547045D01*
X1116117Y65556455D01*
X1126088Y65578357D01*
X1152980Y65623200D01*
X1192264Y65683679D01*
X1223883Y65730211D01*
X1281902Y65814525D01*
X1350216Y65914374D01*
X1418421Y66014527D01*
X1454925Y66068373D01*
X1578200Y66250629D01*
X1495480Y66403619D01*
X1459241Y66473318D01*
X1431074Y66532586D01*
X1415009Y66572689D01*
X1412774Y66582897D01*
X1429278Y66595171D01*
X1475918Y66619387D01*
X1548391Y66653737D01*
X1642394Y66696412D01*
X1753626Y66745606D01*
X1877785Y66799510D01*
X2010568Y66856316D01*
X2147673Y66914218D01*
X2284798Y66971407D01*
X2417642Y67026076D01*
X2541902Y67076416D01*
X2653275Y67120620D01*
X2747461Y67156881D01*
X2820156Y67183391D01*
X2867059Y67198342D01*
X2883167Y67200746D01*
X2903714Y67181689D01*
X2937067Y67139964D01*
X2976298Y67084294D01*
X2979401Y67079622D01*
X3094577Y66935736D01*
X3228947Y66819717D01*
X3378216Y66732570D01*
X3538087Y66675301D01*
X3704263Y66648914D01*
X3872448Y66654415D01*
X4038345Y66692810D01*
X4197658Y66765105D01*
X4232513Y66786374D01*
X4373263Y66897004D01*
X4486286Y67027698D01*
X4570997Y67173936D01*
X4626806Y67331192D01*
X4653126Y67494943D01*
X4649370Y67660667D01*
X4614950Y67823838D01*
X4549277Y67979935D01*
X4451765Y68124433D01*
X4412187Y68169131D01*
X4288297Y68282888D01*
X4157876Y68365782D01*
X4011685Y68422644D01*
X3866912Y68454313D01*
X3704140Y68462131D01*
X3540560Y68436062D01*
X3381702Y68378755D01*
X3233094Y68292856D01*
X3100265Y68181014D01*
X2988744Y68045877D01*
X2976989Y68028117D01*
X2938492Y67971850D01*
X2905137Y67929077D01*
X2883840Y67908628D01*
X2883167Y67908331D01*
X2860129Y67912721D01*
X2807843Y67930124D01*
X2730610Y67958732D01*
X2632732Y67996735D01*
X2518509Y68042326D01*
X2392242Y68093697D01*
X2258233Y68149038D01*
X2120782Y68206542D01*
X1984192Y68264399D01*
X1852763Y68320802D01*
X1730795Y68373942D01*
X1622591Y68422010D01*
X1532451Y68463199D01*
X1464677Y68495699D01*
X1423570Y68517703D01*
X1412774Y68526564D01*
X1421181Y68553640D01*
X1443728Y68604303D01*
X1476387Y68669817D01*
X1495480Y68705841D01*
X1578200Y68858832D01*
X1454925Y69041088D01*
X1391772Y69134125D01*
X1322273Y69235985D01*
X1256835Y69331438D01*
X1223883Y69379250D01*
X1178727Y69446495D01*
X1142943Y69503436D01*
X1121062Y69542646D01*
X1116437Y69555381D01*
X1128915Y69573917D01*
X1163748Y69614941D01*
X1217322Y69674475D01*
X1286017Y69748542D01*
X1366219Y69833165D01*
X1417714Y69886685D01*
X1509714Y69980319D01*
X1592001Y70061241D01*
X1661055Y70126177D01*
X1713356Y70171858D01*
X1745384Y70195011D01*
X1751884Y70197232D01*
X1776606Y70186924D01*
X1826595Y70158439D01*
X1896788Y70114937D01*
X1982125Y70059577D01*
X2077544Y69995520D01*
X2104146Y69977303D01*
X2200833Y69910927D01*
X2287883Y69851378D01*
X2360405Y69801984D01*
X2413507Y69766075D01*
X2442297Y69746981D01*
X2445274Y69745136D01*
X2468218Y69747895D01*
X2518664Y69762538D01*
X2589959Y69786513D01*
X2675453Y69817266D01*
X2768493Y69852244D01*
X2862426Y69888893D01*
X2950601Y69924661D01*
X3026366Y69956994D01*
X3083069Y69983338D01*
X3114057Y70001142D01*
X3115543Y70002407D01*
X3124399Y70013294D01*
X3133157Y70031682D01*
X3142723Y70061606D01*
X3154004Y70107103D01*
X3167907Y70172209D01*
X3185337Y70260961D01*
X3207202Y70377393D01*
X3234409Y70525542D01*
X3240259Y70557618D01*
X3258626Y70652686D01*
X3276595Y70735565D01*
X3292431Y70798930D01*
X3304400Y70835458D01*
X3307190Y70840356D01*
X3331928Y70848427D01*
X3387210Y70854987D01*
X3466611Y70860033D01*
X3563704Y70863559D01*
X3672062Y70865561D01*
X3785260Y70866036D01*
X3896872Y70864977D01*
G36*
X3896872Y70864977D02*
G01*
X4000471Y70862382D01*
X4089632Y70858246D01*
X4157928Y70852563D01*
X4198934Y70845331D01*
X4207326Y70840971D01*
X4215792Y70816698D01*
X4229565Y70761426D01*
X4247450Y70680662D01*
X4268252Y70579912D01*
X4290777Y70464683D01*
X4302582Y70401902D01*
X4324849Y70282787D01*
X4345021Y70176565D01*
X4362085Y70088427D01*
X4375031Y70023566D01*
X4382845Y69987174D01*
X4384578Y69981184D01*
X4404110Y69971061D01*
X4451157Y69949662D01*
X4518997Y69919839D01*
X4600909Y69884445D01*
X4690172Y69846332D01*
X4780065Y69808353D01*
X4863865Y69773360D01*
X4934853Y69744206D01*
X4986306Y69723743D01*
X5011503Y69714823D01*
X5012604Y69714657D01*
X5032481Y69724769D01*
X5078223Y69753117D01*
X5145283Y69796723D01*
X5229116Y69852606D01*
X5325174Y69917787D01*
X5380350Y69955679D01*
X5481519Y70024725D01*
X5573370Y70086050D01*
X5651256Y70136663D01*
X5710531Y70173571D01*
X5746549Y70193782D01*
X5754623Y70196701D01*
X5773416Y70184153D01*
X5813543Y70149463D01*
X5870507Y70097063D01*
X5939815Y70031384D01*
X6016969Y69956856D01*
X6097475Y69877913D01*
X6176837Y69798983D01*
X6250560Y69724500D01*
X6314148Y69658894D01*
X6363106Y69606596D01*
X6392939Y69572039D01*
X6400058Y69560478D01*
X6390047Y69541654D01*
X6361922Y69496631D01*
X6318546Y69429787D01*
X6262782Y69345499D01*
X6197494Y69248144D01*
X6147754Y69174707D01*
X5895449Y68803667D01*
X6150445Y68185095D01*
X6595069Y68101275D01*
X7039693Y68017454D01*
X7039693Y67092006D01*
X6595069Y67008186D01*
X6150445Y66924365D01*
X6022947Y66615080D01*
X5895449Y66305794D01*
X6147754Y65934754D01*
X6218004Y65830843D01*
X6280728Y65736913D01*
X6333062Y65657348D01*
X6372143Y65596530D01*
X6395107Y65558843D01*
X6400058Y65548579D01*
X6387324Y65530090D01*
X6352118Y65490580D01*
X6298938Y65434478D01*
X6232282Y65366213D01*
X6156646Y65290214D01*
X6076528Y65210908D01*
X5996426Y65132725D01*
X5920836Y65060093D01*
X5854255Y64997441D01*
X5801182Y64949197D01*
X5766113Y64919790D01*
X5754377Y64912759D01*
X5732740Y64922877D01*
X5685338Y64951241D01*
X5616807Y64994871D01*
X5531785Y65050782D01*
X5434907Y65115994D01*
X5379650Y65153781D01*
X5278752Y65222657D01*
X5187701Y65283860D01*
X5111030Y65334422D01*
X5053272Y65371372D01*
X5018957Y65391742D01*
X5011746Y65394803D01*
X4991252Y65387864D01*
X4943487Y65368949D01*
X4875168Y65340913D01*
X4793011Y65306609D01*
X4703730Y65268891D01*
X4614042Y65230613D01*
X4530662Y65194630D01*
X4460306Y65163794D01*
X4409690Y65140961D01*
X4385529Y65128983D01*
X4384578Y65128276D01*
X4379964Y65109469D01*
X4369672Y65059382D01*
X4354713Y64983207D01*
X4336099Y64886135D01*
X4314841Y64773357D01*
X4302582Y64707558D01*
X4279638Y64587050D01*
X4257805Y64478203D01*
X4238278Y64386524D01*
X4222252Y64317519D01*
X4210921Y64276696D01*
X4207326Y64268489D01*
X4182994Y64260452D01*
X4128041Y64253967D01*
X4048892Y64249030D01*
X3951974Y64245636D01*
X3843713Y64243782D01*
X3730535Y64243462D01*
X3618865Y64244673D01*
X3515132Y64247410D01*
X3425759Y64251669D01*
X3357174Y64257445D01*
X3315803Y64264733D01*
X3307190Y64269105D01*
X3296867Y64295236D01*
X3282108Y64350607D01*
X3264648Y64427893D01*
X3246220Y64519770D01*
X3240259Y64551842D01*
X3211934Y64706476D01*
X3189124Y64828625D01*
X3170920Y64922327D01*
X3156417Y64991616D01*
X3144708Y65040529D01*
X3134885Y65073103D01*
X3126044Y65093372D01*
X3117276Y65105374D01*
X3115543Y65107053D01*
X3087629Y65123816D01*
X3033305Y65149386D01*
X2959223Y65181212D01*
X2872035Y65216740D01*
X2778392Y65253417D01*
X2684948Y65288689D01*
X2598353Y65320004D01*
X2525260Y65344807D01*
X2472322Y65360546D01*
X2446189Y65364668D01*
X2445274Y65364324D01*
X2423914Y65350359D01*
X2376916Y65318678D01*
X2309173Y65272609D01*
X2225577Y65215482D01*
X2131018Y65150627D01*
X2104146Y65132157D01*
X2006725Y65066301D01*
X1917837Y65008350D01*
X1842588Y64961462D01*
X1786080Y64928793D01*
X1753419Y64913500D01*
X1749407Y64912759D01*
X1728316Y64925608D01*
X1686536Y64961112D01*
X1628555Y65014707D01*
X1558865Y65081829D01*
X1481955Y65157913D01*
X1402317Y65238396D01*
X1324439Y65318713D01*
X1252814Y65394301D01*
X1191930Y65460595D01*
X1146279Y65513031D01*
X1120350Y65547045D01*
X1116117Y65556455D01*
X1126088Y65578357D01*
X1152980Y65623200D01*
X1192264Y65683679D01*
X1223883Y65730211D01*
X1281902Y65814525D01*
X1350216Y65914374D01*
X1418421Y66014527D01*
X1454925Y66068373D01*
X1578200Y66250629D01*
X1495480Y66403619D01*
X1459241Y66473318D01*
X1431074Y66532586D01*
X1415009Y66572689D01*
X1412774Y66582897D01*
X1429278Y66595171D01*
X1475918Y66619387D01*
X1548391Y66653737D01*
X1642394Y66696412D01*
X1753626Y66745606D01*
X1877785Y66799510D01*
X2010568Y66856316D01*
X2147673Y66914218D01*
X2284798Y66971407D01*
X2417642Y67026076D01*
X2541902Y67076416D01*
X2653275Y67120620D01*
X2747461Y67156881D01*
X2820156Y67183391D01*
X2867059Y67198342D01*
X2883167Y67200746D01*
X2903714Y67181689D01*
X2937067Y67139964D01*
X2976298Y67084294D01*
X2979401Y67079622D01*
X3094577Y66935736D01*
X3228947Y66819717D01*
X3378216Y66732570D01*
X3538087Y66675301D01*
X3704263Y66648914D01*
X3872448Y66654415D01*
X4038345Y66692810D01*
X4197658Y66765105D01*
X4232513Y66786374D01*
X4373263Y66897004D01*
X4486286Y67027698D01*
X4570997Y67173936D01*
X4626806Y67331192D01*
X4653126Y67494943D01*
X4649370Y67660667D01*
X4614950Y67823838D01*
X4549277Y67979935D01*
X4451765Y68124433D01*
X4412187Y68169131D01*
X4288297Y68282888D01*
X4157876Y68365782D01*
X4011685Y68422644D01*
X3866912Y68454313D01*
X3704140Y68462131D01*
X3540560Y68436062D01*
X3381702Y68378755D01*
X3233094Y68292856D01*
X3100265Y68181014D01*
X2988744Y68045877D01*
X2976989Y68028117D01*
X2938492Y67971850D01*
X2905137Y67929077D01*
X2883840Y67908628D01*
X2883167Y67908331D01*
X2860129Y67912721D01*
X2807843Y67930124D01*
X2730610Y67958732D01*
X2632732Y67996735D01*
X2518509Y68042326D01*
X2392242Y68093697D01*
X2258233Y68149038D01*
X2120782Y68206542D01*
X1984192Y68264399D01*
X1852763Y68320802D01*
X1730795Y68373942D01*
X1622591Y68422010D01*
X1532451Y68463199D01*
X1464677Y68495699D01*
X1423570Y68517703D01*
X1412774Y68526564D01*
X1421181Y68553640D01*
X1443728Y68604303D01*
X1476387Y68669817D01*
X1495480Y68705841D01*
X1578200Y68858832D01*
X1454925Y69041088D01*
X1391772Y69134125D01*
X1322273Y69235985D01*
X1256835Y69331438D01*
X1223883Y69379250D01*
X1178727Y69446495D01*
X1142943Y69503436D01*
X1121062Y69542646D01*
X1116437Y69555381D01*
X1128915Y69573917D01*
X1163748Y69614941D01*
X1217322Y69674475D01*
X1286017Y69748542D01*
X1366219Y69833165D01*
X1417714Y69886685D01*
X1509714Y69980319D01*
X1592001Y70061241D01*
X1661055Y70126177D01*
X1713356Y70171858D01*
X1745384Y70195011D01*
X1751884Y70197232D01*
X1776606Y70186924D01*
X1826595Y70158439D01*
X1896788Y70114937D01*
X1982125Y70059577D01*
X2077544Y69995520D01*
X2104146Y69977303D01*
X2200833Y69910927D01*
X2287883Y69851378D01*
X2360405Y69801984D01*
X2413507Y69766075D01*
X2442297Y69746981D01*
X2445274Y69745136D01*
X2468218Y69747895D01*
X2518664Y69762538D01*
X2589959Y69786513D01*
X2675453Y69817266D01*
X2768493Y69852244D01*
X2862426Y69888893D01*
X2950601Y69924661D01*
X3026366Y69956994D01*
X3083069Y69983338D01*
X3114057Y70001142D01*
X3115543Y70002407D01*
X3124399Y70013294D01*
X3133157Y70031682D01*
X3142723Y70061606D01*
X3154004Y70107103D01*
X3167907Y70172209D01*
X3185337Y70260961D01*
X3207202Y70377393D01*
X3234409Y70525542D01*
X3240259Y70557618D01*
X3258626Y70652686D01*
X3276595Y70735565D01*
X3292431Y70798930D01*
X3304400Y70835458D01*
X3307190Y70840356D01*
X3331928Y70848427D01*
X3387210Y70854987D01*
X3466611Y70860033D01*
X3563704Y70863559D01*
X3672062Y70865561D01*
X3785260Y70866036D01*
X3896872Y70864977D01*
G37*
D15*
%TO.C,J6*%
X61050000Y52271000D02*
X61050000Y51771000D01*
X61290000Y52031000D02*
X61290000Y51261000D01*
X61290000Y49681000D02*
X61290000Y48721000D01*
X61290000Y47141000D02*
X61290000Y46181000D01*
X61290000Y44601000D02*
X61290000Y43831000D01*
X61790000Y52271000D02*
X61050000Y52271000D01*
X61850000Y52031000D02*
X61850000Y51261000D01*
X61850000Y49681000D02*
X61850000Y48721000D01*
X61850000Y47141000D02*
X61850000Y46181000D01*
X61850000Y44601000D02*
X61850000Y43831000D01*
X67150000Y52031000D02*
X67150000Y43831000D01*
X67610000Y52031000D02*
X61290000Y52031000D01*
X67610000Y52031000D02*
X67610000Y43831000D01*
X67610000Y43831000D02*
X61290000Y43831000D01*
%TO.C,J4*%
X61050000Y76401000D02*
X61050000Y75901000D01*
X61290000Y76161000D02*
X61290000Y75391000D01*
X61290000Y73811000D02*
X61290000Y72851000D01*
X61290000Y71271000D02*
X61290000Y70311000D01*
X61290000Y68731000D02*
X61290000Y67961000D01*
X61790000Y76401000D02*
X61050000Y76401000D01*
X61850000Y76161000D02*
X61850000Y75391000D01*
X61850000Y73811000D02*
X61850000Y72851000D01*
X61850000Y71271000D02*
X61850000Y70311000D01*
X61850000Y68731000D02*
X61850000Y67961000D01*
X67150000Y76161000D02*
X67150000Y67961000D01*
X67610000Y76161000D02*
X61290000Y76161000D01*
X67610000Y76161000D02*
X67610000Y67961000D01*
X67610000Y67961000D02*
X61290000Y67961000D01*
%TO.C,J9*%
X61370000Y28010000D02*
X61370000Y22870000D01*
X61370000Y28010000D02*
X64030000Y28010000D01*
X61370000Y22870000D02*
X64030000Y22870000D01*
X62700000Y30610000D02*
X64030000Y30610000D01*
X64030000Y30610000D02*
X64030000Y29280000D01*
X64030000Y28010000D02*
X64030000Y22870000D01*
%TO.C,J10*%
X61370000Y21730000D02*
X62700000Y21730000D01*
X61370000Y20400000D02*
X61370000Y21730000D01*
X63970000Y21730000D02*
X66570000Y21730000D01*
X63970000Y19070000D02*
X63970000Y21730000D01*
X63970000Y19070000D02*
X66570000Y19070000D01*
X66570000Y19070000D02*
X66570000Y21730000D01*
%TO.C,J8*%
X61050000Y18108000D02*
X61050000Y17608000D01*
X61290000Y17868000D02*
X61290000Y17098000D01*
X61290000Y15518000D02*
X61290000Y14558000D01*
X61290000Y12978000D02*
X61290000Y12208000D01*
X61790000Y18108000D02*
X61050000Y18108000D01*
X61850000Y17868000D02*
X61850000Y17098000D01*
X61850000Y15518000D02*
X61850000Y14558000D01*
X61850000Y12978000D02*
X61850000Y12208000D01*
X67150000Y17868000D02*
X67150000Y12208000D01*
X67610000Y17868000D02*
X61290000Y17868000D01*
X67610000Y17868000D02*
X67610000Y12208000D01*
X67610000Y12208000D02*
X61290000Y12208000D01*
%TO.C,J7*%
X61050000Y40206000D02*
X61050000Y39706000D01*
X61290000Y39966000D02*
X61290000Y39196000D01*
X61290000Y37616000D02*
X61290000Y36656000D01*
X61290000Y35076000D02*
X61290000Y34116000D01*
X61290000Y32536000D02*
X61290000Y31766000D01*
X61790000Y40206000D02*
X61050000Y40206000D01*
X61850000Y39966000D02*
X61850000Y39196000D01*
X61850000Y37616000D02*
X61850000Y36656000D01*
X61850000Y35076000D02*
X61850000Y34116000D01*
X61850000Y32536000D02*
X61850000Y31766000D01*
X67150000Y39966000D02*
X67150000Y31766000D01*
X67610000Y39966000D02*
X61290000Y39966000D01*
X67610000Y39966000D02*
X67610000Y31766000D01*
X67610000Y31766000D02*
X61290000Y31766000D01*
D17*
%TO.C,D1*%
X48200000Y6267231D02*
X53200000Y6267231D01*
X48200000Y6067231D02*
X48200000Y6267231D01*
X48200000Y2767231D02*
X48200000Y4467231D01*
X48200000Y1267231D02*
X48200000Y1067231D01*
X48200000Y1067231D02*
X53200000Y1067231D01*
X53200000Y6267231D02*
X53200000Y6067231D01*
X53200000Y4567231D02*
X53200000Y3567231D01*
X53200000Y3567231D02*
X50600000Y1067231D01*
X53200000Y3567231D02*
X53200000Y2767231D01*
X53200000Y1067231D02*
X53200000Y1267231D01*
D18*
X53608182Y707769D02*
G75*
G02*
X53408182Y707769I-100000J0D01*
G01*
X53408182Y707769D02*
G75*
G02*
X53608182Y707769I100000J0D01*
G01*
D15*
%TO.C,J5*%
X61050000Y64336000D02*
X61050000Y63836000D01*
X61290000Y64096000D02*
X61290000Y63326000D01*
X61290000Y61746000D02*
X61290000Y60786000D01*
X61290000Y59206000D02*
X61290000Y58246000D01*
X61290000Y56666000D02*
X61290000Y55896000D01*
X61790000Y64336000D02*
X61050000Y64336000D01*
X61850000Y64096000D02*
X61850000Y63326000D01*
X61850000Y61746000D02*
X61850000Y60786000D01*
X61850000Y59206000D02*
X61850000Y58246000D01*
X61850000Y56666000D02*
X61850000Y55896000D01*
X67150000Y64096000D02*
X67150000Y55896000D01*
X67610000Y64096000D02*
X61290000Y64096000D01*
X67610000Y64096000D02*
X67610000Y55896000D01*
X67610000Y55896000D02*
X61290000Y55896000D01*
%TO.C,J3*%
X61050000Y88466000D02*
X61050000Y87966000D01*
X61290000Y88226000D02*
X61290000Y87456000D01*
X61290000Y85876000D02*
X61290000Y84916000D01*
X61290000Y83336000D02*
X61290000Y82376000D01*
X61290000Y80796000D02*
X61290000Y80026000D01*
X61790000Y88466000D02*
X61050000Y88466000D01*
X61850000Y88226000D02*
X61850000Y87456000D01*
X61850000Y85876000D02*
X61850000Y84916000D01*
X61850000Y83336000D02*
X61850000Y82376000D01*
X61850000Y80796000D02*
X61850000Y80026000D01*
X67150000Y88226000D02*
X67150000Y80026000D01*
X67610000Y88226000D02*
X61290000Y88226000D01*
X67610000Y88226000D02*
X67610000Y80026000D01*
X67610000Y80026000D02*
X61290000Y80026000D01*
%TD*%
M02*
