M48
; DRILL file {KiCad 8.0.5} date 2024-09-29T22:33:30-0400
; FORMAT={-:-/ absolute / inch / decimal}
; #@! TF.CreationDate,2024-09-29T22:33:30-04:00
; #@! TF.GenerationSoftware,Kicad,Pcbnew,8.0.5
; #@! TF.FileFunction,Plated,1,2,PTH
FMAT,2
INCH
; #@! TA.AperFunction,Plated,PTH,ViaDrill
T1C0.0079
; #@! TA.AperFunction,Plated,PTH,ViaDrill
T2C0.0157
; #@! TA.AperFunction,Plated,PTH,ViaDrill
T3C0.0236
; #@! TA.AperFunction,Plated,PTH,ComponentDrill
T4C0.0394
; #@! TA.AperFunction,Plated,PTH,ComponentDrill
T5C0.0433
%
G90
G05
T1
X0.2421Y0.6356
X0.2854Y0.7419
X0.2933Y0.86
X0.3209Y0.7419
X0.3366Y0.8285
X0.3366Y0.7695
X0.3839Y0.86
T2
X0.1398Y0.6533
X0.1476Y0.5254
X0.2894Y0.9289
X0.5079Y1.9528
X0.561Y0.862
X0.561Y0.7478
X0.561Y0.551
X0.9565Y0.2163
X1.5315Y0.0354
T3
X0.5118Y1.4685
X1.0Y1.1614
X2.1575Y3.5669
X2.1575Y3.3661
X2.1614Y3.0906
X2.1614Y2.8898
X2.1654Y2.6142
X2.1654Y2.4134
X2.1693Y2.1732
X2.1693Y1.9724
X2.1693Y1.7795
X2.1693Y1.5787
T4
X0.1417Y2.4193
X0.1417Y2.3193
X0.1417Y2.2193
X0.1417Y2.1193
X0.1417Y2.0193
X0.1417Y1.9193
X0.1417Y1.8193
X0.1417Y1.7193
X0.1417Y1.6193
X0.1417Y1.5193
X0.7869Y1.5669
X0.7869Y1.4669
X0.7869Y1.3669
X0.7869Y1.2669
X0.7869Y1.1669
X0.7869Y1.0669
X0.7869Y0.9669
X0.7869Y0.8669
X0.7869Y0.7669
X0.7869Y0.6669
X0.7869Y0.5669
X0.7869Y0.4669
X0.7869Y0.3669
X0.7869Y0.2669
X0.7869Y0.1669
X1.3869Y1.5669
X1.3869Y1.4669
X1.3869Y1.3669
X1.3869Y1.2669
X1.3869Y1.1669
X1.3869Y1.0669
X1.3869Y0.9669
X1.3869Y0.8669
X1.3869Y0.7669
X1.3869Y0.6669
X1.3869Y0.5669
X1.3869Y0.4669
X1.3869Y0.3669
X1.3869Y0.2669
X1.3869Y0.1669
X2.4685Y1.1528
X2.4685Y1.0528
X2.4685Y0.9528
X2.4685Y0.8031
X2.5685Y0.8031
T5
X2.5374Y3.412
X2.5374Y3.312
X2.5374Y3.212
X2.5374Y2.937
X2.5374Y2.837
X2.5374Y2.737
X2.5374Y2.462
X2.5374Y2.362
X2.5374Y2.262
X2.5374Y1.987
X2.5374Y1.887
X2.5374Y1.787
X2.5374Y1.512
X2.5374Y1.412
X2.5374Y1.312
X2.5374Y0.642
X2.5374Y0.542
M30
