%TF.GenerationSoftware,KiCad,Pcbnew,8.0.5*%
%TF.CreationDate,2024-09-29T22:33:27-04:00*%
%TF.ProjectId,BREAD_Slice,42524541-445f-4536-9c69-63652e6b6963,rev?*%
%TF.SameCoordinates,PX74eba40PY8552dc0*%
%TF.FileFunction,Copper,L1,Top*%
%TF.FilePolarity,Positive*%
%FSLAX46Y46*%
G04 Gerber Fmt 4.6, Leading zero omitted, Abs format (unit mm)*
G04 Created by KiCad (PCBNEW 8.0.5) date 2024-09-29 22:33:27*
%MOMM*%
%LPD*%
G01*
G04 APERTURE LIST*
G04 Aperture macros list*
%AMRoundRect*
0 Rectangle with rounded corners*
0 $1 Rounding radius*
0 $2 $3 $4 $5 $6 $7 $8 $9 X,Y pos of 4 corners*
0 Add a 4 corners polygon primitive as box body*
4,1,4,$2,$3,$4,$5,$6,$7,$8,$9,$2,$3,0*
0 Add four circle primitives for the rounded corners*
1,1,$1+$1,$2,$3*
1,1,$1+$1,$4,$5*
1,1,$1+$1,$6,$7*
1,1,$1+$1,$8,$9*
0 Add four rect primitives between the rounded corners*
20,1,$1+$1,$2,$3,$4,$5,0*
20,1,$1+$1,$4,$5,$6,$7,0*
20,1,$1+$1,$6,$7,$8,$9,0*
20,1,$1+$1,$8,$9,$2,$3,0*%
G04 Aperture macros list end*
%TA.AperFunction,ComponentPad*%
%ADD10R,1.600000X1.600000*%
%TD*%
%TA.AperFunction,ComponentPad*%
%ADD11O,1.600000X1.600000*%
%TD*%
%TA.AperFunction,ComponentPad*%
%ADD12R,1.700000X1.700000*%
%TD*%
%TA.AperFunction,ComponentPad*%
%ADD13O,1.700000X1.700000*%
%TD*%
%TA.AperFunction,SMDPad,CuDef*%
%ADD14RoundRect,1.000000X-5.000000X-5.000000X5.000000X-5.000000X5.000000X5.000000X-5.000000X5.000000X0*%
%TD*%
%TA.AperFunction,ComponentPad*%
%ADD15R,2.200000X2.200000*%
%TD*%
%TA.AperFunction,ComponentPad*%
%ADD16C,2.200000*%
%TD*%
%TA.AperFunction,SMDPad,CuDef*%
%ADD17R,1.651000X1.000000*%
%TD*%
%TA.AperFunction,ViaPad*%
%ADD18C,0.800000*%
%TD*%
%TA.AperFunction,ViaPad*%
%ADD19C,0.500000*%
%TD*%
%TA.AperFunction,ViaPad*%
%ADD20C,1.600000*%
%TD*%
%TA.AperFunction,Conductor*%
%ADD21C,1.500000*%
%TD*%
%TA.AperFunction,Conductor*%
%ADD22C,0.500000*%
%TD*%
%TA.AperFunction,Conductor*%
%ADD23C,1.000000*%
%TD*%
G04 APERTURE END LIST*
D10*
%TO.P,A1,1,D1/TX*%
%TO.N,unconnected-(A1-D1{slash}TX-Pad1)*%
X19988000Y39800000D03*
D11*
%TO.P,A1,2,D0/RX*%
%TO.N,unconnected-(A1-D0{slash}RX-Pad2)*%
X19988000Y37260000D03*
%TO.P,A1,3,~{RESET}*%
%TO.N,unconnected-(A1-~{RESET}-Pad3)*%
X19988000Y34720000D03*
%TO.P,A1,4,GND*%
%TO.N,GND*%
X19988000Y32180000D03*
%TO.P,A1,5,D2*%
%TO.N,/E_STOP*%
X19988000Y29640000D03*
%TO.P,A1,6,D3*%
%TO.N,/INT*%
X19988000Y27100000D03*
%TO.P,A1,7,D4*%
%TO.N,/SYNC*%
X19988000Y24560000D03*
%TO.P,A1,8,D5*%
%TO.N,/PWM2*%
X19988000Y22020000D03*
%TO.P,A1,9,D6*%
%TO.N,/PWM1*%
X19988000Y19480000D03*
%TO.P,A1,10,D7*%
%TO.N,/LED*%
X19988000Y16940000D03*
%TO.P,A1,11,D8*%
%TO.N,unconnected-(A1-D8-Pad11)*%
X19988000Y14400000D03*
%TO.P,A1,12,D9*%
%TO.N,/PWM3*%
X19988000Y11860000D03*
%TO.P,A1,13,D10*%
%TO.N,/PWM4*%
X19988000Y9320000D03*
%TO.P,A1,14,D11*%
%TO.N,/PWM5*%
X19988000Y6780000D03*
%TO.P,A1,15,D12*%
%TO.N,unconnected-(A1-D12-Pad15)*%
X19988000Y4240000D03*
%TO.P,A1,16,D13*%
%TO.N,unconnected-(A1-D13-Pad16)*%
X35228000Y4240000D03*
%TO.P,A1,17,3V3*%
%TO.N,unconnected-(A1-3V3-Pad17)*%
X35228000Y6780000D03*
%TO.P,A1,18,AREF*%
%TO.N,unconnected-(A1-AREF-Pad18)*%
X35228000Y9320000D03*
%TO.P,A1,19,A0*%
%TO.N,unconnected-(A1-A0-Pad19)*%
X35228000Y11860000D03*
%TO.P,A1,20,A1*%
%TO.N,unconnected-(A1-A1-Pad20)*%
X35228000Y14400000D03*
%TO.P,A1,21,A2*%
%TO.N,unconnected-(A1-A2-Pad21)*%
X35228000Y16940000D03*
%TO.P,A1,22,A3*%
%TO.N,unconnected-(A1-A3-Pad22)*%
X35228000Y19480000D03*
%TO.P,A1,23,A4*%
%TO.N,/I2C_DAT*%
X35228000Y22020000D03*
%TO.P,A1,24,A5*%
%TO.N,/I2C_CLK*%
X35228000Y24560000D03*
%TO.P,A1,25,A6*%
%TO.N,unconnected-(A1-A6-Pad25)*%
X35228000Y27100000D03*
%TO.P,A1,26,A7*%
%TO.N,unconnected-(A1-A7-Pad26)*%
X35228000Y29640000D03*
%TO.P,A1,27,+5V*%
%TO.N,+5V*%
X35228000Y32180000D03*
%TO.P,A1,28,~{RESET}*%
%TO.N,unconnected-(A1-~{RESET}-Pad28)*%
X35228000Y34720000D03*
%TO.P,A1,29,GND*%
%TO.N,GND*%
X35228000Y37260000D03*
%TO.P,A1,30,VIN*%
%TO.N,unconnected-(A1-VIN-Pad30)*%
X35228000Y39800000D03*
%TD*%
D12*
%TO.P,J2,1,Pin_1*%
%TO.N,GND*%
X3600000Y61450000D03*
D13*
%TO.P,J2,2,Pin_2*%
%TO.N,+12V*%
X3600000Y58910000D03*
%TO.P,J2,3,Pin_3*%
%TO.N,/I2C_CLK*%
X3600000Y56370000D03*
%TO.P,J2,4,Pin_4*%
%TO.N,/I2C_DAT*%
X3600000Y53830000D03*
%TO.P,J2,5,Pin_5*%
%TO.N,GND*%
X3600000Y51290000D03*
%TO.P,J2,6,Pin_6*%
%TO.N,/E_STOP*%
X3600000Y48750000D03*
%TO.P,J2,7,Pin_7*%
%TO.N,/INT*%
X3600000Y46210000D03*
%TO.P,J2,8,Pin_8*%
%TO.N,/SYNC*%
X3600000Y43670000D03*
%TO.P,J2,9,Pin_9*%
%TO.N,+12V*%
X3600000Y41130000D03*
%TO.P,J2,10,Pin_10*%
%TO.N,GND*%
X3600000Y38590000D03*
%TD*%
D14*
%TO.P,HS1,1*%
%TO.N,GND*%
X8750000Y18445000D03*
%TD*%
D15*
%TO.P,J6,1,Pin_1*%
%TO.N,/PWM4*%
X64450000Y50471000D03*
D16*
%TO.P,J6,2,Pin_2*%
%TO.N,/PWR*%
X64450000Y47931000D03*
%TO.P,J6,3,Pin_3*%
%TO.N,GND*%
X64450000Y45391000D03*
%TD*%
D15*
%TO.P,J4,1,Pin_1*%
%TO.N,/PWM2*%
X64450000Y74601000D03*
D16*
%TO.P,J4,2,Pin_2*%
%TO.N,/PWR*%
X64450000Y72061000D03*
%TO.P,J4,3,Pin_3*%
%TO.N,GND*%
X64450000Y69521000D03*
%TD*%
D12*
%TO.P,J9,1,Pin_1*%
%TO.N,+12V*%
X62700000Y29280000D03*
D13*
%TO.P,J9,2,Pin_2*%
%TO.N,/PWR*%
X62700000Y26740000D03*
%TO.P,J9,3,Pin_3*%
%TO.N,+5V*%
X62700000Y24200000D03*
%TD*%
D12*
%TO.P,J10,1,Pin_1*%
%TO.N,/PWR*%
X62700000Y20400000D03*
D13*
%TO.P,J10,2,Pin_2*%
%TO.N,/CSTM*%
X65240000Y20400000D03*
%TD*%
D15*
%TO.P,J8,1,Pin_1*%
%TO.N,/CSTM*%
X64450000Y16308000D03*
D16*
%TO.P,J8,2,Pin_2*%
%TO.N,GND*%
X64450000Y13768000D03*
%TD*%
D15*
%TO.P,J7,1,Pin_1*%
%TO.N,/PWM5*%
X64450000Y38406000D03*
D16*
%TO.P,J7,2,Pin_2*%
%TO.N,/PWR*%
X64450000Y35866000D03*
%TO.P,J7,3,Pin_3*%
%TO.N,GND*%
X64450000Y33326000D03*
%TD*%
D17*
%TO.P,D1,1,VDD*%
%TO.N,+5V*%
X48123000Y5267231D03*
%TO.P,D1,2,DOUT*%
%TO.N,unconnected-(D1-DOUT-Pad2)*%
X48123000Y2067231D03*
%TO.P,D1,3,VSS*%
%TO.N,GND*%
X53277000Y2067231D03*
%TO.P,D1,4,DIN*%
%TO.N,/LED*%
X53277000Y5267231D03*
%TD*%
D15*
%TO.P,J5,1,Pin_1*%
%TO.N,/PWM3*%
X64450000Y62536000D03*
D16*
%TO.P,J5,2,Pin_2*%
%TO.N,/PWR*%
X64450000Y59996000D03*
%TO.P,J5,3,Pin_3*%
%TO.N,GND*%
X64450000Y57456000D03*
%TD*%
D15*
%TO.P,J3,1,Pin_1*%
%TO.N,/PWM1*%
X64450000Y86666000D03*
D16*
%TO.P,J3,2,Pin_2*%
%TO.N,/PWR*%
X64450000Y84126000D03*
%TO.P,J3,3,Pin_3*%
%TO.N,GND*%
X64450000Y81586000D03*
%TD*%
D18*
%TO.N,GND*%
X14250000Y21895000D03*
X3750000Y13345000D03*
D19*
X7250000Y18845000D03*
D18*
X7350000Y23595000D03*
D19*
X8550000Y19545000D03*
X8550000Y21045000D03*
X7450000Y21845000D03*
D18*
X38900000Y900000D03*
D19*
X9750000Y21845000D03*
D18*
X3550000Y16595000D03*
X14250000Y13995000D03*
X14250000Y18995000D03*
D20*
X25400000Y29500000D03*
D19*
X8150000Y18845000D03*
X6150000Y16145000D03*
D20*
X13000000Y37300000D03*
D18*
%TO.N,+5V*%
X24295041Y5495041D03*
%TO.N,+12V*%
X12900000Y49600000D03*
D20*
%TO.N,/PWR*%
X54900000Y73400000D03*
X55000000Y66400000D03*
X55100000Y55200000D03*
X54800000Y90600000D03*
X55100000Y40100000D03*
X55100000Y50100000D03*
X54900000Y78500000D03*
X55100000Y45200000D03*
X54800000Y85500000D03*
X55000000Y61300000D03*
%TD*%
D21*
%TO.N,GND*%
X22720000Y32180000D02*
X25400000Y29500000D01*
X19988000Y32180000D02*
X14868000Y37300000D01*
X14868000Y37300000D02*
X13000000Y37300000D01*
D22*
X38900000Y900000D02*
X52109769Y900000D01*
X52109769Y900000D02*
X53277000Y2067231D01*
D21*
X19988000Y32180000D02*
X22720000Y32180000D01*
D22*
%TO.N,+5V*%
X24295041Y5495041D02*
X24404959Y5495041D01*
D21*
X62700000Y24200000D02*
X50100000Y24200000D01*
D22*
X27800000Y2100000D02*
X35500000Y2100000D01*
D21*
X42120000Y32180000D02*
X35228000Y32180000D01*
X50100000Y24200000D02*
X42120000Y32180000D01*
D22*
X24404959Y5495041D02*
X27800000Y2100000D01*
X38667231Y5267231D02*
X48123000Y5267231D01*
D21*
X35208000Y32180000D02*
X35228000Y32180000D01*
D22*
X35500000Y2100000D02*
X38667231Y5267231D01*
%TO.N,/LED*%
X19988000Y16940000D02*
X21688000Y15240000D01*
X51609769Y3600000D02*
X53277000Y5267231D01*
X35900000Y1200000D02*
X38300000Y3600000D01*
X38300000Y3600000D02*
X51609769Y3600000D01*
X21688000Y15240000D02*
X21688000Y6900000D01*
X27388000Y1200000D02*
X35900000Y1200000D01*
X21688000Y6900000D02*
X27388000Y1200000D01*
%TO.N,/I2C_CLK*%
X34240000Y24560000D02*
X31688000Y27112000D01*
X31688000Y31451950D02*
X20739950Y42400000D01*
X35228000Y24560000D02*
X34240000Y24560000D01*
X31688000Y27112000D02*
X31688000Y31451950D01*
X17600000Y42400000D02*
X3630000Y56370000D01*
X3630000Y56370000D02*
X3600000Y56370000D01*
X20739950Y42400000D02*
X17600000Y42400000D01*
%TO.N,/I2C_DAT*%
X30988000Y26260000D02*
X35228000Y22020000D01*
X30988000Y31162000D02*
X30988000Y26260000D01*
X20450000Y41700000D02*
X30988000Y31162000D01*
X3600000Y53830000D02*
X3600000Y53296000D01*
X15196000Y41700000D02*
X20450000Y41700000D01*
X3600000Y53296000D02*
X15196000Y41700000D01*
%TO.N,/SYNC*%
X12248000Y32300000D02*
X19988000Y24560000D01*
X8900100Y32300000D02*
X12248000Y32300000D01*
X5800000Y35400100D02*
X8900100Y32300000D01*
X3600000Y43670000D02*
X5800000Y41470000D01*
X5800000Y41470000D02*
X5800000Y35400100D01*
%TO.N,/E_STOP*%
X3600000Y48750000D02*
X4250000Y48750000D01*
X9480000Y33700000D02*
X15928000Y33700000D01*
X15928000Y33700000D02*
X19988000Y29640000D01*
X7200000Y45800000D02*
X7200000Y35980000D01*
X4250000Y48750000D02*
X7200000Y45800000D01*
X7200000Y35980000D02*
X9480000Y33700000D01*
D21*
%TO.N,+12V*%
X3594415Y58910000D02*
X1800000Y57115585D01*
X12900000Y49600000D02*
X31200000Y49600000D01*
X3600000Y58910000D02*
X3594415Y58910000D01*
X1800000Y57115585D02*
X1800000Y42924415D01*
D23*
X3600000Y58910000D02*
X3610000Y58900000D01*
D21*
X31200000Y49600000D02*
X51520000Y29280000D01*
X1800000Y42924415D02*
X3594415Y41130000D01*
X3594415Y41130000D02*
X3600000Y41130000D01*
X51520000Y29280000D02*
X62700000Y29280000D01*
D22*
%TO.N,/INT*%
X6500000Y43310000D02*
X6500000Y35690050D01*
X9190050Y33000000D02*
X14088000Y33000000D01*
X3600000Y46210000D02*
X6500000Y43310000D01*
X14088000Y33000000D02*
X19988000Y27100000D01*
X6500000Y35690050D02*
X9190050Y33000000D01*
D21*
%TO.N,/PWR*%
X55000000Y61300000D02*
X55000000Y66400000D01*
X55100000Y50100000D02*
X55100000Y55200000D01*
X54800000Y85500000D02*
X54800000Y90600000D01*
X54900000Y73400000D02*
X54900000Y78500000D01*
X55100000Y40100000D02*
X55100000Y45200000D01*
D22*
%TO.N,/PWM2*%
X19988000Y22020000D02*
X20068000Y22020000D01*
%TD*%
M02*
