%TF.GenerationSoftware,KiCad,Pcbnew,8.0.5*%
%TF.CreationDate,2024-09-29T22:33:28-04:00*%
%TF.ProjectId,BREAD_Slice,42524541-445f-4536-9c69-63652e6b6963,rev?*%
%TF.SameCoordinates,PX74eba40PY8552dc0*%
%TF.FileFunction,Soldermask,Top*%
%TF.FilePolarity,Negative*%
%FSLAX46Y46*%
G04 Gerber Fmt 4.6, Leading zero omitted, Abs format (unit mm)*
G04 Created by KiCad (PCBNEW 8.0.5) date 2024-09-29 22:33:28*
%MOMM*%
%LPD*%
G01*
G04 APERTURE LIST*
G04 Aperture macros list*
%AMRoundRect*
0 Rectangle with rounded corners*
0 $1 Rounding radius*
0 $2 $3 $4 $5 $6 $7 $8 $9 X,Y pos of 4 corners*
0 Add a 4 corners polygon primitive as box body*
4,1,4,$2,$3,$4,$5,$6,$7,$8,$9,$2,$3,0*
0 Add four circle primitives for the rounded corners*
1,1,$1+$1,$2,$3*
1,1,$1+$1,$4,$5*
1,1,$1+$1,$6,$7*
1,1,$1+$1,$8,$9*
0 Add four rect primitives between the rounded corners*
20,1,$1+$1,$2,$3,$4,$5,0*
20,1,$1+$1,$4,$5,$6,$7,0*
20,1,$1+$1,$6,$7,$8,$9,0*
20,1,$1+$1,$8,$9,$2,$3,0*%
G04 Aperture macros list end*
%ADD10C,5.100000*%
%ADD11RoundRect,0.050000X-0.800000X-0.800000X0.800000X-0.800000X0.800000X0.800000X-0.800000X0.800000X0*%
%ADD12O,1.700000X1.700000*%
%ADD13RoundRect,0.050000X-0.850000X-0.850000X0.850000X-0.850000X0.850000X0.850000X-0.850000X0.850000X0*%
%ADD14O,1.800000X1.800000*%
%ADD15RoundRect,1.008333X-5.041667X-5.041667X5.041667X-5.041667X5.041667X5.041667X-5.041667X5.041667X0*%
%ADD16C,1.200000*%
%ADD17RoundRect,0.050000X-1.100000X1.100000X-1.100000X-1.100000X1.100000X-1.100000X1.100000X1.100000X0*%
%ADD18C,2.300000*%
%ADD19RoundRect,0.050000X0.850000X-0.850000X0.850000X0.850000X-0.850000X0.850000X-0.850000X-0.850000X0*%
%ADD20RoundRect,0.101600X-0.825500X-0.500000X0.825500X-0.500000X0.825500X0.500000X-0.825500X0.500000X0*%
G04 APERTURE END LIST*
D10*
%TO.C,H1*%
X5000000Y95000000D03*
%TD*%
%TO.C,H3*%
X65000000Y95000000D03*
%TD*%
%TO.C,H2*%
X5000000Y5000000D03*
%TD*%
%TO.C,H4*%
X65000000Y5000000D03*
%TD*%
D11*
%TO.C,A1*%
X19988000Y39800000D03*
D12*
X19988000Y37260000D03*
X19988000Y34720000D03*
X19988000Y32180000D03*
X19988000Y29640000D03*
X19988000Y27100000D03*
X19988000Y24560000D03*
X19988000Y22020000D03*
X19988000Y19480000D03*
X19988000Y16940000D03*
X19988000Y14400000D03*
X19988000Y11860000D03*
X19988000Y9320000D03*
X19988000Y6780000D03*
X19988000Y4240000D03*
X35228000Y4240000D03*
X35228000Y6780000D03*
X35228000Y9320000D03*
X35228000Y11860000D03*
X35228000Y14400000D03*
X35228000Y16940000D03*
X35228000Y19480000D03*
X35228000Y22020000D03*
X35228000Y24560000D03*
X35228000Y27100000D03*
X35228000Y29640000D03*
X35228000Y32180000D03*
X35228000Y34720000D03*
X35228000Y37260000D03*
X35228000Y39800000D03*
%TD*%
D13*
%TO.C,J2*%
X3600000Y61450000D03*
D14*
X3600000Y58910000D03*
X3600000Y56370000D03*
X3600000Y53830000D03*
X3600000Y51290000D03*
X3600000Y48750000D03*
X3600000Y46210000D03*
X3600000Y43670000D03*
X3600000Y41130000D03*
X3600000Y38590000D03*
%TD*%
D15*
%TO.C,HS1*%
X8750000Y18445000D03*
%TD*%
D16*
%TO.C,J6*%
X61910000Y50471000D03*
X61910000Y47931000D03*
X61910000Y45391000D03*
D17*
X64450000Y50471000D03*
D18*
X64450000Y47931000D03*
X64450000Y45391000D03*
%TD*%
D16*
%TO.C,J4*%
X61910000Y74601000D03*
X61910000Y72061000D03*
X61910000Y69521000D03*
D17*
X64450000Y74601000D03*
D18*
X64450000Y72061000D03*
X64450000Y69521000D03*
%TD*%
D13*
%TO.C,J9*%
X62700000Y29280000D03*
D14*
X62700000Y26740000D03*
X62700000Y24200000D03*
%TD*%
D19*
%TO.C,J10*%
X62700000Y20400000D03*
D14*
X65240000Y20400000D03*
%TD*%
D16*
%TO.C,J8*%
X61910000Y16308000D03*
X61910000Y13768000D03*
D17*
X64450000Y16308000D03*
D18*
X64450000Y13768000D03*
%TD*%
D16*
%TO.C,J7*%
X61910000Y38406000D03*
X61910000Y35866000D03*
X61910000Y33326000D03*
D17*
X64450000Y38406000D03*
D18*
X64450000Y35866000D03*
X64450000Y33326000D03*
%TD*%
D20*
%TO.C,D1*%
X48123000Y5267231D03*
X48123000Y2067231D03*
X53277000Y2067231D03*
X53277000Y5267231D03*
%TD*%
D16*
%TO.C,J5*%
X61910000Y62536000D03*
X61910000Y59996000D03*
X61910000Y57456000D03*
D17*
X64450000Y62536000D03*
D18*
X64450000Y59996000D03*
X64450000Y57456000D03*
%TD*%
D16*
%TO.C,J3*%
X61910000Y86666000D03*
X61910000Y84126000D03*
X61910000Y81586000D03*
D17*
X64450000Y86666000D03*
D18*
X64450000Y84126000D03*
X64450000Y81586000D03*
%TD*%
M02*
