%TF.GenerationSoftware,KiCad,Pcbnew,8.0.5*%
%TF.CreationDate,2024-09-29T22:33:27-04:00*%
%TF.ProjectId,BREAD_Slice,42524541-445f-4536-9c69-63652e6b6963,rev?*%
%TF.SameCoordinates,PX74eba40PY8552dc0*%
%TF.FileFunction,Copper,L2,Bot*%
%TF.FilePolarity,Positive*%
%FSLAX46Y46*%
G04 Gerber Fmt 4.6, Leading zero omitted, Abs format (unit mm)*
G04 Created by KiCad (PCBNEW 8.0.5) date 2024-09-29 22:33:27*
%MOMM*%
%LPD*%
G01*
G04 APERTURE LIST*
G04 Aperture macros list*
%AMRoundRect*
0 Rectangle with rounded corners*
0 $1 Rounding radius*
0 $2 $3 $4 $5 $6 $7 $8 $9 X,Y pos of 4 corners*
0 Add a 4 corners polygon primitive as box body*
4,1,4,$2,$3,$4,$5,$6,$7,$8,$9,$2,$3,0*
0 Add four circle primitives for the rounded corners*
1,1,$1+$1,$2,$3*
1,1,$1+$1,$4,$5*
1,1,$1+$1,$6,$7*
1,1,$1+$1,$8,$9*
0 Add four rect primitives between the rounded corners*
20,1,$1+$1,$2,$3,$4,$5,0*
20,1,$1+$1,$4,$5,$6,$7,0*
20,1,$1+$1,$6,$7,$8,$9,0*
20,1,$1+$1,$8,$9,$2,$3,0*%
G04 Aperture macros list end*
%TA.AperFunction,ComponentPad*%
%ADD10R,1.600000X1.600000*%
%TD*%
%TA.AperFunction,ComponentPad*%
%ADD11O,1.600000X1.600000*%
%TD*%
%TA.AperFunction,ComponentPad*%
%ADD12R,1.700000X1.700000*%
%TD*%
%TA.AperFunction,ComponentPad*%
%ADD13O,1.700000X1.700000*%
%TD*%
%TA.AperFunction,ComponentPad*%
%ADD14R,2.200000X2.200000*%
%TD*%
%TA.AperFunction,ComponentPad*%
%ADD15C,2.200000*%
%TD*%
%TA.AperFunction,SMDPad,CuDef*%
%ADD16RoundRect,0.249999X-2.450001X0.737501X-2.450001X-0.737501X2.450001X-0.737501X2.450001X0.737501X0*%
%TD*%
%TA.AperFunction,SMDPad,CuDef*%
%ADD17RoundRect,0.150000X0.150000X0.625000X-0.150000X0.625000X-0.150000X-0.625000X0.150000X-0.625000X0*%
%TD*%
%TA.AperFunction,SMDPad,CuDef*%
%ADD18RoundRect,0.250000X0.350000X0.650000X-0.350000X0.650000X-0.350000X-0.650000X0.350000X-0.650000X0*%
%TD*%
%TA.AperFunction,SMDPad,CuDef*%
%ADD19RoundRect,0.250000X0.325000X0.650000X-0.325000X0.650000X-0.325000X-0.650000X0.325000X-0.650000X0*%
%TD*%
%TA.AperFunction,SMDPad,CuDef*%
%ADD20RoundRect,0.150000X-0.512500X-0.150000X0.512500X-0.150000X0.512500X0.150000X-0.512500X0.150000X0*%
%TD*%
%TA.AperFunction,SMDPad,CuDef*%
%ADD21RoundRect,0.250000X-0.325000X-0.650000X0.325000X-0.650000X0.325000X0.650000X-0.325000X0.650000X0*%
%TD*%
%TA.AperFunction,SMDPad,CuDef*%
%ADD22RoundRect,0.250000X-0.375000X-1.075000X0.375000X-1.075000X0.375000X1.075000X-0.375000X1.075000X0*%
%TD*%
%TA.AperFunction,ViaPad*%
%ADD23C,0.800000*%
%TD*%
%TA.AperFunction,ViaPad*%
%ADD24C,0.500000*%
%TD*%
%TA.AperFunction,ViaPad*%
%ADD25C,1.600000*%
%TD*%
%TA.AperFunction,Conductor*%
%ADD26C,1.500000*%
%TD*%
%TA.AperFunction,Conductor*%
%ADD27C,0.500000*%
%TD*%
%TA.AperFunction,Conductor*%
%ADD28C,1.000000*%
%TD*%
G04 APERTURE END LIST*
D10*
%TO.P,A1,1,D1/TX*%
%TO.N,unconnected-(A1-D1{slash}TX-Pad1)*%
X19988000Y39800000D03*
D11*
%TO.P,A1,2,D0/RX*%
%TO.N,unconnected-(A1-D0{slash}RX-Pad2)*%
X19988000Y37260000D03*
%TO.P,A1,3,~{RESET}*%
%TO.N,unconnected-(A1-~{RESET}-Pad3)*%
X19988000Y34720000D03*
%TO.P,A1,4,GND*%
%TO.N,GND*%
X19988000Y32180000D03*
%TO.P,A1,5,D2*%
%TO.N,/E_STOP*%
X19988000Y29640000D03*
%TO.P,A1,6,D3*%
%TO.N,/INT*%
X19988000Y27100000D03*
%TO.P,A1,7,D4*%
%TO.N,/SYNC*%
X19988000Y24560000D03*
%TO.P,A1,8,D5*%
%TO.N,/PWM2*%
X19988000Y22020000D03*
%TO.P,A1,9,D6*%
%TO.N,/PWM1*%
X19988000Y19480000D03*
%TO.P,A1,10,D7*%
%TO.N,/LED*%
X19988000Y16940000D03*
%TO.P,A1,11,D8*%
%TO.N,unconnected-(A1-D8-Pad11)*%
X19988000Y14400000D03*
%TO.P,A1,12,D9*%
%TO.N,/PWM3*%
X19988000Y11860000D03*
%TO.P,A1,13,D10*%
%TO.N,/PWM4*%
X19988000Y9320000D03*
%TO.P,A1,14,D11*%
%TO.N,/PWM5*%
X19988000Y6780000D03*
%TO.P,A1,15,D12*%
%TO.N,unconnected-(A1-D12-Pad15)*%
X19988000Y4240000D03*
%TO.P,A1,16,D13*%
%TO.N,unconnected-(A1-D13-Pad16)*%
X35228000Y4240000D03*
%TO.P,A1,17,3V3*%
%TO.N,unconnected-(A1-3V3-Pad17)*%
X35228000Y6780000D03*
%TO.P,A1,18,AREF*%
%TO.N,unconnected-(A1-AREF-Pad18)*%
X35228000Y9320000D03*
%TO.P,A1,19,A0*%
%TO.N,unconnected-(A1-A0-Pad19)*%
X35228000Y11860000D03*
%TO.P,A1,20,A1*%
%TO.N,unconnected-(A1-A1-Pad20)*%
X35228000Y14400000D03*
%TO.P,A1,21,A2*%
%TO.N,unconnected-(A1-A2-Pad21)*%
X35228000Y16940000D03*
%TO.P,A1,22,A3*%
%TO.N,unconnected-(A1-A3-Pad22)*%
X35228000Y19480000D03*
%TO.P,A1,23,A4*%
%TO.N,/I2C_DAT*%
X35228000Y22020000D03*
%TO.P,A1,24,A5*%
%TO.N,/I2C_CLK*%
X35228000Y24560000D03*
%TO.P,A1,25,A6*%
%TO.N,unconnected-(A1-A6-Pad25)*%
X35228000Y27100000D03*
%TO.P,A1,26,A7*%
%TO.N,unconnected-(A1-A7-Pad26)*%
X35228000Y29640000D03*
%TO.P,A1,27,+5V*%
%TO.N,+5V*%
X35228000Y32180000D03*
%TO.P,A1,28,~{RESET}*%
%TO.N,unconnected-(A1-~{RESET}-Pad28)*%
X35228000Y34720000D03*
%TO.P,A1,29,GND*%
%TO.N,GND*%
X35228000Y37260000D03*
%TO.P,A1,30,VIN*%
%TO.N,unconnected-(A1-VIN-Pad30)*%
X35228000Y39800000D03*
%TD*%
D12*
%TO.P,J2,1,Pin_1*%
%TO.N,GND*%
X3600000Y61450000D03*
D13*
%TO.P,J2,2,Pin_2*%
%TO.N,+12V*%
X3600000Y58910000D03*
%TO.P,J2,3,Pin_3*%
%TO.N,/I2C_CLK*%
X3600000Y56370000D03*
%TO.P,J2,4,Pin_4*%
%TO.N,/I2C_DAT*%
X3600000Y53830000D03*
%TO.P,J2,5,Pin_5*%
%TO.N,GND*%
X3600000Y51290000D03*
%TO.P,J2,6,Pin_6*%
%TO.N,/E_STOP*%
X3600000Y48750000D03*
%TO.P,J2,7,Pin_7*%
%TO.N,/INT*%
X3600000Y46210000D03*
%TO.P,J2,8,Pin_8*%
%TO.N,/SYNC*%
X3600000Y43670000D03*
%TO.P,J2,9,Pin_9*%
%TO.N,+12V*%
X3600000Y41130000D03*
%TO.P,J2,10,Pin_10*%
%TO.N,GND*%
X3600000Y38590000D03*
%TD*%
D14*
%TO.P,J6,1,Pin_1*%
%TO.N,/PWM4*%
X64450000Y50471000D03*
D15*
%TO.P,J6,2,Pin_2*%
%TO.N,/PWR*%
X64450000Y47931000D03*
%TO.P,J6,3,Pin_3*%
%TO.N,GND*%
X64450000Y45391000D03*
%TD*%
D14*
%TO.P,J4,1,Pin_1*%
%TO.N,/PWM2*%
X64450000Y74601000D03*
D15*
%TO.P,J4,2,Pin_2*%
%TO.N,/PWR*%
X64450000Y72061000D03*
%TO.P,J4,3,Pin_3*%
%TO.N,GND*%
X64450000Y69521000D03*
%TD*%
D12*
%TO.P,J9,1,Pin_1*%
%TO.N,+12V*%
X62700000Y29280000D03*
D13*
%TO.P,J9,2,Pin_2*%
%TO.N,/PWR*%
X62700000Y26740000D03*
%TO.P,J9,3,Pin_3*%
%TO.N,+5V*%
X62700000Y24200000D03*
%TD*%
D12*
%TO.P,J10,1,Pin_1*%
%TO.N,/PWR*%
X62700000Y20400000D03*
D13*
%TO.P,J10,2,Pin_2*%
%TO.N,/CSTM*%
X65240000Y20400000D03*
%TD*%
D14*
%TO.P,J8,1,Pin_1*%
%TO.N,/CSTM*%
X64450000Y16308000D03*
D15*
%TO.P,J8,2,Pin_2*%
%TO.N,GND*%
X64450000Y13768000D03*
%TD*%
D14*
%TO.P,J7,1,Pin_1*%
%TO.N,/PWM5*%
X64450000Y38406000D03*
D15*
%TO.P,J7,2,Pin_2*%
%TO.N,/PWR*%
X64450000Y35866000D03*
%TO.P,J7,3,Pin_3*%
%TO.N,GND*%
X64450000Y33326000D03*
%TD*%
D14*
%TO.P,J5,1,Pin_1*%
%TO.N,/PWM3*%
X64450000Y62536000D03*
D15*
%TO.P,J5,2,Pin_2*%
%TO.N,/PWR*%
X64450000Y59996000D03*
%TO.P,J5,3,Pin_3*%
%TO.N,GND*%
X64450000Y57456000D03*
%TD*%
D14*
%TO.P,J3,1,Pin_1*%
%TO.N,/PWM1*%
X64450000Y86666000D03*
D15*
%TO.P,J3,2,Pin_2*%
%TO.N,/PWR*%
X64450000Y84126000D03*
%TO.P,J3,3,Pin_3*%
%TO.N,GND*%
X64450000Y81586000D03*
%TD*%
D16*
%TO.P,C5,1*%
%TO.N,/PWR*%
X53800000Y17137500D03*
%TO.P,C5,2*%
%TO.N,GND*%
X53800000Y11862500D03*
%TD*%
D17*
%TO.P,J1,1,Pin_1*%
%TO.N,GND*%
X29098000Y5400000D03*
%TO.P,J1,2,Pin_2*%
%TO.N,+5V*%
X28098000Y5400000D03*
%TO.P,J1,3,Pin_3*%
%TO.N,/I2C_DAT*%
X27098000Y5400000D03*
%TO.P,J1,4,Pin_4*%
%TO.N,/I2C_CLK*%
X26098000Y5400000D03*
D18*
%TO.P,J1,MP*%
%TO.N,N/C*%
X30398000Y1525000D03*
X24798000Y1525000D03*
%TD*%
D19*
%TO.P,C1,1*%
%TO.N,GND*%
X7425000Y20345000D03*
%TO.P,C1,2*%
%TO.N,+12V*%
X4475000Y20345000D03*
%TD*%
D20*
%TO.P,U1,1,FB*%
%TO.N,+5V*%
X5012500Y16095000D03*
%TO.P,U1,2,EN*%
%TO.N,+12V*%
X5012500Y17045000D03*
%TO.P,U1,3,VIN*%
X5012500Y17995000D03*
%TO.P,U1,4,GND*%
%TO.N,GND*%
X7287500Y17995000D03*
%TO.P,U1,5,SW*%
%TO.N,Net-(U1-SW)*%
X7287500Y17045000D03*
%TO.P,U1,6,BST*%
%TO.N,Net-(U1-BST)*%
X7287500Y16095000D03*
%TD*%
D19*
%TO.P,C2,1*%
%TO.N,Net-(U1-SW)*%
X10025000Y13545000D03*
%TO.P,C2,2*%
%TO.N,Net-(U1-BST)*%
X7075000Y13545000D03*
%TD*%
D21*
%TO.P,C3,1*%
%TO.N,GND*%
X9775000Y20345000D03*
%TO.P,C3,2*%
%TO.N,+5V*%
X12725000Y20345000D03*
%TD*%
%TO.P,C4,1*%
%TO.N,GND*%
X9775000Y23345000D03*
%TO.P,C4,2*%
%TO.N,+5V*%
X12725000Y23345000D03*
%TD*%
D22*
%TO.P,L1,1*%
%TO.N,Net-(U1-SW)*%
X9850000Y17045000D03*
%TO.P,L1,2*%
%TO.N,+5V*%
X12650000Y17045000D03*
%TD*%
D23*
%TO.N,GND*%
X14250000Y21895000D03*
X3750000Y13345000D03*
D24*
X7250000Y18845000D03*
D23*
X7350000Y23595000D03*
D24*
X8550000Y19545000D03*
X8550000Y21045000D03*
X7450000Y21845000D03*
D23*
X38900000Y900000D03*
D24*
X9750000Y21845000D03*
D23*
X3550000Y16595000D03*
X14250000Y13995000D03*
X14250000Y18995000D03*
D25*
X25400000Y29500000D03*
D24*
X8150000Y18845000D03*
X6150000Y16145000D03*
D25*
X13000000Y37300000D03*
D23*
%TO.N,+5V*%
X24295041Y5495041D03*
%TO.N,+12V*%
X12900000Y49600000D03*
D25*
%TO.N,/PWR*%
X54900000Y73400000D03*
X55000000Y66400000D03*
X55100000Y55200000D03*
X54800000Y90600000D03*
X55100000Y40100000D03*
X55100000Y50100000D03*
X54900000Y78500000D03*
X55100000Y45200000D03*
X54800000Y85500000D03*
X55000000Y61300000D03*
%TD*%
D26*
%TO.N,GND*%
X64450000Y45391000D02*
X65720000Y45391000D01*
D27*
X7287500Y17995000D02*
X6200000Y17995000D01*
X8950000Y21845000D02*
X10650000Y21845000D01*
X6200000Y17995000D02*
X6150000Y17945000D01*
X9750000Y21845000D02*
X8950000Y21845000D01*
D26*
X66228000Y69521000D02*
X64450000Y69521000D01*
D27*
X6350000Y18845000D02*
X6150000Y18645000D01*
D26*
X69000000Y42111000D02*
X68955500Y42155500D01*
X69000000Y66700000D02*
X69000000Y66749000D01*
X66736000Y13768000D02*
X69000000Y16032000D01*
X69000000Y77000000D02*
X64450000Y81550000D01*
X64450000Y13768000D02*
X62482000Y11800000D01*
D27*
X8400000Y17995000D02*
X8550000Y18145000D01*
D26*
X65720000Y45391000D02*
X68955500Y42155500D01*
D27*
X7250000Y18032500D02*
X7287500Y17995000D01*
X7250000Y18845000D02*
X6350000Y18845000D01*
D26*
X69000000Y42200000D02*
X69000000Y77000000D01*
X69000000Y30046000D02*
X65720000Y33326000D01*
X64450000Y13768000D02*
X66736000Y13768000D01*
X65720000Y33326000D02*
X64450000Y33326000D01*
X62482000Y11800000D02*
X38600000Y11800000D01*
X69000000Y56000000D02*
X67544000Y57456000D01*
D27*
X8550000Y19245000D02*
X8150000Y18845000D01*
X6150000Y17945000D02*
X6150000Y16145000D01*
X8550000Y20345000D02*
X8550000Y19545000D01*
X8550000Y20345000D02*
X8550000Y21045000D01*
D26*
X7425000Y20345000D02*
X9775000Y20345000D01*
X67544000Y57456000D02*
X64450000Y57456000D01*
X69000000Y16032000D02*
X69000000Y30046000D01*
X69000000Y66749000D02*
X66228000Y69521000D01*
X64450000Y81550000D02*
X64450000Y81586000D01*
D27*
X8150000Y18845000D02*
X7250000Y18845000D01*
X6150000Y18645000D02*
X6150000Y17945000D01*
X8550000Y18145000D02*
X8550000Y19545000D01*
X8550000Y19545000D02*
X8550000Y19245000D01*
X7287500Y17995000D02*
X8400000Y17995000D01*
X7250000Y18845000D02*
X7250000Y18032500D01*
D26*
X68955500Y42155500D02*
X69000000Y42200000D01*
X69000000Y30046000D02*
X69000000Y42111000D01*
D27*
%TO.N,+5V*%
X24375275Y5495041D02*
X25695316Y4175000D01*
D26*
X24295041Y5495041D02*
X24500000Y5700000D01*
X12650000Y5130000D02*
X12650000Y12145000D01*
X15580000Y2200000D02*
X12650000Y5130000D01*
X21000000Y2200000D02*
X15580000Y2200000D01*
D27*
X25695316Y4175000D02*
X27647999Y4175000D01*
X12650000Y12145000D02*
X6503122Y12145000D01*
D26*
X12725000Y23345000D02*
X12700000Y23320000D01*
D27*
X5012500Y13635622D02*
X5012500Y16095000D01*
D26*
X12700000Y20320000D02*
X12700000Y17095000D01*
D27*
X28098000Y4625001D02*
X28098000Y5400000D01*
D26*
X24500000Y21452000D02*
X35228000Y32180000D01*
D27*
X24295041Y5495041D02*
X24375275Y5495041D01*
D26*
X12700000Y23320000D02*
X12700000Y20370000D01*
X12650000Y12145000D02*
X12650000Y17045000D01*
D27*
X27647999Y4175000D02*
X28098000Y4625001D01*
X6503122Y12145000D02*
X5012500Y13635622D01*
D28*
X12725000Y17120000D02*
X12650000Y17045000D01*
D26*
X24295041Y5495041D02*
X21000000Y2200000D01*
D27*
X35408000Y32000000D02*
X35228000Y32180000D01*
D26*
X12725000Y20345000D02*
X12700000Y20320000D01*
X24500000Y5700000D02*
X24500000Y21452000D01*
X12700000Y17095000D02*
X12650000Y17045000D01*
X12700000Y20370000D02*
X12725000Y20345000D01*
D27*
%TO.N,/I2C_CLK*%
X35168000Y24500000D02*
X29500000Y24500000D01*
X26098000Y21098000D02*
X26098000Y5400000D01*
X29500000Y24500000D02*
X26098000Y21098000D01*
X35228000Y24560000D02*
X35168000Y24500000D01*
%TO.N,/I2C_DAT*%
X27098000Y5400000D02*
X27098000Y20598000D01*
X27098000Y20598000D02*
X28500000Y22000000D01*
X35208000Y22000000D02*
X35228000Y22020000D01*
X28500000Y22000000D02*
X35208000Y22000000D01*
D28*
%TO.N,+12V*%
X4110000Y58910000D02*
X3600000Y58910000D01*
D26*
X8740000Y45440000D02*
X8740000Y45400000D01*
D28*
X5012500Y17995000D02*
X5012500Y17095000D01*
X4475000Y18532500D02*
X5012500Y17995000D01*
X4475000Y20345000D02*
X4475000Y18532500D01*
D26*
X4470000Y41130000D02*
X5600000Y40000000D01*
X5600000Y21470000D02*
X4475000Y20345000D01*
X12900000Y49600000D02*
X8740000Y45440000D01*
X5600000Y40000000D02*
X5600000Y21470000D01*
X3600000Y41130000D02*
X4470000Y41130000D01*
X8740000Y45400000D02*
X4470000Y41130000D01*
D27*
%TO.N,unconnected-(A1-D12-Pad15)*%
X19988000Y4420100D02*
X19988000Y4240000D01*
D28*
%TO.N,Net-(U1-SW)*%
X9850000Y13720000D02*
X10025000Y13545000D01*
X9850000Y17045000D02*
X8206238Y17045000D01*
X9850000Y17045000D02*
X9850000Y13720000D01*
D27*
%TO.N,Net-(U1-BST)*%
X7075000Y15882500D02*
X7287500Y16095000D01*
X7075000Y13545000D02*
X7075000Y15882500D01*
D26*
%TO.N,unconnected-(A1-VIN-Pad30)*%
X35245000Y39783000D02*
X35228000Y39800000D01*
D27*
%TO.N,/PWM1*%
X62816000Y88300000D02*
X54602944Y88300000D01*
X64450000Y86666000D02*
X62816000Y88300000D01*
X54602944Y88300000D02*
X15100000Y48797056D01*
X15100000Y48797056D02*
X15100000Y24368000D01*
X15100000Y24368000D02*
X19988000Y19480000D01*
%TO.N,/PWM2*%
X16000000Y26008000D02*
X16000000Y47800000D01*
X62651000Y76400000D02*
X64450000Y74601000D01*
X44600000Y76400000D02*
X62651000Y76400000D01*
X16000000Y47800000D02*
X44600000Y76400000D01*
X19988000Y22020000D02*
X16000000Y26008000D01*
%TO.N,/PWM3*%
X55000000Y64400000D02*
X62586000Y64400000D01*
X21238000Y13110000D02*
X19988000Y11860000D01*
X55000000Y64400000D02*
X21238000Y30638000D01*
X62586000Y64400000D02*
X64450000Y62536000D01*
X21238000Y30638000D02*
X21238000Y13110000D01*
%TO.N,/PWM4*%
X44189950Y52600000D02*
X22000000Y30410050D01*
X22000000Y30410050D02*
X22000000Y11332000D01*
X62321000Y52600000D02*
X44189950Y52600000D01*
X22000000Y11332000D02*
X19988000Y9320000D01*
X64450000Y50471000D02*
X62321000Y52600000D01*
%TO.N,/PWM5*%
X22700000Y9492000D02*
X19988000Y6780000D01*
X64450000Y38406000D02*
X60256000Y42600000D01*
X60256000Y42600000D02*
X35179900Y42600000D01*
X35179900Y42600000D02*
X22700000Y30120100D01*
X22700000Y30120100D02*
X22700000Y9492000D01*
D26*
%TO.N,/CSTM*%
X64450000Y16308000D02*
X65240000Y17098000D01*
X65240000Y17098000D02*
X65240000Y20400000D01*
%TD*%
%TA.AperFunction,Conductor*%
%TO.N,GND*%
G36*
X40043039Y97904815D02*
G01*
X40088794Y97852011D01*
X40100000Y97800500D01*
X40100000Y74909787D01*
X40080315Y74842748D01*
X40063681Y74822106D01*
X14517050Y49275476D01*
X14517044Y49275468D01*
X14467812Y49201788D01*
X14467813Y49201787D01*
X14434921Y49152560D01*
X14434914Y49152548D01*
X14378342Y49015970D01*
X14378340Y49015964D01*
X14349500Y48870977D01*
X14349500Y48870974D01*
X14349500Y24294082D01*
X14349500Y24294080D01*
X14349499Y24294080D01*
X14378340Y24149093D01*
X14378343Y24149083D01*
X14434914Y24012508D01*
X14434915Y24012506D01*
X14434916Y24012505D01*
X14459705Y23975405D01*
X14467812Y23963273D01*
X14467813Y23963270D01*
X14517046Y23889586D01*
X14517052Y23889579D01*
X18661282Y19745350D01*
X18694767Y19684027D01*
X18697129Y19646863D01*
X18682532Y19480004D01*
X18682532Y19479999D01*
X18702364Y19253314D01*
X18702366Y19253303D01*
X18761258Y19033512D01*
X18761261Y19033503D01*
X18857431Y18827268D01*
X18857432Y18827266D01*
X18987954Y18640859D01*
X19148858Y18479955D01*
X19148861Y18479953D01*
X19335266Y18349432D01*
X19393275Y18322382D01*
X19445714Y18276209D01*
X19464866Y18209016D01*
X19444650Y18142135D01*
X19393275Y18097618D01*
X19335267Y18070569D01*
X19335265Y18070568D01*
X19148858Y17940046D01*
X18987954Y17779142D01*
X18857432Y17592735D01*
X18857431Y17592733D01*
X18761261Y17386498D01*
X18761258Y17386489D01*
X18702366Y17166698D01*
X18702364Y17166687D01*
X18682532Y16940002D01*
X18682532Y16939999D01*
X18702364Y16713314D01*
X18702366Y16713303D01*
X18761258Y16493512D01*
X18761261Y16493503D01*
X18857431Y16287268D01*
X18857432Y16287266D01*
X18987954Y16100859D01*
X19148858Y15939955D01*
X19177370Y15919991D01*
X19335266Y15809432D01*
X19393275Y15782382D01*
X19445714Y15736209D01*
X19464866Y15669016D01*
X19444650Y15602135D01*
X19393275Y15557619D01*
X19376272Y15549690D01*
X19335267Y15530569D01*
X19335265Y15530568D01*
X19148858Y15400046D01*
X18987954Y15239142D01*
X18857432Y15052735D01*
X18857431Y15052733D01*
X18761261Y14846498D01*
X18761258Y14846489D01*
X18702366Y14626698D01*
X18702364Y14626687D01*
X18682532Y14400002D01*
X18682532Y14399999D01*
X18702364Y14173314D01*
X18702366Y14173303D01*
X18761258Y13953512D01*
X18761261Y13953503D01*
X18857431Y13747268D01*
X18857432Y13747266D01*
X18987954Y13560859D01*
X19148858Y13399955D01*
X19148861Y13399953D01*
X19335266Y13269432D01*
X19393275Y13242382D01*
X19445714Y13196209D01*
X19464866Y13129016D01*
X19444650Y13062135D01*
X19393275Y13017618D01*
X19335267Y12990569D01*
X19335265Y12990568D01*
X19148858Y12860046D01*
X18987954Y12699142D01*
X18857432Y12512735D01*
X18857431Y12512733D01*
X18761261Y12306498D01*
X18761258Y12306489D01*
X18702366Y12086698D01*
X18702364Y12086687D01*
X18682532Y11860002D01*
X18682532Y11859999D01*
X18702364Y11633314D01*
X18702366Y11633303D01*
X18761258Y11413512D01*
X18761261Y11413503D01*
X18857431Y11207268D01*
X18857432Y11207266D01*
X18987954Y11020859D01*
X19148858Y10859955D01*
X19148861Y10859953D01*
X19335266Y10729432D01*
X19393275Y10702382D01*
X19445714Y10656209D01*
X19464866Y10589016D01*
X19444650Y10522135D01*
X19393275Y10477618D01*
X19335267Y10450569D01*
X19335265Y10450568D01*
X19148858Y10320046D01*
X18987954Y10159142D01*
X18857432Y9972735D01*
X18857431Y9972733D01*
X18761261Y9766498D01*
X18761258Y9766489D01*
X18702366Y9546698D01*
X18702364Y9546687D01*
X18682532Y9320002D01*
X18682532Y9319999D01*
X18702364Y9093314D01*
X18702366Y9093303D01*
X18761258Y8873512D01*
X18761261Y8873503D01*
X18857431Y8667268D01*
X18857432Y8667266D01*
X18987954Y8480859D01*
X19148858Y8319955D01*
X19148861Y8319953D01*
X19335266Y8189432D01*
X19393275Y8162382D01*
X19445714Y8116209D01*
X19464866Y8049016D01*
X19444650Y7982135D01*
X19393275Y7937618D01*
X19335267Y7910569D01*
X19335265Y7910568D01*
X19148858Y7780046D01*
X18987954Y7619142D01*
X18857432Y7432735D01*
X18857431Y7432733D01*
X18761261Y7226498D01*
X18761258Y7226489D01*
X18702366Y7006698D01*
X18702364Y7006687D01*
X18682532Y6780002D01*
X18682532Y6779999D01*
X18702364Y6553314D01*
X18702366Y6553303D01*
X18761258Y6333512D01*
X18761261Y6333503D01*
X18857431Y6127268D01*
X18857432Y6127266D01*
X18987954Y5940859D01*
X19148858Y5779955D01*
X19148861Y5779953D01*
X19335266Y5649432D01*
X19393275Y5622382D01*
X19445714Y5576209D01*
X19464866Y5509016D01*
X19444650Y5442135D01*
X19393275Y5397618D01*
X19335267Y5370569D01*
X19335265Y5370568D01*
X19148858Y5240046D01*
X18987954Y5079142D01*
X18857432Y4892735D01*
X18857431Y4892733D01*
X18761261Y4686498D01*
X18761258Y4686489D01*
X18702366Y4466698D01*
X18702364Y4466687D01*
X18682532Y4240002D01*
X18682532Y4239999D01*
X18702364Y4013314D01*
X18702366Y4013303D01*
X18761258Y3793512D01*
X18761260Y3793508D01*
X18761261Y3793504D01*
X18838948Y3626905D01*
X18849440Y3557827D01*
X18820920Y3494043D01*
X18762444Y3455804D01*
X18726566Y3450500D01*
X16149337Y3450500D01*
X16082298Y3470185D01*
X16061656Y3486819D01*
X13936819Y5611656D01*
X13903334Y5672979D01*
X13900500Y5699337D01*
X13900500Y16723415D01*
X13906569Y16761734D01*
X13919709Y16802174D01*
X13950500Y16996579D01*
X13950500Y20078980D01*
X13952027Y20098378D01*
X13975500Y20246578D01*
X13975500Y20443422D01*
X13952027Y20591622D01*
X13950500Y20611020D01*
X13950500Y23078980D01*
X13952027Y23098378D01*
X13975500Y23246578D01*
X13975500Y23443422D01*
X13957042Y23559955D01*
X13944709Y23637826D01*
X13883883Y23825026D01*
X13814014Y23962154D01*
X13800499Y24018448D01*
X13800499Y24045002D01*
X13800498Y24045019D01*
X13789999Y24147797D01*
X13789998Y24147800D01*
X13789570Y24149093D01*
X13734814Y24314334D01*
X13642712Y24463656D01*
X13518656Y24587712D01*
X13369334Y24679814D01*
X13202797Y24734999D01*
X13202795Y24735000D01*
X13100010Y24745500D01*
X12349998Y24745500D01*
X12349980Y24745499D01*
X12247203Y24735000D01*
X12247200Y24734999D01*
X12080668Y24679815D01*
X12080663Y24679813D01*
X11931342Y24587711D01*
X11807289Y24463658D01*
X11715187Y24314337D01*
X11715185Y24314332D01*
X11715115Y24314120D01*
X11660001Y24147797D01*
X11660001Y24147796D01*
X11660000Y24147796D01*
X11649500Y24045017D01*
X11649500Y24041421D01*
X11632180Y23980004D01*
X11632688Y23979745D01*
X11631389Y23977197D01*
X11631232Y23976638D01*
X11630477Y23975407D01*
X11541117Y23800031D01*
X11524699Y23749499D01*
X11480290Y23612827D01*
X11449500Y23418423D01*
X11449500Y17416586D01*
X11443431Y17378267D01*
X11430290Y17337827D01*
X11399500Y17143423D01*
X11399500Y13019500D01*
X11379815Y12952461D01*
X11327011Y12906706D01*
X11275500Y12895500D01*
X11224500Y12895500D01*
X11157461Y12915185D01*
X11111706Y12967989D01*
X11100500Y13019500D01*
X11100499Y14245002D01*
X11100498Y14245019D01*
X11089999Y14347797D01*
X11089998Y14347800D01*
X11072701Y14399999D01*
X11034814Y14514334D01*
X10942712Y14663656D01*
X10886819Y14719549D01*
X10853334Y14780872D01*
X10850500Y14807230D01*
X10850500Y15519337D01*
X10868962Y15584434D01*
X10909809Y15650658D01*
X10909808Y15650658D01*
X10909814Y15650666D01*
X10964999Y15817203D01*
X10975500Y15919991D01*
X10975499Y18170008D01*
X10964999Y18272797D01*
X10909814Y18439334D01*
X10817712Y18588656D01*
X10693656Y18712712D01*
X10564945Y18792101D01*
X10544336Y18804813D01*
X10544335Y18804814D01*
X10544334Y18804814D01*
X10544328Y18804816D01*
X10498221Y18820095D01*
X10440777Y18859868D01*
X10413955Y18924384D01*
X10426271Y18993160D01*
X10472131Y19043339D01*
X10568343Y19102683D01*
X10692315Y19226655D01*
X10784356Y19375876D01*
X10784358Y19375881D01*
X10839505Y19542303D01*
X10839506Y19542310D01*
X10849999Y19645014D01*
X10850000Y19645027D01*
X10850000Y20095000D01*
X9649000Y20095000D01*
X9581961Y20114685D01*
X9536206Y20167489D01*
X9525000Y20219000D01*
X9525000Y20471000D01*
X9544685Y20538039D01*
X9597489Y20583794D01*
X9649000Y20595000D01*
X10849999Y20595000D01*
X10849999Y21044972D01*
X10849998Y21044987D01*
X10839505Y21147698D01*
X10784358Y21314120D01*
X10784356Y21314125D01*
X10692315Y21463346D01*
X10568345Y21587316D01*
X10419124Y21679357D01*
X10419119Y21679359D01*
X10274460Y21727294D01*
X10217015Y21767067D01*
X10190192Y21831583D01*
X10202507Y21900358D01*
X10250050Y21951558D01*
X10274460Y21962706D01*
X10419119Y22010642D01*
X10419124Y22010644D01*
X10568345Y22102685D01*
X10692315Y22226655D01*
X10784356Y22375876D01*
X10784358Y22375881D01*
X10839505Y22542303D01*
X10839506Y22542310D01*
X10849999Y22645014D01*
X10850000Y22645027D01*
X10850000Y23095000D01*
X8700001Y23095000D01*
X8700001Y22645014D01*
X8710494Y22542303D01*
X8765641Y22375881D01*
X8765643Y22375876D01*
X8857684Y22226655D01*
X8981654Y22102685D01*
X9130875Y22010644D01*
X9130880Y22010642D01*
X9275539Y21962707D01*
X9332984Y21922935D01*
X9359807Y21858419D01*
X9347492Y21789643D01*
X9299949Y21738443D01*
X9275540Y21727295D01*
X9130878Y21679358D01*
X9130875Y21679357D01*
X8981654Y21587316D01*
X8857684Y21463346D01*
X8765643Y21314125D01*
X8765641Y21314120D01*
X8717706Y21169461D01*
X8677933Y21112016D01*
X8613417Y21085193D01*
X8544641Y21097508D01*
X8493442Y21145051D01*
X8482294Y21169461D01*
X8434358Y21314120D01*
X8434356Y21314125D01*
X8342315Y21463346D01*
X8218345Y21587316D01*
X8069124Y21679357D01*
X8069119Y21679359D01*
X7902697Y21734506D01*
X7902690Y21734507D01*
X7799986Y21745000D01*
X7675000Y21745000D01*
X7675000Y20219000D01*
X7655315Y20151961D01*
X7602511Y20106206D01*
X7551000Y20095000D01*
X7299000Y20095000D01*
X7231961Y20114685D01*
X7186206Y20167489D01*
X7175000Y20219000D01*
X7175000Y21745000D01*
X7050027Y21745000D01*
X7050009Y21744999D01*
X6987101Y21738572D01*
X6918408Y21751342D01*
X6867524Y21799223D01*
X6850500Y21861930D01*
X6850500Y24044987D01*
X8700000Y24044987D01*
X8700000Y23595000D01*
X9525000Y23595000D01*
X10025000Y23595000D01*
X10849999Y23595000D01*
X10849999Y24044972D01*
X10849998Y24044987D01*
X10839505Y24147698D01*
X10784358Y24314120D01*
X10784356Y24314125D01*
X10692315Y24463346D01*
X10568345Y24587316D01*
X10419124Y24679357D01*
X10419119Y24679359D01*
X10252697Y24734506D01*
X10252690Y24734507D01*
X10149986Y24745000D01*
X10025000Y24745000D01*
X10025000Y23595000D01*
X9525000Y23595000D01*
X9525000Y24745000D01*
X9400027Y24745000D01*
X9400012Y24744999D01*
X9297302Y24734506D01*
X9130880Y24679359D01*
X9130875Y24679357D01*
X8981654Y24587316D01*
X8857684Y24463346D01*
X8765643Y24314125D01*
X8765641Y24314120D01*
X8710494Y24147698D01*
X8710493Y24147691D01*
X8700000Y24044987D01*
X6850500Y24044987D01*
X6850500Y40098423D01*
X6819709Y40292827D01*
X6767936Y40452166D01*
X6758884Y40480025D01*
X6758882Y40480028D01*
X6758882Y40480030D01*
X6711743Y40572545D01*
X6669524Y40655405D01*
X6553828Y40814646D01*
X6414646Y40953828D01*
X6326155Y41042319D01*
X6292670Y41103642D01*
X6297654Y41173334D01*
X6326155Y41217681D01*
X7927387Y42818913D01*
X9693828Y44585354D01*
X9794374Y44723745D01*
X9806999Y44738527D01*
X13853828Y48785354D01*
X13969523Y48944594D01*
X14058883Y49119974D01*
X14119709Y49307173D01*
X14138819Y49427831D01*
X14150500Y49501578D01*
X14150500Y49698422D01*
X14133704Y49804458D01*
X14119709Y49892826D01*
X14058883Y50080026D01*
X14058881Y50080029D01*
X14058881Y50080031D01*
X13969522Y50255406D01*
X13853828Y50414645D01*
X13714645Y50553828D01*
X13555405Y50669523D01*
X13380030Y50758882D01*
X13335117Y50773475D01*
X13192826Y50819709D01*
X13192820Y50819710D01*
X12998421Y50850500D01*
X12998416Y50850500D01*
X12801583Y50850500D01*
X12801578Y50850500D01*
X12607178Y50819710D01*
X12607176Y50819710D01*
X12607173Y50819709D01*
X12515740Y50790000D01*
X12419969Y50758882D01*
X12244593Y50669523D01*
X12166427Y50612731D01*
X12085354Y50553828D01*
X12085352Y50553826D01*
X12085351Y50553826D01*
X7786171Y46254646D01*
X7685626Y46116260D01*
X7672990Y46101466D01*
X5166689Y43595165D01*
X5105366Y43561680D01*
X5035674Y43566664D01*
X4979741Y43608536D01*
X4955480Y43672037D01*
X4935063Y43905408D01*
X4873903Y44133663D01*
X4774035Y44347829D01*
X4638495Y44541401D01*
X4638494Y44541403D01*
X4471402Y44708494D01*
X4471396Y44708499D01*
X4285842Y44838425D01*
X4242217Y44893002D01*
X4235023Y44962500D01*
X4266546Y45024855D01*
X4285842Y45041575D01*
X4308026Y45057109D01*
X4471401Y45171505D01*
X4638495Y45338599D01*
X4774035Y45532170D01*
X4873903Y45746337D01*
X4935063Y45974592D01*
X4955659Y46210000D01*
X4935063Y46445408D01*
X4873903Y46673663D01*
X4774035Y46887829D01*
X4638495Y47081401D01*
X4638494Y47081403D01*
X4471402Y47248494D01*
X4471396Y47248499D01*
X4285842Y47378425D01*
X4242217Y47433002D01*
X4235023Y47502500D01*
X4266546Y47564855D01*
X4285842Y47581575D01*
X4308026Y47597109D01*
X4471401Y47711505D01*
X4638495Y47878599D01*
X4774035Y48072170D01*
X4873903Y48286337D01*
X4935063Y48514592D01*
X4955659Y48750000D01*
X4935063Y48985408D01*
X4873903Y49213663D01*
X4774035Y49427829D01*
X4722393Y49501583D01*
X4638494Y49621403D01*
X4471402Y49788494D01*
X4471401Y49788495D01*
X4285405Y49918731D01*
X4241781Y49973308D01*
X4234588Y50042807D01*
X4266110Y50105161D01*
X4285405Y50121881D01*
X4471082Y50251895D01*
X4638105Y50418918D01*
X4773600Y50612422D01*
X4873429Y50826508D01*
X4873432Y50826514D01*
X4930636Y51040000D01*
X4033012Y51040000D01*
X4065925Y51097007D01*
X4100000Y51224174D01*
X4100000Y51355826D01*
X4065925Y51482993D01*
X4033012Y51540000D01*
X4930636Y51540000D01*
X4930635Y51540001D01*
X4873432Y51753487D01*
X4873429Y51753493D01*
X4773600Y51967578D01*
X4773599Y51967580D01*
X4638113Y52161074D01*
X4638108Y52161080D01*
X4471078Y52328110D01*
X4285405Y52458121D01*
X4241780Y52512698D01*
X4234588Y52582196D01*
X4266110Y52644551D01*
X4285406Y52661270D01*
X4303468Y52673917D01*
X4471401Y52791505D01*
X4638495Y52958599D01*
X4774035Y53152170D01*
X4873903Y53366337D01*
X4935063Y53594592D01*
X4955659Y53830000D01*
X4935063Y54065408D01*
X4873903Y54293663D01*
X4774035Y54507829D01*
X4638495Y54701401D01*
X4638494Y54701403D01*
X4471402Y54868494D01*
X4471396Y54868499D01*
X4285842Y54998425D01*
X4242217Y55053002D01*
X4235023Y55122500D01*
X4266546Y55184855D01*
X4285842Y55201575D01*
X4308026Y55217109D01*
X4471401Y55331505D01*
X4638495Y55498599D01*
X4774035Y55692170D01*
X4873903Y55906337D01*
X4935063Y56134592D01*
X4955659Y56370000D01*
X4935063Y56605408D01*
X4873903Y56833663D01*
X4774035Y57047829D01*
X4638495Y57241401D01*
X4638494Y57241403D01*
X4471402Y57408494D01*
X4471396Y57408499D01*
X4285842Y57538425D01*
X4242217Y57593002D01*
X4235023Y57662500D01*
X4266546Y57724855D01*
X4285842Y57741575D01*
X4308026Y57757109D01*
X4471401Y57871505D01*
X4638495Y58038599D01*
X4653097Y58059455D01*
X4685781Y58091435D01*
X4747782Y58132861D01*
X4887139Y58272218D01*
X4996632Y58436086D01*
X5072051Y58618165D01*
X5110500Y58811459D01*
X5110500Y59008541D01*
X5110500Y59008544D01*
X5072052Y59201830D01*
X5072051Y59201831D01*
X5072051Y59201835D01*
X5000881Y59373656D01*
X4996635Y59383908D01*
X4996628Y59383921D01*
X4887139Y59547782D01*
X4887136Y59547786D01*
X4747784Y59687138D01*
X4722741Y59703871D01*
X4685782Y59728566D01*
X4653100Y59760542D01*
X4638495Y59781401D01*
X4516179Y59903717D01*
X4482696Y59965037D01*
X4487680Y60034729D01*
X4529551Y60090663D01*
X4560529Y60107578D01*
X4692086Y60156646D01*
X4692093Y60156650D01*
X4807187Y60242810D01*
X4807190Y60242813D01*
X4893350Y60357907D01*
X4893354Y60357914D01*
X4943596Y60492621D01*
X4943598Y60492628D01*
X4949999Y60552156D01*
X4950000Y60552173D01*
X4950000Y61200000D01*
X4033012Y61200000D01*
X4065925Y61257007D01*
X4100000Y61384174D01*
X4100000Y61515826D01*
X4065925Y61642993D01*
X4033012Y61700000D01*
X4950000Y61700000D01*
X4950000Y62347828D01*
X4949999Y62347845D01*
X4943598Y62407373D01*
X4943596Y62407380D01*
X4893354Y62542087D01*
X4893350Y62542094D01*
X4807190Y62657188D01*
X4807187Y62657191D01*
X4692093Y62743351D01*
X4692086Y62743355D01*
X4557379Y62793597D01*
X4557372Y62793599D01*
X4497844Y62800000D01*
X3850000Y62800000D01*
X3850000Y61883012D01*
X3792993Y61915925D01*
X3665826Y61950000D01*
X3534174Y61950000D01*
X3407007Y61915925D01*
X3350000Y61883012D01*
X3350000Y62800000D01*
X2702155Y62800000D01*
X2642627Y62793599D01*
X2642620Y62793597D01*
X2507913Y62743355D01*
X2507906Y62743351D01*
X2392812Y62657191D01*
X2392809Y62657188D01*
X2306649Y62542094D01*
X2306645Y62542087D01*
X2256403Y62407380D01*
X2256401Y62407373D01*
X2250000Y62347845D01*
X2250000Y61700000D01*
X3166988Y61700000D01*
X3134075Y61642993D01*
X3100000Y61515826D01*
X3100000Y61384174D01*
X3134075Y61257007D01*
X3166988Y61200000D01*
X2250000Y61200000D01*
X2250000Y60552156D01*
X2256401Y60492628D01*
X2256403Y60492621D01*
X2306645Y60357914D01*
X2306649Y60357907D01*
X2392809Y60242813D01*
X2392812Y60242810D01*
X2507906Y60156650D01*
X2507913Y60156646D01*
X2639470Y60107579D01*
X2695403Y60065708D01*
X2719821Y60000244D01*
X2704970Y59931971D01*
X2683819Y59903716D01*
X2561503Y59781400D01*
X2425965Y59587831D01*
X2425964Y59587829D01*
X2326098Y59373665D01*
X2326094Y59373656D01*
X2264938Y59145414D01*
X2264936Y59145404D01*
X2244341Y58910001D01*
X2244341Y58910000D01*
X2264936Y58674597D01*
X2264938Y58674587D01*
X2326094Y58446345D01*
X2326096Y58446341D01*
X2326097Y58446337D01*
X2330880Y58436080D01*
X2425965Y58232170D01*
X2425967Y58232166D01*
X2561501Y58038605D01*
X2561506Y58038598D01*
X2728597Y57871507D01*
X2728603Y57871502D01*
X2914158Y57741575D01*
X2957783Y57686998D01*
X2964977Y57617500D01*
X2933454Y57555145D01*
X2914158Y57538425D01*
X2728597Y57408495D01*
X2561505Y57241403D01*
X2425965Y57047831D01*
X2425964Y57047829D01*
X2326098Y56833665D01*
X2326094Y56833656D01*
X2264938Y56605414D01*
X2264936Y56605404D01*
X2244341Y56370001D01*
X2244341Y56370000D01*
X2264936Y56134597D01*
X2264938Y56134587D01*
X2326094Y55906345D01*
X2326096Y55906341D01*
X2326097Y55906337D01*
X2425965Y55692170D01*
X2425967Y55692166D01*
X2561501Y55498605D01*
X2561506Y55498598D01*
X2728597Y55331507D01*
X2728603Y55331502D01*
X2914158Y55201575D01*
X2957783Y55146998D01*
X2964977Y55077500D01*
X2933454Y55015145D01*
X2914158Y54998425D01*
X2728597Y54868495D01*
X2561505Y54701403D01*
X2425965Y54507831D01*
X2425964Y54507829D01*
X2326098Y54293665D01*
X2326094Y54293656D01*
X2264938Y54065414D01*
X2264936Y54065404D01*
X2244341Y53830001D01*
X2244341Y53830000D01*
X2264936Y53594597D01*
X2264938Y53594587D01*
X2326094Y53366345D01*
X2326096Y53366341D01*
X2326097Y53366337D01*
X2425965Y53152170D01*
X2425967Y53152166D01*
X2561501Y52958605D01*
X2561506Y52958598D01*
X2728597Y52791507D01*
X2728603Y52791502D01*
X2914594Y52661270D01*
X2958219Y52606693D01*
X2965413Y52537195D01*
X2933890Y52474840D01*
X2914595Y52458120D01*
X2728922Y52328110D01*
X2728920Y52328109D01*
X2561891Y52161080D01*
X2561886Y52161074D01*
X2426400Y51967580D01*
X2426399Y51967578D01*
X2326570Y51753493D01*
X2326567Y51753487D01*
X2269364Y51540001D01*
X2269364Y51540000D01*
X3166988Y51540000D01*
X3134075Y51482993D01*
X3100000Y51355826D01*
X3100000Y51224174D01*
X3134075Y51097007D01*
X3166988Y51040000D01*
X2269364Y51040000D01*
X2326567Y50826514D01*
X2326570Y50826508D01*
X2426399Y50612422D01*
X2561894Y50418918D01*
X2728917Y50251895D01*
X2914595Y50121881D01*
X2958219Y50067304D01*
X2965412Y49997805D01*
X2933890Y49935451D01*
X2914595Y49918731D01*
X2728594Y49788492D01*
X2561505Y49621403D01*
X2425965Y49427831D01*
X2425964Y49427829D01*
X2326098Y49213665D01*
X2326094Y49213656D01*
X2264938Y48985414D01*
X2264936Y48985404D01*
X2244341Y48750001D01*
X2244341Y48750000D01*
X2264936Y48514597D01*
X2264938Y48514587D01*
X2326094Y48286345D01*
X2326096Y48286341D01*
X2326097Y48286337D01*
X2425965Y48072170D01*
X2425967Y48072166D01*
X2561501Y47878605D01*
X2561506Y47878598D01*
X2728597Y47711507D01*
X2728603Y47711502D01*
X2914158Y47581575D01*
X2957783Y47526998D01*
X2964977Y47457500D01*
X2933454Y47395145D01*
X2914158Y47378425D01*
X2728597Y47248495D01*
X2561505Y47081403D01*
X2425965Y46887831D01*
X2425964Y46887829D01*
X2326098Y46673665D01*
X2326094Y46673656D01*
X2264938Y46445414D01*
X2264936Y46445404D01*
X2244341Y46210001D01*
X2244341Y46210000D01*
X2264936Y45974597D01*
X2264938Y45974587D01*
X2326094Y45746345D01*
X2326096Y45746341D01*
X2326097Y45746337D01*
X2425965Y45532170D01*
X2425967Y45532166D01*
X2561501Y45338605D01*
X2561506Y45338598D01*
X2728597Y45171507D01*
X2728603Y45171502D01*
X2914158Y45041575D01*
X2957783Y44986998D01*
X2964977Y44917500D01*
X2933454Y44855145D01*
X2914158Y44838425D01*
X2728597Y44708495D01*
X2561505Y44541403D01*
X2425965Y44347831D01*
X2425964Y44347829D01*
X2326098Y44133665D01*
X2326094Y44133656D01*
X2264938Y43905414D01*
X2264936Y43905404D01*
X2244341Y43670001D01*
X2244341Y43670000D01*
X2264936Y43434597D01*
X2264938Y43434587D01*
X2326094Y43206345D01*
X2326096Y43206341D01*
X2326097Y43206337D01*
X2385748Y43078416D01*
X2425965Y42992170D01*
X2425967Y42992166D01*
X2561501Y42798605D01*
X2561506Y42798598D01*
X2728597Y42631507D01*
X2728603Y42631502D01*
X2914158Y42501575D01*
X2957783Y42446998D01*
X2964977Y42377500D01*
X2933454Y42315145D01*
X2914158Y42298425D01*
X2728597Y42168495D01*
X2561505Y42001403D01*
X2425965Y41807831D01*
X2425964Y41807829D01*
X2326098Y41593665D01*
X2326094Y41593656D01*
X2264938Y41365414D01*
X2264936Y41365404D01*
X2244341Y41130001D01*
X2244341Y41130000D01*
X2264936Y40894597D01*
X2264938Y40894587D01*
X2326094Y40666345D01*
X2326096Y40666341D01*
X2326097Y40666337D01*
X2425702Y40452735D01*
X2425965Y40452170D01*
X2425967Y40452166D01*
X2561501Y40258605D01*
X2561506Y40258598D01*
X2728597Y40091507D01*
X2728603Y40091502D01*
X2914594Y39961270D01*
X2958219Y39906693D01*
X2965413Y39837195D01*
X2933890Y39774840D01*
X2914595Y39758120D01*
X2728922Y39628110D01*
X2728920Y39628109D01*
X2561891Y39461080D01*
X2561886Y39461074D01*
X2426400Y39267580D01*
X2426399Y39267578D01*
X2326570Y39053493D01*
X2326567Y39053487D01*
X2269364Y38840001D01*
X2269364Y38840000D01*
X3166988Y38840000D01*
X3134075Y38782993D01*
X3100000Y38655826D01*
X3100000Y38524174D01*
X3134075Y38397007D01*
X3166988Y38340000D01*
X2269364Y38340000D01*
X2326567Y38126514D01*
X2326570Y38126508D01*
X2426399Y37912422D01*
X2561894Y37718918D01*
X2728917Y37551895D01*
X2922421Y37416400D01*
X3136507Y37316571D01*
X3136516Y37316567D01*
X3350000Y37259366D01*
X3350000Y38156988D01*
X3407007Y38124075D01*
X3534174Y38090000D01*
X3665826Y38090000D01*
X3792993Y38124075D01*
X3850000Y38156988D01*
X3850000Y37259367D01*
X4063483Y37316567D01*
X4063492Y37316570D01*
X4173095Y37367679D01*
X4242172Y37378171D01*
X4305956Y37349652D01*
X4344196Y37291175D01*
X4349500Y37255297D01*
X4349500Y22039337D01*
X4329815Y21972298D01*
X4313181Y21951656D01*
X4139017Y21777493D01*
X4077694Y21744008D01*
X4063937Y21741816D01*
X3997203Y21735000D01*
X3997200Y21734999D01*
X3830668Y21679815D01*
X3830663Y21679813D01*
X3681342Y21587711D01*
X3557289Y21463658D01*
X3465187Y21314337D01*
X3465185Y21314332D01*
X3465115Y21314120D01*
X3410001Y21147797D01*
X3410001Y21147796D01*
X3410000Y21147796D01*
X3399500Y21045017D01*
X3399500Y21018448D01*
X3385985Y20962154D01*
X3316118Y20825034D01*
X3255290Y20637827D01*
X3224500Y20443423D01*
X3224500Y20246578D01*
X3255291Y20052173D01*
X3255291Y20052170D01*
X3316115Y19864975D01*
X3316115Y19864974D01*
X3385985Y19727846D01*
X3399500Y19671556D01*
X3399500Y19645000D01*
X3399501Y19644982D01*
X3410001Y19542203D01*
X3410001Y19542201D01*
X3430612Y19480002D01*
X3465116Y19375876D01*
X3467458Y19368810D01*
X3465631Y19368205D01*
X3474500Y19328202D01*
X3474500Y18433956D01*
X3512947Y18240672D01*
X3512950Y18240660D01*
X3525363Y18210694D01*
X3588366Y18058589D01*
X3588371Y18058580D01*
X3697860Y17894719D01*
X3697863Y17894715D01*
X3830811Y17761767D01*
X3862206Y17708682D01*
X3898254Y17584606D01*
X3898255Y17584604D01*
X3898256Y17584602D01*
X3899133Y17583119D01*
X3899466Y17581805D01*
X3901353Y17577446D01*
X3900649Y17577142D01*
X3916315Y17515396D01*
X3900861Y17462767D01*
X3901353Y17462554D01*
X3899630Y17458574D01*
X3899133Y17456882D01*
X3898506Y17455823D01*
X3898254Y17455395D01*
X3898254Y17455394D01*
X3852402Y17297574D01*
X3852401Y17297568D01*
X3849500Y17260702D01*
X3849500Y16829299D01*
X3852401Y16792433D01*
X3852402Y16792427D01*
X3898254Y16634607D01*
X3898254Y16634606D01*
X3898255Y16634604D01*
X3898256Y16634602D01*
X3899133Y16633119D01*
X3899466Y16631805D01*
X3901353Y16627446D01*
X3900649Y16627142D01*
X3916315Y16565396D01*
X3900861Y16512767D01*
X3901353Y16512554D01*
X3899630Y16508574D01*
X3899133Y16506882D01*
X3898506Y16505823D01*
X3898254Y16505395D01*
X3898254Y16505394D01*
X3852402Y16347574D01*
X3852401Y16347568D01*
X3849500Y16310702D01*
X3849500Y15879299D01*
X3852401Y15842433D01*
X3852402Y15842427D01*
X3898254Y15684607D01*
X3898255Y15684604D01*
X3898256Y15684602D01*
X3918324Y15650669D01*
X3981732Y15543450D01*
X3981918Y15543136D01*
X3981923Y15543130D01*
X4098129Y15426924D01*
X4098133Y15426921D01*
X4098135Y15426919D01*
X4098138Y15426918D01*
X4098141Y15426915D01*
X4201120Y15366014D01*
X4248804Y15314946D01*
X4262000Y15259282D01*
X4262000Y13561704D01*
X4262000Y13561702D01*
X4261999Y13561702D01*
X4290840Y13416718D01*
X4290842Y13416709D01*
X4347414Y13280130D01*
X4347415Y13280128D01*
X4347416Y13280127D01*
X4372636Y13242382D01*
X4380312Y13230895D01*
X4380313Y13230892D01*
X4429546Y13157208D01*
X4429552Y13157201D01*
X6024706Y11562048D01*
X6024708Y11562046D01*
X6054180Y11542355D01*
X6098392Y11512814D01*
X6147627Y11479916D01*
X6147628Y11479916D01*
X6147629Y11479915D01*
X6147631Y11479914D01*
X6284204Y11423344D01*
X6284209Y11423342D01*
X6284213Y11423342D01*
X6284214Y11423341D01*
X6429201Y11394500D01*
X6429204Y11394500D01*
X6429205Y11394500D01*
X6577040Y11394500D01*
X11275500Y11394500D01*
X11342539Y11374815D01*
X11388294Y11322011D01*
X11399500Y11270500D01*
X11399500Y5031578D01*
X11430290Y4837174D01*
X11491117Y4649970D01*
X11560091Y4514602D01*
X11580476Y4474595D01*
X11696172Y4315354D01*
X11696174Y4315352D01*
X14765355Y1246170D01*
X14765360Y1246166D01*
X14881423Y1161842D01*
X14924595Y1130476D01*
X15028107Y1077734D01*
X15099969Y1041118D01*
X15099971Y1041118D01*
X15099974Y1041116D01*
X15200318Y1008513D01*
X15287173Y980291D01*
X15481578Y949500D01*
X15481583Y949500D01*
X21098422Y949500D01*
X21292826Y980291D01*
X21480026Y1041116D01*
X21655405Y1130476D01*
X21814646Y1246172D01*
X24601030Y4032556D01*
X24662353Y4066041D01*
X24732045Y4061057D01*
X24776392Y4032556D01*
X25216902Y3592046D01*
X25246374Y3572355D01*
X25290586Y3542814D01*
X25339821Y3509916D01*
X25339822Y3509916D01*
X25339823Y3509915D01*
X25339825Y3509914D01*
X25395582Y3486819D01*
X25476403Y3453342D01*
X25476407Y3453342D01*
X25476408Y3453341D01*
X25621395Y3424500D01*
X25621398Y3424500D01*
X27721919Y3424500D01*
X27819461Y3443904D01*
X27866912Y3453342D01*
X28003494Y3509916D01*
X28052728Y3542814D01*
X28052733Y3542817D01*
X28085659Y3564817D01*
X28126415Y3592048D01*
X28651665Y4117300D01*
X28712986Y4150783D01*
X28773939Y4148693D01*
X28845505Y4127901D01*
X28845511Y4127900D01*
X28847998Y4127705D01*
X28848000Y4127705D01*
X29348000Y4127705D01*
X29348001Y4127705D01*
X29350486Y4127900D01*
X29508198Y4173719D01*
X29649552Y4257315D01*
X29649561Y4257322D01*
X29765678Y4373439D01*
X29765685Y4373448D01*
X29849282Y4514804D01*
X29849283Y4514807D01*
X29895099Y4672505D01*
X29895100Y4672511D01*
X29897999Y4709351D01*
X29898000Y4709366D01*
X29898000Y5150000D01*
X29348000Y5150000D01*
X29348000Y4127705D01*
X28848000Y4127705D01*
X28848000Y4490950D01*
X28852924Y4525545D01*
X28895597Y4672427D01*
X28895598Y4672433D01*
X28898499Y4709299D01*
X28898500Y4709306D01*
X28898500Y5650000D01*
X29348000Y5650000D01*
X29898000Y5650000D01*
X29898000Y6090635D01*
X29897999Y6090650D01*
X29895100Y6127490D01*
X29895099Y6127496D01*
X29849283Y6285194D01*
X29849282Y6285197D01*
X29765685Y6426553D01*
X29765678Y6426562D01*
X29649561Y6542679D01*
X29649552Y6542686D01*
X29508196Y6626283D01*
X29508193Y6626284D01*
X29350494Y6672100D01*
X29350497Y6672100D01*
X29348000Y6672297D01*
X29348000Y5650000D01*
X28898500Y5650000D01*
X28898500Y6090694D01*
X28895598Y6127569D01*
X28895597Y6127574D01*
X28852924Y6274455D01*
X28848000Y6309050D01*
X28848000Y6672297D01*
X28845504Y6672100D01*
X28687806Y6626284D01*
X28687798Y6626281D01*
X28661608Y6610792D01*
X28593884Y6593612D01*
X28535371Y6610793D01*
X28508398Y6626744D01*
X28508393Y6626746D01*
X28350573Y6672598D01*
X28350567Y6672599D01*
X28313701Y6675500D01*
X28313694Y6675500D01*
X27972500Y6675500D01*
X27905461Y6695185D01*
X27859706Y6747989D01*
X27848500Y6799500D01*
X27848500Y20235771D01*
X27868185Y20302810D01*
X27884819Y20323452D01*
X28774548Y21213181D01*
X28835871Y21246666D01*
X28862229Y21249500D01*
X34115341Y21249500D01*
X34182380Y21229815D01*
X34216916Y21196623D01*
X34227954Y21180859D01*
X34388858Y21019955D01*
X34388861Y21019953D01*
X34575266Y20889432D01*
X34633275Y20862382D01*
X34685714Y20816209D01*
X34704866Y20749016D01*
X34684650Y20682135D01*
X34633275Y20637618D01*
X34575267Y20610569D01*
X34575265Y20610568D01*
X34388858Y20480046D01*
X34227954Y20319142D01*
X34097432Y20132735D01*
X34097431Y20132733D01*
X34001261Y19926498D01*
X34001258Y19926489D01*
X33942366Y19706698D01*
X33942364Y19706687D01*
X33922532Y19480002D01*
X33922532Y19479999D01*
X33942364Y19253314D01*
X33942366Y19253303D01*
X34001258Y19033512D01*
X34001261Y19033503D01*
X34097431Y18827268D01*
X34097432Y18827266D01*
X34227954Y18640859D01*
X34388858Y18479955D01*
X34388861Y18479953D01*
X34575266Y18349432D01*
X34633275Y18322382D01*
X34685714Y18276209D01*
X34704866Y18209016D01*
X34684650Y18142135D01*
X34633275Y18097618D01*
X34575267Y18070569D01*
X34575265Y18070568D01*
X34388858Y17940046D01*
X34227954Y17779142D01*
X34097432Y17592735D01*
X34097431Y17592733D01*
X34001261Y17386498D01*
X34001258Y17386489D01*
X33942366Y17166698D01*
X33942364Y17166687D01*
X33922532Y16940002D01*
X33922532Y16939999D01*
X33942364Y16713314D01*
X33942366Y16713303D01*
X34001258Y16493512D01*
X34001261Y16493503D01*
X34097431Y16287268D01*
X34097432Y16287266D01*
X34227954Y16100859D01*
X34388858Y15939955D01*
X34417370Y15919991D01*
X34575266Y15809432D01*
X34633275Y15782382D01*
X34685714Y15736209D01*
X34704866Y15669016D01*
X34684650Y15602135D01*
X34633275Y15557619D01*
X34616272Y15549690D01*
X34575267Y15530569D01*
X34575265Y15530568D01*
X34388858Y15400046D01*
X34227954Y15239142D01*
X34097432Y15052735D01*
X34097431Y15052733D01*
X34001261Y14846498D01*
X34001258Y14846489D01*
X33942366Y14626698D01*
X33942364Y14626687D01*
X33922532Y14400002D01*
X33922532Y14399999D01*
X33942364Y14173314D01*
X33942366Y14173303D01*
X34001258Y13953512D01*
X34001261Y13953503D01*
X34097431Y13747268D01*
X34097432Y13747266D01*
X34227954Y13560859D01*
X34388858Y13399955D01*
X34388861Y13399953D01*
X34575266Y13269432D01*
X34633275Y13242382D01*
X34685714Y13196209D01*
X34704866Y13129016D01*
X34684650Y13062135D01*
X34633275Y13017618D01*
X34575267Y12990569D01*
X34575265Y12990568D01*
X34388858Y12860046D01*
X34227954Y12699142D01*
X34097432Y12512735D01*
X34097431Y12512733D01*
X34001261Y12306498D01*
X34001258Y12306489D01*
X33942366Y12086698D01*
X33942364Y12086687D01*
X33922532Y11860002D01*
X33922532Y11859999D01*
X33942364Y11633314D01*
X33942366Y11633303D01*
X34001258Y11413512D01*
X34001261Y11413503D01*
X34097431Y11207268D01*
X34097432Y11207266D01*
X34227954Y11020859D01*
X34388858Y10859955D01*
X34388861Y10859953D01*
X34575266Y10729432D01*
X34633275Y10702382D01*
X34685714Y10656209D01*
X34704866Y10589016D01*
X34684650Y10522135D01*
X34633275Y10477618D01*
X34575267Y10450569D01*
X34575265Y10450568D01*
X34388858Y10320046D01*
X34227954Y10159142D01*
X34097432Y9972735D01*
X34097431Y9972733D01*
X34001261Y9766498D01*
X34001258Y9766489D01*
X33942366Y9546698D01*
X33942364Y9546687D01*
X33922532Y9320002D01*
X33922532Y9319999D01*
X33942364Y9093314D01*
X33942366Y9093303D01*
X34001258Y8873512D01*
X34001261Y8873503D01*
X34097431Y8667268D01*
X34097432Y8667266D01*
X34227954Y8480859D01*
X34388858Y8319955D01*
X34388861Y8319953D01*
X34575266Y8189432D01*
X34633275Y8162382D01*
X34685714Y8116209D01*
X34704866Y8049016D01*
X34684650Y7982135D01*
X34633275Y7937618D01*
X34575267Y7910569D01*
X34575265Y7910568D01*
X34388858Y7780046D01*
X34227954Y7619142D01*
X34097432Y7432735D01*
X34097431Y7432733D01*
X34001261Y7226498D01*
X34001258Y7226489D01*
X33942366Y7006698D01*
X33942364Y7006687D01*
X33922532Y6780002D01*
X33922532Y6779999D01*
X33942364Y6553314D01*
X33942366Y6553303D01*
X34001258Y6333512D01*
X34001261Y6333503D01*
X34097431Y6127268D01*
X34097432Y6127266D01*
X34227954Y5940859D01*
X34388858Y5779955D01*
X34388861Y5779953D01*
X34575266Y5649432D01*
X34633275Y5622382D01*
X34685714Y5576209D01*
X34704866Y5509016D01*
X34684650Y5442135D01*
X34633275Y5397618D01*
X34575267Y5370569D01*
X34575265Y5370568D01*
X34388858Y5240046D01*
X34227954Y5079142D01*
X34097432Y4892735D01*
X34097431Y4892733D01*
X34001261Y4686498D01*
X34001258Y4686489D01*
X33942366Y4466698D01*
X33942364Y4466687D01*
X33922532Y4240002D01*
X33922532Y4239999D01*
X33942364Y4013314D01*
X33942366Y4013303D01*
X34001258Y3793512D01*
X34001261Y3793503D01*
X34097431Y3587268D01*
X34097432Y3587266D01*
X34227954Y3400859D01*
X34388858Y3239955D01*
X34388861Y3239953D01*
X34575266Y3109432D01*
X34781504Y3013261D01*
X34781509Y3013260D01*
X34781511Y3013259D01*
X34824404Y3001766D01*
X35001308Y2954365D01*
X35163230Y2940199D01*
X35227998Y2934532D01*
X35228000Y2934532D01*
X35228002Y2934532D01*
X35284673Y2939491D01*
X35454692Y2954365D01*
X35674496Y3013261D01*
X35880734Y3109432D01*
X36067139Y3239953D01*
X36228047Y3400861D01*
X36358568Y3587266D01*
X36454739Y3793504D01*
X36513635Y4013308D01*
X36533237Y4237364D01*
X36533468Y4239999D01*
X36533468Y4240002D01*
X36524847Y4338541D01*
X36513635Y4466692D01*
X36454739Y4686496D01*
X36358568Y4892734D01*
X36228047Y5079139D01*
X36228045Y5079142D01*
X36067141Y5240046D01*
X35880734Y5370568D01*
X35880728Y5370571D01*
X35822725Y5397618D01*
X35770285Y5443790D01*
X35751133Y5510983D01*
X35771348Y5577865D01*
X35822725Y5622382D01*
X35880734Y5649432D01*
X36067139Y5779953D01*
X36228047Y5940861D01*
X36358568Y6127266D01*
X36454739Y6333504D01*
X36513635Y6553308D01*
X36533468Y6780000D01*
X36531609Y6801244D01*
X36521217Y6920027D01*
X36513635Y7006692D01*
X36454739Y7226496D01*
X36358568Y7432734D01*
X36228047Y7619139D01*
X36228045Y7619142D01*
X36067141Y7780046D01*
X35880734Y7910568D01*
X35880728Y7910571D01*
X35822725Y7937618D01*
X35770285Y7983790D01*
X35751133Y8050983D01*
X35771348Y8117865D01*
X35822725Y8162382D01*
X35880734Y8189432D01*
X36067139Y8319953D01*
X36228047Y8480861D01*
X36358568Y8667266D01*
X36454739Y8873504D01*
X36513635Y9093308D01*
X36533468Y9320000D01*
X36513635Y9546692D01*
X36454739Y9766496D01*
X36358568Y9972734D01*
X36228047Y10159139D01*
X36228045Y10159142D01*
X36067141Y10320046D01*
X35880734Y10450568D01*
X35880728Y10450571D01*
X35822725Y10477618D01*
X35770285Y10523790D01*
X35751133Y10590983D01*
X35771348Y10657865D01*
X35822725Y10702382D01*
X35880734Y10729432D01*
X36067139Y10859953D01*
X36228047Y11020861D01*
X36358568Y11207266D01*
X36454739Y11413504D01*
X36513635Y11633308D01*
X36533468Y11860000D01*
X36513635Y12086692D01*
X36454739Y12306496D01*
X36358568Y12512734D01*
X36228047Y12699139D01*
X36228045Y12699142D01*
X36067141Y12860046D01*
X35880734Y12990568D01*
X35880728Y12990571D01*
X35822725Y13017618D01*
X35770285Y13063790D01*
X35751133Y13130983D01*
X35771348Y13197865D01*
X35822725Y13242382D01*
X35880734Y13269432D01*
X36067139Y13399953D01*
X36228047Y13560861D01*
X36358568Y13747266D01*
X36454739Y13953504D01*
X36513635Y14173308D01*
X36533468Y14400000D01*
X36513635Y14626692D01*
X36454739Y14846496D01*
X36358568Y15052734D01*
X36228047Y15239139D01*
X36228045Y15239142D01*
X36067141Y15400046D01*
X35880734Y15530568D01*
X35880728Y15530571D01*
X35841037Y15549079D01*
X35822724Y15557619D01*
X35770285Y15603790D01*
X35751133Y15670983D01*
X35771348Y15737865D01*
X35822725Y15782382D01*
X35880734Y15809432D01*
X36067139Y15939953D01*
X36228047Y16100861D01*
X36358568Y16287266D01*
X36454739Y16493504D01*
X36513635Y16713308D01*
X36533468Y16940000D01*
X36513635Y17166692D01*
X36454739Y17386496D01*
X36358568Y17592734D01*
X36228047Y17779139D01*
X36228045Y17779142D01*
X36067141Y17940046D01*
X35880734Y18070568D01*
X35880728Y18070571D01*
X35822725Y18097618D01*
X35770285Y18143790D01*
X35751133Y18210983D01*
X35771348Y18277865D01*
X35822725Y18322382D01*
X35880734Y18349432D01*
X36067139Y18479953D01*
X36228047Y18640861D01*
X36358568Y18827266D01*
X36454739Y19033504D01*
X36513635Y19253308D01*
X36533468Y19480000D01*
X36513635Y19706692D01*
X36454739Y19926496D01*
X36358568Y20132734D01*
X36228047Y20319139D01*
X36228045Y20319142D01*
X36067141Y20480046D01*
X35880734Y20610568D01*
X35880728Y20610571D01*
X35822725Y20637618D01*
X35770285Y20683790D01*
X35751133Y20750983D01*
X35771348Y20817865D01*
X35822725Y20862382D01*
X35880734Y20889432D01*
X36067139Y21019953D01*
X36228047Y21180861D01*
X36358568Y21367266D01*
X36454739Y21573504D01*
X36513635Y21793308D01*
X36532649Y22010642D01*
X36533468Y22019999D01*
X36533468Y22020002D01*
X36513635Y22246687D01*
X36513635Y22246692D01*
X36454739Y22466496D01*
X36358568Y22672734D01*
X36228047Y22859139D01*
X36228045Y22859142D01*
X36067141Y23020046D01*
X35880734Y23150568D01*
X35880728Y23150571D01*
X35822725Y23177618D01*
X35770285Y23223790D01*
X35751133Y23290983D01*
X35771348Y23357865D01*
X35822725Y23402382D01*
X35880734Y23429432D01*
X36067139Y23559953D01*
X36228047Y23720861D01*
X36358568Y23907266D01*
X36454739Y24113504D01*
X36513635Y24333308D01*
X36533468Y24560000D01*
X36530948Y24588799D01*
X36523068Y24678868D01*
X36513635Y24786692D01*
X36454739Y25006496D01*
X36358568Y25212734D01*
X36228047Y25399139D01*
X36228045Y25399142D01*
X36067141Y25560046D01*
X35880734Y25690568D01*
X35880728Y25690571D01*
X35822725Y25717618D01*
X35770285Y25763790D01*
X35751133Y25830983D01*
X35771348Y25897865D01*
X35822725Y25942382D01*
X35880734Y25969432D01*
X36067139Y26099953D01*
X36228047Y26260861D01*
X36358568Y26447266D01*
X36454739Y26653504D01*
X36513635Y26873308D01*
X36533468Y27100000D01*
X36513635Y27326692D01*
X36454739Y27546496D01*
X36358568Y27752734D01*
X36228047Y27939139D01*
X36228045Y27939142D01*
X36067141Y28100046D01*
X35880734Y28230568D01*
X35880728Y28230571D01*
X35822725Y28257618D01*
X35770285Y28303790D01*
X35751133Y28370983D01*
X35771348Y28437865D01*
X35822725Y28482382D01*
X35880734Y28509432D01*
X36067139Y28639953D01*
X36228047Y28800861D01*
X36358568Y28987266D01*
X36454739Y29193504D01*
X36513635Y29413308D01*
X36533468Y29640000D01*
X36513635Y29866692D01*
X36454739Y30086496D01*
X36358568Y30292734D01*
X36228047Y30479139D01*
X36228045Y30479142D01*
X36067141Y30640046D01*
X35880735Y30770567D01*
X35880736Y30770567D01*
X35880734Y30770568D01*
X35840935Y30789127D01*
X35788497Y30835299D01*
X35769346Y30902493D01*
X35789562Y30969374D01*
X35805656Y30989184D01*
X35837490Y31021018D01*
X35872762Y31045715D01*
X35880734Y31049432D01*
X36067139Y31179953D01*
X36228047Y31340861D01*
X36358568Y31527266D01*
X36454739Y31733504D01*
X36513635Y31953308D01*
X36533468Y32180000D01*
X36513635Y32406692D01*
X36460548Y32604815D01*
X36454741Y32626489D01*
X36454738Y32626498D01*
X36440406Y32657233D01*
X36358568Y32832734D01*
X36228047Y33019139D01*
X36228045Y33019142D01*
X36067141Y33180046D01*
X35880734Y33310568D01*
X35880728Y33310571D01*
X35822725Y33337618D01*
X35770285Y33383790D01*
X35751133Y33450983D01*
X35771348Y33517865D01*
X35822725Y33562382D01*
X35880734Y33589432D01*
X36067139Y33719953D01*
X36228047Y33880861D01*
X36358568Y34067266D01*
X36454739Y34273504D01*
X36513635Y34493308D01*
X36533468Y34720000D01*
X36513635Y34946692D01*
X36454739Y35166496D01*
X36358568Y35372734D01*
X36228047Y35559139D01*
X36228045Y35559142D01*
X36067141Y35720046D01*
X35880734Y35850568D01*
X35880732Y35850569D01*
X35822725Y35877618D01*
X35822132Y35877895D01*
X35769694Y35924066D01*
X35750542Y35991260D01*
X35770758Y36058141D01*
X35822134Y36102659D01*
X35880484Y36129868D01*
X36066820Y36260343D01*
X36227657Y36421180D01*
X36358134Y36607518D01*
X36454265Y36813674D01*
X36454269Y36813683D01*
X36506872Y37010000D01*
X35661012Y37010000D01*
X35693925Y37067007D01*
X35728000Y37194174D01*
X35728000Y37325826D01*
X35693925Y37452993D01*
X35661012Y37510000D01*
X36506872Y37510000D01*
X36506872Y37510001D01*
X36454269Y37706318D01*
X36454265Y37706327D01*
X36358134Y37912483D01*
X36227657Y38098821D01*
X36066820Y38259658D01*
X35880482Y38390135D01*
X35822133Y38417343D01*
X35769694Y38463516D01*
X35750542Y38530709D01*
X35770758Y38597590D01*
X35822129Y38642105D01*
X35880734Y38669432D01*
X36067139Y38799953D01*
X36228047Y38960861D01*
X36358568Y39147266D01*
X36454739Y39353504D01*
X36513635Y39573308D01*
X36533468Y39800000D01*
X36513635Y40026692D01*
X36454739Y40246496D01*
X36358568Y40452734D01*
X36228047Y40639139D01*
X36228045Y40639142D01*
X36067141Y40800046D01*
X35880734Y40930568D01*
X35880732Y40930569D01*
X35674497Y41026739D01*
X35674488Y41026742D01*
X35454697Y41085634D01*
X35454693Y41085635D01*
X35454692Y41085635D01*
X35454691Y41085636D01*
X35454686Y41085636D01*
X35228002Y41105468D01*
X35227998Y41105468D01*
X35039982Y41089019D01*
X34971482Y41102786D01*
X34921299Y41151401D01*
X34905366Y41219430D01*
X34928741Y41285273D01*
X34941485Y41300219D01*
X35454449Y41813181D01*
X35515772Y41846666D01*
X35542130Y41849500D01*
X39976000Y41849500D01*
X40043039Y41829815D01*
X40088794Y41777011D01*
X40100000Y41725500D01*
X40100000Y199501D01*
X40080315Y132462D01*
X40027511Y86707D01*
X39976000Y75501D01*
X37072982Y75501D01*
X37045231Y64006D01*
X37043045Y61819D01*
X37037103Y58575D01*
X37035079Y57222D01*
X37034957Y57404D01*
X36981722Y28334D01*
X36955364Y25500D01*
X31237574Y25500D01*
X31170535Y45185D01*
X31124780Y97989D01*
X31114836Y167147D01*
X31143861Y230703D01*
X31172478Y255039D01*
X31216656Y282288D01*
X31340712Y406344D01*
X31432814Y555666D01*
X31487999Y722203D01*
X31498500Y824991D01*
X31498499Y2225008D01*
X31487999Y2327797D01*
X31432814Y2494334D01*
X31340712Y2643656D01*
X31216656Y2767712D01*
X31067334Y2859814D01*
X30900797Y2914999D01*
X30900795Y2915000D01*
X30798010Y2925500D01*
X29997998Y2925500D01*
X29997980Y2925499D01*
X29895203Y2915000D01*
X29895200Y2914999D01*
X29728668Y2859815D01*
X29728663Y2859813D01*
X29579342Y2767711D01*
X29455289Y2643658D01*
X29363187Y2494337D01*
X29363185Y2494332D01*
X29340318Y2425322D01*
X29308001Y2327797D01*
X29308001Y2327796D01*
X29308000Y2327796D01*
X29297500Y2225017D01*
X29297500Y824999D01*
X29297501Y824982D01*
X29308000Y722204D01*
X29308001Y722201D01*
X29340940Y622800D01*
X29363186Y555666D01*
X29432910Y442624D01*
X29455289Y406343D01*
X29579344Y282288D01*
X29623522Y255039D01*
X29670247Y203091D01*
X29681470Y134129D01*
X29653627Y70047D01*
X29595558Y31190D01*
X29558426Y25500D01*
X25637574Y25500D01*
X25570535Y45185D01*
X25524780Y97989D01*
X25514836Y167147D01*
X25543861Y230703D01*
X25572478Y255039D01*
X25616656Y282288D01*
X25740712Y406344D01*
X25832814Y555666D01*
X25887999Y722203D01*
X25898500Y824991D01*
X25898499Y2225008D01*
X25887999Y2327797D01*
X25832814Y2494334D01*
X25740712Y2643656D01*
X25616656Y2767712D01*
X25467334Y2859814D01*
X25300797Y2914999D01*
X25300795Y2915000D01*
X25198010Y2925500D01*
X24397998Y2925500D01*
X24397980Y2925499D01*
X24295203Y2915000D01*
X24295200Y2914999D01*
X24128668Y2859815D01*
X24128663Y2859813D01*
X23979342Y2767711D01*
X23855289Y2643658D01*
X23763187Y2494337D01*
X23763185Y2494332D01*
X23740318Y2425322D01*
X23708001Y2327797D01*
X23708001Y2327796D01*
X23708000Y2327796D01*
X23697500Y2225017D01*
X23697500Y824999D01*
X23697501Y824982D01*
X23708000Y722204D01*
X23708001Y722201D01*
X23740940Y622800D01*
X23763186Y555666D01*
X23832910Y442624D01*
X23855289Y406343D01*
X23979344Y282288D01*
X24023522Y255039D01*
X24070247Y203091D01*
X24081470Y134129D01*
X24053627Y70047D01*
X23995558Y31190D01*
X23958426Y25500D01*
X10543500Y25500D01*
X10476461Y45185D01*
X10430706Y97989D01*
X10419500Y149500D01*
X10419500Y2047017D01*
X10419500Y2047018D01*
X10408006Y2074767D01*
X10386767Y2096006D01*
X10359018Y2107500D01*
X10359017Y2107500D01*
X9343500Y2107500D01*
X9276461Y2127185D01*
X9230706Y2179989D01*
X9219500Y2231500D01*
X9219500Y5057007D01*
X9219499Y5057021D01*
X9219499Y5234290D01*
X9182170Y5637141D01*
X9182170Y5637142D01*
X9179873Y5649432D01*
X9107827Y6034843D01*
X8997108Y6423981D01*
X8850955Y6801244D01*
X8670617Y7163412D01*
X8457632Y7507395D01*
X8213816Y7830260D01*
X7941250Y8129250D01*
X7642260Y8401816D01*
X7642257Y8401818D01*
X7642254Y8401821D01*
X7319396Y8645631D01*
X7319395Y8645632D01*
X6975412Y8858617D01*
X6613244Y9038955D01*
X6235981Y9185108D01*
X6235967Y9185112D01*
X6235964Y9185113D01*
X5846850Y9295825D01*
X5846850Y9295826D01*
X5449140Y9370171D01*
X5123842Y9400313D01*
X5046292Y9407499D01*
X4844000Y9407499D01*
X4819469Y9407499D01*
X4808022Y9399182D01*
X4742216Y9375702D01*
X4735136Y9375500D01*
X2199500Y9375500D01*
X2132461Y9395185D01*
X2086706Y9447989D01*
X2075500Y9499500D01*
X2075500Y32715017D01*
X2075500Y32715018D01*
X2064006Y32742767D01*
X2042767Y32764006D01*
X2015018Y32775500D01*
X2015017Y32775500D01*
X149500Y32775500D01*
X82461Y32795185D01*
X36706Y32847989D01*
X25500Y32899500D01*
X25500Y67400500D01*
X45185Y67467539D01*
X97989Y67513294D01*
X149500Y67524500D01*
X2015017Y67524500D01*
X2015019Y67524500D01*
X2042768Y67535994D01*
X2064007Y67557233D01*
X2075501Y67584982D01*
X2075500Y90500501D01*
X2095185Y90567539D01*
X2147989Y90613294D01*
X2199500Y90624500D01*
X5202289Y90624500D01*
X5202292Y90624500D01*
X5454502Y90647871D01*
X5605140Y90661829D01*
X5605141Y90661829D01*
X5605143Y90661830D01*
X5605149Y90661830D01*
X6002843Y90736172D01*
X6391982Y90846891D01*
X6769245Y90993044D01*
X7131413Y91173382D01*
X7475396Y91386368D01*
X7798261Y91630184D01*
X8097251Y91902750D01*
X8369817Y92201740D01*
X8613633Y92524605D01*
X8826618Y92868588D01*
X9006957Y93230756D01*
X9153109Y93608019D01*
X9263828Y93997158D01*
X9338170Y94394852D01*
X9375500Y94797709D01*
X9375500Y95000001D01*
X9375500Y95024532D01*
X9375500Y97800500D01*
X9395185Y97867539D01*
X9447989Y97913294D01*
X9499499Y97924500D01*
X39976001Y97924500D01*
X40043039Y97904815D01*
G37*
%TD.AperFunction*%
%TA.AperFunction,Conductor*%
G36*
X8655357Y19592493D02*
G01*
X8706557Y19544951D01*
X8717705Y19520541D01*
X8765642Y19375879D01*
X8765643Y19375876D01*
X8857684Y19226655D01*
X8981654Y19102685D01*
X9137025Y19006851D01*
X9135666Y19004649D01*
X9179026Y18966487D01*
X9198192Y18899298D01*
X9177991Y18832412D01*
X9139293Y18794717D01*
X9006347Y18712715D01*
X9006343Y18712712D01*
X8882289Y18588658D01*
X8790187Y18439337D01*
X8790186Y18439334D01*
X8735001Y18272797D01*
X8735001Y18272796D01*
X8735000Y18272796D01*
X8724500Y18170017D01*
X8724500Y18169500D01*
X8724468Y18169395D01*
X8724340Y18166861D01*
X8724179Y18166870D01*
X8724179Y18166868D01*
X8724155Y18166871D01*
X8723734Y18166892D01*
X8704815Y18102461D01*
X8652011Y18056706D01*
X8600500Y18045500D01*
X8574000Y18045500D01*
X8506961Y18065185D01*
X8461206Y18117989D01*
X8450000Y18169500D01*
X8450000Y18210635D01*
X8449999Y18210650D01*
X8447100Y18247490D01*
X8447099Y18247496D01*
X8401283Y18405194D01*
X8401282Y18405197D01*
X8317685Y18546553D01*
X8317678Y18546562D01*
X8201561Y18662679D01*
X8201552Y18662686D01*
X8060198Y18746282D01*
X8022957Y18757101D01*
X7964072Y18794708D01*
X7934865Y18858180D01*
X7944611Y18927367D01*
X7990215Y18980301D01*
X8018548Y18993884D01*
X8069119Y19010642D01*
X8069124Y19010644D01*
X8218345Y19102685D01*
X8342315Y19226655D01*
X8434356Y19375876D01*
X8434359Y19375883D01*
X8482293Y19520539D01*
X8522065Y19577984D01*
X8586581Y19604808D01*
X8655357Y19592493D01*
G37*
%TD.AperFunction*%
%TA.AperFunction,Conductor*%
G36*
X6269334Y20268348D02*
G01*
X6325267Y20226476D01*
X6349684Y20161012D01*
X6350000Y20152166D01*
X6350000Y19645029D01*
X6350001Y19645013D01*
X6360494Y19542303D01*
X6415641Y19375881D01*
X6415643Y19375876D01*
X6507684Y19226655D01*
X6631656Y19102683D01*
X6759618Y19023756D01*
X6806343Y18971808D01*
X6817566Y18902846D01*
X6789723Y18838763D01*
X6731654Y18799907D01*
X6704253Y18794599D01*
X6672509Y18792101D01*
X6672504Y18792100D01*
X6514806Y18746284D01*
X6514803Y18746283D01*
X6373447Y18662686D01*
X6373438Y18662679D01*
X6257321Y18546562D01*
X6257312Y18546551D01*
X6257017Y18546050D01*
X6256683Y18545739D01*
X6252537Y18540393D01*
X6251674Y18541063D01*
X6205943Y18498371D01*
X6137200Y18485873D01*
X6072614Y18512524D01*
X6048063Y18540860D01*
X6047861Y18540702D01*
X6044967Y18544432D01*
X6043559Y18546058D01*
X6043085Y18546860D01*
X6043076Y18546871D01*
X5926870Y18663077D01*
X5926862Y18663083D01*
X5786179Y18746282D01*
X5785398Y18746744D01*
X5785397Y18746745D01*
X5785396Y18746745D01*
X5785393Y18746747D01*
X5661317Y18782794D01*
X5608231Y18814189D01*
X5511819Y18910601D01*
X5478334Y18971924D01*
X5475500Y18998282D01*
X5475500Y19328202D01*
X5484368Y19368205D01*
X5482542Y19368810D01*
X5484814Y19375666D01*
X5539999Y19542203D01*
X5546817Y19608944D01*
X5573213Y19673635D01*
X5582485Y19684013D01*
X6138322Y20239849D01*
X6199642Y20273332D01*
X6269334Y20268348D01*
G37*
%TD.AperFunction*%
%TA.AperFunction,Conductor*%
G36*
X33858787Y40115007D02*
G01*
X33914720Y40073135D01*
X33939137Y40007671D01*
X33938981Y39988018D01*
X33922532Y39800003D01*
X33922532Y39799999D01*
X33942364Y39573314D01*
X33942366Y39573303D01*
X34001258Y39353512D01*
X34001261Y39353503D01*
X34097431Y39147268D01*
X34097432Y39147266D01*
X34227954Y38960859D01*
X34388858Y38799955D01*
X34388861Y38799953D01*
X34575266Y38669432D01*
X34633865Y38642107D01*
X34686305Y38595935D01*
X34705457Y38528742D01*
X34685242Y38461861D01*
X34633867Y38417343D01*
X34575515Y38390133D01*
X34389179Y38259658D01*
X34228342Y38098821D01*
X34097865Y37912483D01*
X34001734Y37706327D01*
X34001730Y37706318D01*
X33949127Y37510001D01*
X33949128Y37510000D01*
X34794988Y37510000D01*
X34762075Y37452993D01*
X34728000Y37325826D01*
X34728000Y37194174D01*
X34762075Y37067007D01*
X34794988Y37010000D01*
X33949128Y37010000D01*
X34001730Y36813683D01*
X34001734Y36813674D01*
X34097865Y36607518D01*
X34228342Y36421180D01*
X34389179Y36260343D01*
X34575518Y36129866D01*
X34575520Y36129865D01*
X34633865Y36102658D01*
X34686305Y36056486D01*
X34705457Y35989293D01*
X34685242Y35922411D01*
X34633867Y35877895D01*
X34575268Y35850569D01*
X34575264Y35850567D01*
X34388858Y35720046D01*
X34227954Y35559142D01*
X34097432Y35372735D01*
X34097431Y35372733D01*
X34001261Y35166498D01*
X34001258Y35166489D01*
X33942366Y34946698D01*
X33942364Y34946687D01*
X33922532Y34720002D01*
X33922532Y34719999D01*
X33942364Y34493314D01*
X33942366Y34493303D01*
X34001258Y34273512D01*
X34001261Y34273503D01*
X34097431Y34067268D01*
X34097432Y34067266D01*
X34227954Y33880859D01*
X34388858Y33719955D01*
X34388861Y33719953D01*
X34575266Y33589432D01*
X34633275Y33562382D01*
X34685714Y33516209D01*
X34704866Y33449016D01*
X34684650Y33382135D01*
X34633275Y33337618D01*
X34575267Y33310569D01*
X34575265Y33310568D01*
X34388858Y33180046D01*
X34227954Y33019142D01*
X34097432Y32832736D01*
X34093712Y32824758D01*
X34069015Y32789491D01*
X23662181Y22382656D01*
X23600858Y22349171D01*
X23531166Y22354155D01*
X23475233Y22396027D01*
X23450816Y22461491D01*
X23450500Y22470337D01*
X23450500Y29757871D01*
X23470185Y29824910D01*
X23486814Y29845547D01*
X33727774Y40086508D01*
X33789095Y40119991D01*
X33858787Y40115007D01*
G37*
%TD.AperFunction*%
%TA.AperFunction,Conductor*%
G36*
X40019334Y70655452D02*
G01*
X40075267Y70613580D01*
X40099684Y70548116D01*
X40100000Y70539270D01*
X40100000Y50612731D01*
X40080315Y50545692D01*
X40063681Y50525050D01*
X21454451Y31915821D01*
X21393128Y31882336D01*
X21323436Y31887320D01*
X21268394Y31928016D01*
X21266872Y31930000D01*
X20421012Y31930000D01*
X20453925Y31987007D01*
X20488000Y32114174D01*
X20488000Y32245826D01*
X20453925Y32372993D01*
X20421012Y32430000D01*
X21266872Y32430000D01*
X21266872Y32430001D01*
X21214269Y32626318D01*
X21214265Y32626327D01*
X21118134Y32832483D01*
X20987657Y33018821D01*
X20826820Y33179658D01*
X20640482Y33310135D01*
X20582133Y33337343D01*
X20529694Y33383516D01*
X20510542Y33450709D01*
X20530758Y33517590D01*
X20582129Y33562105D01*
X20640734Y33589432D01*
X20827139Y33719953D01*
X20988047Y33880861D01*
X21118568Y34067266D01*
X21214739Y34273504D01*
X21273635Y34493308D01*
X21293468Y34720000D01*
X21273635Y34946692D01*
X21214739Y35166496D01*
X21118568Y35372734D01*
X20988047Y35559139D01*
X20988045Y35559142D01*
X20827141Y35720046D01*
X20640734Y35850568D01*
X20640728Y35850571D01*
X20582725Y35877618D01*
X20530285Y35923790D01*
X20511133Y35990983D01*
X20531348Y36057865D01*
X20582725Y36102382D01*
X20583319Y36102659D01*
X20640734Y36129432D01*
X20827139Y36259953D01*
X20988047Y36420861D01*
X21118568Y36607266D01*
X21214739Y36813504D01*
X21273635Y37033308D01*
X21293468Y37260000D01*
X21273635Y37486692D01*
X21214739Y37706496D01*
X21118568Y37912734D01*
X20988047Y38099139D01*
X20988045Y38099142D01*
X20827143Y38260044D01*
X20802536Y38277274D01*
X20758912Y38331851D01*
X20751719Y38401350D01*
X20783241Y38463704D01*
X20843471Y38499118D01*
X20860404Y38502139D01*
X20895483Y38505909D01*
X21030331Y38556204D01*
X21145546Y38642454D01*
X21231796Y38757669D01*
X21282091Y38892517D01*
X21288500Y38952127D01*
X21288499Y40647872D01*
X21282091Y40707483D01*
X21247567Y40800046D01*
X21231797Y40842329D01*
X21231793Y40842336D01*
X21145547Y40957545D01*
X21145544Y40957548D01*
X21030335Y41043794D01*
X21030328Y41043798D01*
X20895482Y41094092D01*
X20895483Y41094092D01*
X20835883Y41100499D01*
X20835881Y41100500D01*
X20835873Y41100500D01*
X20835864Y41100500D01*
X19140129Y41100500D01*
X19140123Y41100499D01*
X19080516Y41094092D01*
X18945671Y41043798D01*
X18945664Y41043794D01*
X18830455Y40957548D01*
X18830452Y40957545D01*
X18744206Y40842336D01*
X18744202Y40842329D01*
X18693908Y40707483D01*
X18689486Y40666345D01*
X18687501Y40647877D01*
X18687500Y40647865D01*
X18687500Y38952130D01*
X18687501Y38952124D01*
X18693908Y38892517D01*
X18744202Y38757672D01*
X18744206Y38757665D01*
X18830452Y38642456D01*
X18830455Y38642453D01*
X18945664Y38556207D01*
X18945671Y38556203D01*
X18990618Y38539439D01*
X19080517Y38505909D01*
X19115596Y38502138D01*
X19180144Y38475401D01*
X19219993Y38418009D01*
X19222488Y38348184D01*
X19186836Y38288095D01*
X19173464Y38277275D01*
X19148858Y38260046D01*
X18987954Y38099142D01*
X18857432Y37912735D01*
X18857431Y37912733D01*
X18761261Y37706498D01*
X18761258Y37706489D01*
X18702366Y37486698D01*
X18702364Y37486687D01*
X18682532Y37260002D01*
X18682532Y37259999D01*
X18702364Y37033314D01*
X18702366Y37033303D01*
X18761258Y36813512D01*
X18761261Y36813503D01*
X18857431Y36607268D01*
X18857432Y36607266D01*
X18987954Y36420859D01*
X19148858Y36259955D01*
X19148861Y36259953D01*
X19335266Y36129432D01*
X19392681Y36102659D01*
X19393275Y36102382D01*
X19445714Y36056209D01*
X19464866Y35989016D01*
X19444650Y35922135D01*
X19393275Y35877618D01*
X19335267Y35850569D01*
X19335265Y35850568D01*
X19148858Y35720046D01*
X18987954Y35559142D01*
X18857432Y35372735D01*
X18857431Y35372733D01*
X18761261Y35166498D01*
X18761258Y35166489D01*
X18702366Y34946698D01*
X18702364Y34946687D01*
X18682532Y34720002D01*
X18682532Y34719999D01*
X18702364Y34493314D01*
X18702366Y34493303D01*
X18761258Y34273512D01*
X18761261Y34273503D01*
X18857431Y34067268D01*
X18857432Y34067266D01*
X18987954Y33880859D01*
X19148858Y33719955D01*
X19148861Y33719953D01*
X19335266Y33589432D01*
X19393865Y33562107D01*
X19446305Y33515935D01*
X19465457Y33448742D01*
X19445242Y33381861D01*
X19393867Y33337343D01*
X19335515Y33310133D01*
X19149179Y33179658D01*
X18988342Y33018821D01*
X18857865Y32832483D01*
X18761734Y32626327D01*
X18761730Y32626318D01*
X18709127Y32430001D01*
X18709128Y32430000D01*
X19554988Y32430000D01*
X19522075Y32372993D01*
X19488000Y32245826D01*
X19488000Y32114174D01*
X19522075Y31987007D01*
X19554988Y31930000D01*
X18709128Y31930000D01*
X18761730Y31733683D01*
X18761734Y31733674D01*
X18857865Y31527518D01*
X18988342Y31341180D01*
X19149179Y31180343D01*
X19335518Y31049866D01*
X19335520Y31049865D01*
X19393865Y31022658D01*
X19446305Y30976486D01*
X19465457Y30909293D01*
X19445242Y30842411D01*
X19393867Y30797895D01*
X19335266Y30770568D01*
X19335264Y30770567D01*
X19148858Y30640046D01*
X18987954Y30479142D01*
X18857432Y30292735D01*
X18857431Y30292733D01*
X18761261Y30086498D01*
X18761258Y30086489D01*
X18702366Y29866698D01*
X18702364Y29866687D01*
X18682532Y29640002D01*
X18682532Y29639999D01*
X18702364Y29413314D01*
X18702366Y29413303D01*
X18761258Y29193512D01*
X18761261Y29193503D01*
X18857431Y28987268D01*
X18857432Y28987266D01*
X18987954Y28800859D01*
X19148858Y28639955D01*
X19148861Y28639953D01*
X19335266Y28509432D01*
X19393275Y28482382D01*
X19445714Y28436209D01*
X19464866Y28369016D01*
X19444650Y28302135D01*
X19393275Y28257618D01*
X19335267Y28230569D01*
X19335265Y28230568D01*
X19148858Y28100046D01*
X18987954Y27939142D01*
X18857432Y27752735D01*
X18857431Y27752733D01*
X18761261Y27546498D01*
X18761258Y27546489D01*
X18702366Y27326698D01*
X18702364Y27326687D01*
X18682532Y27100002D01*
X18682532Y27099999D01*
X18702364Y26873314D01*
X18702366Y26873303D01*
X18761258Y26653512D01*
X18761261Y26653503D01*
X18857431Y26447268D01*
X18857432Y26447266D01*
X18987954Y26260859D01*
X19148858Y26099955D01*
X19148861Y26099953D01*
X19335266Y25969432D01*
X19393275Y25942382D01*
X19445714Y25896209D01*
X19464866Y25829016D01*
X19444650Y25762135D01*
X19393275Y25717618D01*
X19335267Y25690569D01*
X19335265Y25690568D01*
X19148858Y25560046D01*
X18987954Y25399142D01*
X18857432Y25212735D01*
X18857431Y25212733D01*
X18761261Y25006498D01*
X18761258Y25006489D01*
X18702366Y24786698D01*
X18702364Y24786688D01*
X18691777Y24665672D01*
X18666324Y24600604D01*
X18609733Y24559625D01*
X18539972Y24555747D01*
X18480568Y24588799D01*
X17677220Y25392147D01*
X16786819Y26282549D01*
X16753334Y26343872D01*
X16750500Y26370230D01*
X16750500Y47437770D01*
X16770185Y47504809D01*
X16786819Y47525451D01*
X39888319Y70626951D01*
X39949642Y70660436D01*
X40019334Y70655452D01*
G37*
%TD.AperFunction*%
%TD*%
%TA.AperFunction,Conductor*%
%TO.N,/PWR*%
G36*
X59957750Y41821498D02*
G01*
X59978724Y41804595D01*
X62525995Y39257324D01*
X62560021Y39195012D01*
X62554956Y39124197D01*
X62512409Y39067361D01*
X62445889Y39042550D01*
X62376515Y39057641D01*
X62366898Y39063464D01*
X62289179Y39115394D01*
X62143502Y39175735D01*
X62143497Y39175737D01*
X61988844Y39206500D01*
X61988842Y39206500D01*
X61831158Y39206500D01*
X61831155Y39206500D01*
X61676502Y39175737D01*
X61676497Y39175735D01*
X61530820Y39115394D01*
X61399715Y39027792D01*
X61399708Y39027787D01*
X61288213Y38916292D01*
X61288208Y38916285D01*
X61200606Y38785180D01*
X61140265Y38639503D01*
X61140263Y38639498D01*
X61109500Y38484845D01*
X61109500Y38484842D01*
X61109500Y38327158D01*
X61140263Y38172503D01*
X61200606Y38026821D01*
X61288211Y37895711D01*
X61399711Y37784211D01*
X61530821Y37696606D01*
X61676503Y37636263D01*
X61831158Y37605500D01*
X61831159Y37605500D01*
X61988841Y37605500D01*
X61988842Y37605500D01*
X62143497Y37636263D01*
X62289179Y37696606D01*
X62420289Y37784211D01*
X62531789Y37895711D01*
X62610735Y38013863D01*
X62665211Y38059390D01*
X62735654Y38068239D01*
X62799699Y38037598D01*
X62837010Y37977196D01*
X62841500Y37943861D01*
X62841500Y37257351D01*
X62848009Y37196804D01*
X62848011Y37196796D01*
X62899110Y37059798D01*
X62899112Y37059793D01*
X62986738Y36942739D01*
X63057417Y36889830D01*
X63099964Y36832995D01*
X63105029Y36762179D01*
X63089341Y36723128D01*
X63012832Y36598276D01*
X62915971Y36364434D01*
X62879551Y36212731D01*
X62844199Y36151162D01*
X62781172Y36118479D01*
X62710481Y36125060D01*
X62654570Y36168814D01*
X62640623Y36193927D01*
X62632834Y36212731D01*
X62619394Y36245179D01*
X62531789Y36376289D01*
X62420289Y36487789D01*
X62289179Y36575394D01*
X62143497Y36635737D01*
X61988844Y36666500D01*
X61988842Y36666500D01*
X61831158Y36666500D01*
X61831155Y36666500D01*
X61676502Y36635737D01*
X61676497Y36635735D01*
X61530820Y36575394D01*
X61399715Y36487792D01*
X61399708Y36487787D01*
X61288213Y36376292D01*
X61288208Y36376285D01*
X61200606Y36245180D01*
X61140265Y36099503D01*
X61140263Y36099498D01*
X61109500Y35944845D01*
X61109500Y35944842D01*
X61109500Y35787158D01*
X61140263Y35632503D01*
X61200606Y35486821D01*
X61288211Y35355711D01*
X61399711Y35244211D01*
X61530821Y35156606D01*
X61676503Y35096263D01*
X61831158Y35065500D01*
X61831159Y35065500D01*
X61988841Y35065500D01*
X61988842Y35065500D01*
X62143497Y35096263D01*
X62289179Y35156606D01*
X62420289Y35244211D01*
X62531789Y35355711D01*
X62619394Y35486821D01*
X62640623Y35538074D01*
X62685170Y35593354D01*
X62752534Y35615776D01*
X62821325Y35598218D01*
X62869704Y35546257D01*
X62879551Y35519270D01*
X62915971Y35367566D01*
X63012830Y35133728D01*
X63144177Y34919389D01*
X63144178Y34919389D01*
X63925016Y35700228D01*
X63937482Y35653708D01*
X64009890Y35528292D01*
X64112292Y35425890D01*
X64237708Y35353482D01*
X64284226Y35341018D01*
X63700478Y34757270D01*
X63677218Y34738934D01*
X63501631Y34631334D01*
X63501627Y34631331D01*
X63309102Y34466898D01*
X63144671Y34274375D01*
X63012383Y34058501D01*
X62915494Y33824589D01*
X62879225Y33673516D01*
X62843873Y33611947D01*
X62780846Y33579264D01*
X62710155Y33585845D01*
X62654244Y33629599D01*
X62640300Y33654707D01*
X62619394Y33705179D01*
X62531789Y33836289D01*
X62420289Y33947789D01*
X62289179Y34035394D01*
X62143497Y34095737D01*
X61988844Y34126500D01*
X61988842Y34126500D01*
X61831158Y34126500D01*
X61831155Y34126500D01*
X61676502Y34095737D01*
X61676497Y34095735D01*
X61530820Y34035394D01*
X61399715Y33947792D01*
X61399708Y33947787D01*
X61288213Y33836292D01*
X61288208Y33836285D01*
X61200606Y33705180D01*
X61140265Y33559503D01*
X61140263Y33559498D01*
X61109500Y33404845D01*
X61109500Y33404842D01*
X61109500Y33247158D01*
X61140263Y33092503D01*
X61200606Y32946821D01*
X61288211Y32815711D01*
X61399711Y32704211D01*
X61530821Y32616606D01*
X61676503Y32556263D01*
X61831158Y32525500D01*
X61831159Y32525500D01*
X61988841Y32525500D01*
X61988842Y32525500D01*
X62143497Y32556263D01*
X62289179Y32616606D01*
X62420289Y32704211D01*
X62531789Y32815711D01*
X62619394Y32946821D01*
X62640299Y32997291D01*
X62684843Y33052568D01*
X62752206Y33074991D01*
X62820998Y33057434D01*
X62869377Y33005473D01*
X62879225Y32978485D01*
X62915495Y32827409D01*
X63012384Y32593498D01*
X63144672Y32377624D01*
X63309102Y32185102D01*
X63501624Y32020672D01*
X63717498Y31888384D01*
X63951409Y31791495D01*
X64197597Y31732391D01*
X64450000Y31712526D01*
X64702403Y31732391D01*
X64948591Y31791495D01*
X65182502Y31888384D01*
X65218919Y31910702D01*
X65287448Y31929240D01*
X65355125Y31907786D01*
X65373848Y31892364D01*
X67704595Y29561617D01*
X67738621Y29499305D01*
X67741500Y29472522D01*
X67741500Y16605478D01*
X67721498Y16537357D01*
X67704595Y16516383D01*
X66273595Y15085383D01*
X66211283Y15051357D01*
X66140468Y15056422D01*
X66083632Y15098969D01*
X66058821Y15165489D01*
X66058500Y15174478D01*
X66058500Y16084522D01*
X66078502Y16152643D01*
X66095400Y16173613D01*
X66199930Y16278142D01*
X66316367Y16438403D01*
X66406299Y16614904D01*
X66447622Y16742087D01*
X66467512Y16803300D01*
X66498500Y16998954D01*
X66498500Y19860757D01*
X66509113Y19911371D01*
X66512081Y19918140D01*
X66529296Y19957384D01*
X66584564Y20175632D01*
X66603156Y20400000D01*
X66584564Y20624368D01*
X66529296Y20842616D01*
X66438860Y21048791D01*
X66432140Y21059076D01*
X66315724Y21237266D01*
X66315720Y21237271D01*
X66163237Y21402909D01*
X66043679Y21495965D01*
X65985576Y21541189D01*
X65787574Y21648342D01*
X65787572Y21648343D01*
X65787571Y21648344D01*
X65574639Y21721443D01*
X65574630Y21721445D01*
X65530476Y21728813D01*
X65352569Y21758500D01*
X65127431Y21758500D01*
X64979211Y21733767D01*
X64905369Y21721445D01*
X64905360Y21721443D01*
X64692428Y21648344D01*
X64692426Y21648342D01*
X64494426Y21541190D01*
X64494424Y21541189D01*
X64316759Y21402906D01*
X64255374Y21336225D01*
X64194521Y21299654D01*
X64123557Y21301789D01*
X64065012Y21341951D01*
X64044618Y21377530D01*
X64000443Y21495967D01*
X63912904Y21612905D01*
X63795965Y21700445D01*
X63659093Y21751495D01*
X63598597Y21758000D01*
X62954000Y21758000D01*
X62954000Y20830703D01*
X62892993Y20865925D01*
X62765826Y20900000D01*
X62634174Y20900000D01*
X62507007Y20865925D01*
X62446000Y20830703D01*
X62446000Y21758000D01*
X61801402Y21758000D01*
X61740906Y21751495D01*
X61604035Y21700445D01*
X61604034Y21700445D01*
X61487095Y21612905D01*
X61399555Y21495966D01*
X61399555Y21495965D01*
X61348505Y21359094D01*
X61342000Y21298598D01*
X61342000Y20654000D01*
X62269297Y20654000D01*
X62234075Y20592993D01*
X62200000Y20465826D01*
X62200000Y20334174D01*
X62234075Y20207007D01*
X62269297Y20146000D01*
X61342000Y20146000D01*
X61342000Y19501403D01*
X61348505Y19440907D01*
X61399555Y19304036D01*
X61399555Y19304035D01*
X61487095Y19187096D01*
X61604034Y19099556D01*
X61740906Y19048506D01*
X61801402Y19042001D01*
X61801415Y19042000D01*
X62446000Y19042000D01*
X62446000Y19969298D01*
X62507007Y19934075D01*
X62634174Y19900000D01*
X62765826Y19900000D01*
X62892993Y19934075D01*
X62954000Y19969298D01*
X62954000Y19042000D01*
X63598585Y19042000D01*
X63598597Y19042001D01*
X63659093Y19048506D01*
X63804406Y19102704D01*
X63804954Y19101233D01*
X63864491Y19114183D01*
X63931011Y19089371D01*
X63973556Y19032535D01*
X63981500Y18988504D01*
X63981500Y18042500D01*
X63961498Y17974379D01*
X63907842Y17927886D01*
X63855500Y17916500D01*
X63301350Y17916500D01*
X63240803Y17909991D01*
X63240795Y17909989D01*
X63103797Y17858890D01*
X63103792Y17858888D01*
X62986738Y17771262D01*
X62899112Y17654208D01*
X62899110Y17654203D01*
X62848011Y17517205D01*
X62848009Y17517197D01*
X62841500Y17456650D01*
X62841500Y16770140D01*
X62821498Y16702019D01*
X62767842Y16655526D01*
X62697568Y16645422D01*
X62632988Y16674916D01*
X62610735Y16700138D01*
X62582707Y16742085D01*
X62531789Y16818289D01*
X62420289Y16929789D01*
X62289179Y17017394D01*
X62143497Y17077737D01*
X61988844Y17108500D01*
X61988842Y17108500D01*
X61831158Y17108500D01*
X61831155Y17108500D01*
X61676502Y17077737D01*
X61676497Y17077735D01*
X61530820Y17017394D01*
X61399715Y16929792D01*
X61399708Y16929787D01*
X61288213Y16818292D01*
X61288208Y16818285D01*
X61200606Y16687180D01*
X61140265Y16541503D01*
X61140263Y16541498D01*
X61109500Y16386845D01*
X61109500Y16229156D01*
X61124720Y16152643D01*
X61140263Y16074503D01*
X61200606Y15928821D01*
X61288211Y15797711D01*
X61399711Y15686211D01*
X61530821Y15598606D01*
X61676503Y15538263D01*
X61831158Y15507500D01*
X61831159Y15507500D01*
X61988841Y15507500D01*
X61988842Y15507500D01*
X62143497Y15538263D01*
X62289179Y15598606D01*
X62420289Y15686211D01*
X62531789Y15797711D01*
X62610735Y15915863D01*
X62665211Y15961390D01*
X62735654Y15970239D01*
X62799699Y15939598D01*
X62837010Y15879196D01*
X62841500Y15845861D01*
X62841500Y15159351D01*
X62848009Y15098804D01*
X62848011Y15098796D01*
X62899110Y14961798D01*
X62899112Y14961793D01*
X62986738Y14844739D01*
X63057014Y14792131D01*
X63099561Y14735295D01*
X63104625Y14664479D01*
X63088938Y14625429D01*
X63012385Y14500505D01*
X62915495Y14266591D01*
X62879225Y14115516D01*
X62843872Y14053947D01*
X62780846Y14021265D01*
X62710155Y14027846D01*
X62654243Y14071600D01*
X62640297Y14096714D01*
X62619395Y14147177D01*
X62619394Y14147179D01*
X62539605Y14266591D01*
X62531789Y14278289D01*
X62420289Y14389789D01*
X62289179Y14477394D01*
X62143497Y14537737D01*
X61988844Y14568500D01*
X61988842Y14568500D01*
X61831158Y14568500D01*
X61831155Y14568500D01*
X61676502Y14537737D01*
X61676497Y14537735D01*
X61530820Y14477394D01*
X61399715Y14389792D01*
X61399708Y14389787D01*
X61288213Y14278292D01*
X61288208Y14278285D01*
X61200606Y14147180D01*
X61140265Y14001503D01*
X61140263Y14001498D01*
X61109500Y13846845D01*
X61109500Y13689156D01*
X61140263Y13534503D01*
X61140265Y13534498D01*
X61200606Y13388821D01*
X61290355Y13254502D01*
X61311570Y13186749D01*
X61292787Y13118282D01*
X61239970Y13070839D01*
X61185590Y13058500D01*
X56916373Y13058500D01*
X56848252Y13078502D01*
X56827278Y13095405D01*
X56723658Y13199025D01*
X56723652Y13199030D01*
X56572739Y13292115D01*
X56488583Y13320001D01*
X56404428Y13347887D01*
X56404421Y13347888D01*
X56300554Y13358500D01*
X56300546Y13358500D01*
X51299454Y13358500D01*
X51299446Y13358500D01*
X51195578Y13347888D01*
X51195571Y13347887D01*
X51027261Y13292115D01*
X50876347Y13199030D01*
X50876341Y13199025D01*
X50772722Y13095405D01*
X50710410Y13061379D01*
X50683627Y13058500D01*
X50488239Y13058500D01*
X50420118Y13078502D01*
X50373625Y13132158D01*
X50362240Y13184980D01*
X50366406Y14278292D01*
X50373562Y16156551D01*
X50393823Y16224592D01*
X50447656Y16270880D01*
X50517968Y16280716D01*
X50582436Y16250977D01*
X50619165Y16195701D01*
X50658340Y16077478D01*
X50751365Y15926661D01*
X50751370Y15926655D01*
X50876654Y15801371D01*
X50876660Y15801366D01*
X51027473Y15708343D01*
X51195677Y15652607D01*
X51195680Y15652606D01*
X51299482Y15642001D01*
X53546000Y15642001D01*
X54054000Y15642001D01*
X56300509Y15642001D01*
X56404319Y15652606D01*
X56572526Y15708343D01*
X56723339Y15801366D01*
X56723345Y15801371D01*
X56848629Y15926655D01*
X56848634Y15926661D01*
X56941657Y16077474D01*
X56997393Y16245678D01*
X56997394Y16245681D01*
X57007999Y16349483D01*
X57008000Y16349483D01*
X57008000Y16883500D01*
X54054000Y16883500D01*
X54054000Y15642001D01*
X53546000Y15642001D01*
X53546000Y17391500D01*
X54054000Y17391500D01*
X57007999Y17391500D01*
X57007999Y17925510D01*
X56997394Y18029320D01*
X56941657Y18197527D01*
X56848634Y18348340D01*
X56848629Y18348346D01*
X56723345Y18473630D01*
X56723339Y18473635D01*
X56572526Y18566658D01*
X56404322Y18622394D01*
X56404319Y18622395D01*
X56300517Y18633000D01*
X54054000Y18633000D01*
X54054000Y17391500D01*
X53546000Y17391500D01*
X53546000Y18633000D01*
X51299490Y18633000D01*
X51195680Y18622395D01*
X51027473Y18566658D01*
X50876660Y18473635D01*
X50876654Y18473630D01*
X50751370Y18348346D01*
X50751365Y18348340D01*
X50658341Y18197524D01*
X50626731Y18102133D01*
X50586317Y18043762D01*
X50520760Y18016507D01*
X50450875Y18029021D01*
X50398850Y18077331D01*
X50381128Y18142244D01*
X50404211Y24200000D01*
X61336844Y24200000D01*
X61355437Y23975625D01*
X61410702Y23757388D01*
X61410703Y23757387D01*
X61501141Y23551207D01*
X61624275Y23362735D01*
X61624279Y23362730D01*
X61776762Y23197092D01*
X61831331Y23154619D01*
X61954424Y23058811D01*
X62152426Y22951658D01*
X62152427Y22951658D01*
X62152428Y22951657D01*
X62264227Y22913277D01*
X62365365Y22878556D01*
X62587431Y22841500D01*
X62587435Y22841500D01*
X62812565Y22841500D01*
X62812569Y22841500D01*
X63034635Y22878556D01*
X63247574Y22951658D01*
X63445576Y23058811D01*
X63623240Y23197094D01*
X63775722Y23362732D01*
X63898860Y23551209D01*
X63989296Y23757384D01*
X64044564Y23975632D01*
X64063156Y24200000D01*
X64044564Y24424368D01*
X63989296Y24642616D01*
X63898860Y24848791D01*
X63892140Y24859076D01*
X63775724Y25037266D01*
X63775720Y25037271D01*
X63623237Y25202909D01*
X63541382Y25266619D01*
X63445576Y25341189D01*
X63411792Y25359472D01*
X63361402Y25409484D01*
X63346050Y25478801D01*
X63370610Y25545414D01*
X63411793Y25581099D01*
X63445300Y25599233D01*
X63445301Y25599233D01*
X63622902Y25737466D01*
X63775325Y25903042D01*
X63898419Y26091452D01*
X63988820Y26297544D01*
X63988823Y26297551D01*
X64036544Y26486000D01*
X63130703Y26486000D01*
X63165925Y26547007D01*
X63200000Y26674174D01*
X63200000Y26805826D01*
X63165925Y26932993D01*
X63130703Y26994000D01*
X64036544Y26994000D01*
X64036544Y26994001D01*
X63988823Y27182450D01*
X63988820Y27182457D01*
X63898419Y27388549D01*
X63775325Y27576959D01*
X63632018Y27732633D01*
X63600598Y27796298D01*
X63608585Y27866844D01*
X63653444Y27921873D01*
X63680679Y27936023D01*
X63796204Y27979111D01*
X63913261Y28066739D01*
X64000889Y28183796D01*
X64051989Y28320799D01*
X64058500Y28381362D01*
X64058500Y30178638D01*
X64058499Y30178650D01*
X64051990Y30239197D01*
X64051988Y30239205D01*
X64000889Y30376203D01*
X64000887Y30376208D01*
X63913261Y30493262D01*
X63796207Y30580888D01*
X63796202Y30580890D01*
X63659204Y30631989D01*
X63659196Y30631991D01*
X63598649Y30638500D01*
X63598638Y30638500D01*
X61801362Y30638500D01*
X61801350Y30638500D01*
X61740803Y30631991D01*
X61740795Y30631989D01*
X61603797Y30580890D01*
X61603792Y30580888D01*
X61486738Y30493262D01*
X61399112Y30376208D01*
X61399110Y30376203D01*
X61348011Y30239205D01*
X61348009Y30239197D01*
X61341500Y30178650D01*
X61341500Y28381351D01*
X61348009Y28320804D01*
X61348011Y28320796D01*
X61399110Y28183798D01*
X61399112Y28183793D01*
X61486738Y28066739D01*
X61603792Y27979113D01*
X61603796Y27979111D01*
X61719312Y27936025D01*
X61776148Y27893478D01*
X61800958Y27826958D01*
X61785866Y27757584D01*
X61767981Y27732633D01*
X61624674Y27576959D01*
X61501580Y27388549D01*
X61411179Y27182457D01*
X61411176Y27182450D01*
X61363455Y26994001D01*
X61363456Y26994000D01*
X62269297Y26994000D01*
X62234075Y26932993D01*
X62200000Y26805826D01*
X62200000Y26674174D01*
X62234075Y26547007D01*
X62269297Y26486000D01*
X61363455Y26486000D01*
X61411176Y26297551D01*
X61411179Y26297544D01*
X61501580Y26091452D01*
X61624674Y25903042D01*
X61777097Y25737466D01*
X61954698Y25599233D01*
X61954704Y25599229D01*
X61988207Y25581098D01*
X62038597Y25531085D01*
X62053949Y25461768D01*
X62029388Y25395155D01*
X61988207Y25359472D01*
X61954430Y25341193D01*
X61954424Y25341189D01*
X61776762Y25202909D01*
X61624279Y25037271D01*
X61624275Y25037266D01*
X61501141Y24848794D01*
X61410703Y24642614D01*
X61410702Y24642613D01*
X61355437Y24424376D01*
X61336844Y24200000D01*
X50404211Y24200000D01*
X50457021Y38059390D01*
X50470954Y41715980D01*
X50491215Y41784024D01*
X50545048Y41830312D01*
X50596953Y41841500D01*
X59889629Y41841500D01*
X59957750Y41821498D01*
G37*
%TD.AperFunction*%
%TA.AperFunction,Conductor*%
G36*
X62022750Y51821498D02*
G01*
X62043724Y51804595D01*
X62525995Y51322324D01*
X62560021Y51260012D01*
X62554956Y51189197D01*
X62512409Y51132361D01*
X62445889Y51107550D01*
X62376515Y51122641D01*
X62366898Y51128464D01*
X62289179Y51180394D01*
X62143502Y51240735D01*
X62143497Y51240737D01*
X61988844Y51271500D01*
X61988842Y51271500D01*
X61831158Y51271500D01*
X61831155Y51271500D01*
X61676502Y51240737D01*
X61676497Y51240735D01*
X61530820Y51180394D01*
X61399715Y51092792D01*
X61399708Y51092787D01*
X61288213Y50981292D01*
X61288208Y50981285D01*
X61200606Y50850180D01*
X61140265Y50704503D01*
X61140263Y50704498D01*
X61109500Y50549845D01*
X61109500Y50549842D01*
X61109500Y50392158D01*
X61140263Y50237503D01*
X61200606Y50091821D01*
X61288211Y49960711D01*
X61399711Y49849211D01*
X61530821Y49761606D01*
X61676503Y49701263D01*
X61831158Y49670500D01*
X61831159Y49670500D01*
X61988841Y49670500D01*
X61988842Y49670500D01*
X62143497Y49701263D01*
X62289179Y49761606D01*
X62420289Y49849211D01*
X62531789Y49960711D01*
X62610735Y50078863D01*
X62665211Y50124390D01*
X62735654Y50133239D01*
X62799699Y50102598D01*
X62837010Y50042196D01*
X62841500Y50008861D01*
X62841500Y49322351D01*
X62848009Y49261804D01*
X62848011Y49261796D01*
X62899110Y49124798D01*
X62899112Y49124793D01*
X62986738Y49007739D01*
X63057417Y48954830D01*
X63099964Y48897995D01*
X63105029Y48827179D01*
X63089341Y48788128D01*
X63012832Y48663276D01*
X62915971Y48429434D01*
X62879551Y48277731D01*
X62844199Y48216162D01*
X62781172Y48183479D01*
X62710481Y48190060D01*
X62654570Y48233814D01*
X62640623Y48258927D01*
X62632834Y48277731D01*
X62619394Y48310179D01*
X62531789Y48441289D01*
X62420289Y48552789D01*
X62289179Y48640394D01*
X62143497Y48700737D01*
X61988844Y48731500D01*
X61988842Y48731500D01*
X61831158Y48731500D01*
X61831155Y48731500D01*
X61676502Y48700737D01*
X61676497Y48700735D01*
X61530820Y48640394D01*
X61399715Y48552792D01*
X61399708Y48552787D01*
X61288213Y48441292D01*
X61288208Y48441285D01*
X61200606Y48310180D01*
X61140265Y48164503D01*
X61140263Y48164498D01*
X61109500Y48009845D01*
X61109500Y48009842D01*
X61109500Y47852158D01*
X61140263Y47697503D01*
X61200606Y47551821D01*
X61288211Y47420711D01*
X61399711Y47309211D01*
X61530821Y47221606D01*
X61676503Y47161263D01*
X61831158Y47130500D01*
X61831159Y47130500D01*
X61988841Y47130500D01*
X61988842Y47130500D01*
X62143497Y47161263D01*
X62289179Y47221606D01*
X62420289Y47309211D01*
X62531789Y47420711D01*
X62619394Y47551821D01*
X62640623Y47603074D01*
X62685170Y47658354D01*
X62752534Y47680776D01*
X62821325Y47663218D01*
X62869704Y47611257D01*
X62879551Y47584270D01*
X62915971Y47432566D01*
X63012830Y47198728D01*
X63144177Y46984389D01*
X63144178Y46984389D01*
X63925016Y47765228D01*
X63937482Y47718708D01*
X64009890Y47593292D01*
X64112292Y47490890D01*
X64237708Y47418482D01*
X64284226Y47406018D01*
X63700478Y46822270D01*
X63677218Y46803934D01*
X63501631Y46696334D01*
X63501627Y46696331D01*
X63309102Y46531898D01*
X63144671Y46339375D01*
X63012383Y46123501D01*
X62915494Y45889589D01*
X62879225Y45738516D01*
X62843873Y45676947D01*
X62780846Y45644264D01*
X62710155Y45650845D01*
X62654244Y45694599D01*
X62640300Y45719707D01*
X62619394Y45770179D01*
X62531789Y45901289D01*
X62420289Y46012789D01*
X62289179Y46100394D01*
X62143497Y46160737D01*
X61988844Y46191500D01*
X61988842Y46191500D01*
X61831158Y46191500D01*
X61831155Y46191500D01*
X61676502Y46160737D01*
X61676497Y46160735D01*
X61530820Y46100394D01*
X61399715Y46012792D01*
X61399708Y46012787D01*
X61288213Y45901292D01*
X61288208Y45901285D01*
X61200606Y45770180D01*
X61140265Y45624503D01*
X61140263Y45624498D01*
X61109500Y45469845D01*
X61109500Y45469842D01*
X61109500Y45312158D01*
X61140263Y45157503D01*
X61200606Y45011821D01*
X61288211Y44880711D01*
X61399711Y44769211D01*
X61530821Y44681606D01*
X61676503Y44621263D01*
X61831158Y44590500D01*
X61831159Y44590500D01*
X61988841Y44590500D01*
X61988842Y44590500D01*
X62143497Y44621263D01*
X62289179Y44681606D01*
X62420289Y44769211D01*
X62531789Y44880711D01*
X62619394Y45011821D01*
X62640299Y45062291D01*
X62684843Y45117568D01*
X62752206Y45139991D01*
X62820998Y45122434D01*
X62869377Y45070473D01*
X62879225Y45043485D01*
X62915495Y44892409D01*
X63012384Y44658498D01*
X63144672Y44442624D01*
X63309102Y44250102D01*
X63501624Y44085672D01*
X63717498Y43953384D01*
X63951409Y43856495D01*
X64197597Y43797391D01*
X64450000Y43777526D01*
X64702403Y43797391D01*
X64948591Y43856495D01*
X65182502Y43953384D01*
X65218919Y43975702D01*
X65287448Y43994240D01*
X65355125Y43972786D01*
X65373848Y43957364D01*
X67704595Y41626617D01*
X67738621Y41564305D01*
X67741500Y41537522D01*
X67741500Y33388479D01*
X67721498Y33320358D01*
X67667842Y33273865D01*
X67597568Y33263761D01*
X67532988Y33293255D01*
X67526405Y33299384D01*
X66539860Y34285929D01*
X66379601Y34402364D01*
X66379600Y34402365D01*
X66379598Y34402366D01*
X66203097Y34492298D01*
X66014700Y34553512D01*
X65819046Y34584500D01*
X65819043Y34584500D01*
X65499688Y34584500D01*
X65431567Y34604502D01*
X65417861Y34614686D01*
X65398376Y34631328D01*
X65398374Y34631330D01*
X65398372Y34631331D01*
X65398368Y34631334D01*
X65222775Y34738938D01*
X65199514Y34757275D01*
X64615772Y35341018D01*
X64662292Y35353482D01*
X64787708Y35425890D01*
X64890110Y35528292D01*
X64962518Y35653708D01*
X64974982Y35700227D01*
X65755820Y34919389D01*
X65755822Y34919389D01*
X65887167Y35133723D01*
X65984028Y35367566D01*
X66043113Y35613677D01*
X66062971Y35866000D01*
X66043113Y36118324D01*
X65984028Y36364435D01*
X65887169Y36598273D01*
X65810658Y36723127D01*
X65792120Y36791660D01*
X65813576Y36859337D01*
X65842579Y36889828D01*
X65913261Y36942739D01*
X66000889Y37059796D01*
X66051989Y37196799D01*
X66058500Y37257362D01*
X66058500Y39554638D01*
X66058499Y39554650D01*
X66051990Y39615197D01*
X66051988Y39615205D01*
X66000889Y39752203D01*
X66000887Y39752208D01*
X65913261Y39869262D01*
X65796207Y39956888D01*
X65796202Y39956890D01*
X65659204Y40007989D01*
X65659196Y40007991D01*
X65598649Y40014500D01*
X65598638Y40014500D01*
X63966371Y40014500D01*
X63898250Y40034502D01*
X63877276Y40051405D01*
X60739519Y43189162D01*
X60739515Y43189166D01*
X60615284Y43272174D01*
X60477247Y43329351D01*
X60403976Y43343926D01*
X60403975Y43343927D01*
X60330711Y43358500D01*
X60330706Y43358500D01*
X50603693Y43358500D01*
X50535572Y43378502D01*
X50489079Y43432158D01*
X50477694Y43484980D01*
X50478885Y43797392D01*
X50493417Y47611257D01*
X50509058Y51715980D01*
X50529319Y51784024D01*
X50583152Y51830312D01*
X50635057Y51841500D01*
X61954629Y51841500D01*
X62022750Y51821498D01*
G37*
%TD.AperFunction*%
%TA.AperFunction,Conductor*%
G36*
X62287750Y63621498D02*
G01*
X62308724Y63604595D01*
X62525995Y63387324D01*
X62560021Y63325012D01*
X62554956Y63254197D01*
X62512409Y63197361D01*
X62445889Y63172550D01*
X62376515Y63187641D01*
X62366898Y63193464D01*
X62289179Y63245394D01*
X62143502Y63305735D01*
X62143497Y63305737D01*
X61988844Y63336500D01*
X61988842Y63336500D01*
X61831158Y63336500D01*
X61831155Y63336500D01*
X61676502Y63305737D01*
X61676497Y63305735D01*
X61530820Y63245394D01*
X61399715Y63157792D01*
X61399708Y63157787D01*
X61288213Y63046292D01*
X61288208Y63046285D01*
X61200606Y62915180D01*
X61140265Y62769503D01*
X61140263Y62769498D01*
X61109500Y62614845D01*
X61109500Y62614842D01*
X61109500Y62457158D01*
X61140263Y62302503D01*
X61200606Y62156821D01*
X61288211Y62025711D01*
X61399711Y61914211D01*
X61530821Y61826606D01*
X61676503Y61766263D01*
X61831158Y61735500D01*
X61831159Y61735500D01*
X61988841Y61735500D01*
X61988842Y61735500D01*
X62143497Y61766263D01*
X62289179Y61826606D01*
X62420289Y61914211D01*
X62531789Y62025711D01*
X62610735Y62143863D01*
X62665211Y62189390D01*
X62735654Y62198239D01*
X62799699Y62167598D01*
X62837010Y62107196D01*
X62841500Y62073861D01*
X62841500Y61387351D01*
X62848009Y61326804D01*
X62848011Y61326796D01*
X62899110Y61189798D01*
X62899112Y61189793D01*
X62986738Y61072739D01*
X63057417Y61019830D01*
X63099964Y60962995D01*
X63105029Y60892179D01*
X63089341Y60853128D01*
X63012832Y60728276D01*
X62915971Y60494434D01*
X62879551Y60342731D01*
X62844199Y60281162D01*
X62781172Y60248479D01*
X62710481Y60255060D01*
X62654570Y60298814D01*
X62640623Y60323927D01*
X62632834Y60342731D01*
X62619394Y60375179D01*
X62531789Y60506289D01*
X62420289Y60617789D01*
X62289179Y60705394D01*
X62143497Y60765737D01*
X61988844Y60796500D01*
X61988842Y60796500D01*
X61831158Y60796500D01*
X61831155Y60796500D01*
X61676502Y60765737D01*
X61676497Y60765735D01*
X61530820Y60705394D01*
X61399715Y60617792D01*
X61399708Y60617787D01*
X61288213Y60506292D01*
X61288208Y60506285D01*
X61200606Y60375180D01*
X61140265Y60229503D01*
X61140263Y60229498D01*
X61109500Y60074845D01*
X61109500Y60074842D01*
X61109500Y59917158D01*
X61140263Y59762503D01*
X61200606Y59616821D01*
X61288211Y59485711D01*
X61399711Y59374211D01*
X61530821Y59286606D01*
X61676503Y59226263D01*
X61831158Y59195500D01*
X61831159Y59195500D01*
X61988841Y59195500D01*
X61988842Y59195500D01*
X62143497Y59226263D01*
X62289179Y59286606D01*
X62420289Y59374211D01*
X62531789Y59485711D01*
X62619394Y59616821D01*
X62640623Y59668074D01*
X62685170Y59723354D01*
X62752534Y59745776D01*
X62821325Y59728218D01*
X62869704Y59676257D01*
X62879551Y59649270D01*
X62915971Y59497566D01*
X63012830Y59263728D01*
X63144177Y59049389D01*
X63144178Y59049389D01*
X63925016Y59830228D01*
X63937482Y59783708D01*
X64009890Y59658292D01*
X64112292Y59555890D01*
X64237708Y59483482D01*
X64284226Y59471018D01*
X63700478Y58887270D01*
X63677218Y58868934D01*
X63501631Y58761334D01*
X63501627Y58761331D01*
X63309102Y58596898D01*
X63144671Y58404375D01*
X63012383Y58188501D01*
X62915494Y57954589D01*
X62879225Y57803516D01*
X62843873Y57741947D01*
X62780846Y57709264D01*
X62710155Y57715845D01*
X62654244Y57759599D01*
X62640300Y57784707D01*
X62619394Y57835179D01*
X62531789Y57966289D01*
X62420289Y58077789D01*
X62289179Y58165394D01*
X62143497Y58225737D01*
X61988844Y58256500D01*
X61988842Y58256500D01*
X61831158Y58256500D01*
X61831155Y58256500D01*
X61676502Y58225737D01*
X61676497Y58225735D01*
X61530820Y58165394D01*
X61399715Y58077792D01*
X61399708Y58077787D01*
X61288213Y57966292D01*
X61288208Y57966285D01*
X61200606Y57835180D01*
X61140265Y57689503D01*
X61140263Y57689498D01*
X61109500Y57534845D01*
X61109500Y57534842D01*
X61109500Y57377158D01*
X61140263Y57222503D01*
X61200606Y57076821D01*
X61288211Y56945711D01*
X61399711Y56834211D01*
X61530821Y56746606D01*
X61676503Y56686263D01*
X61831158Y56655500D01*
X61831159Y56655500D01*
X61988841Y56655500D01*
X61988842Y56655500D01*
X62143497Y56686263D01*
X62289179Y56746606D01*
X62420289Y56834211D01*
X62531789Y56945711D01*
X62619394Y57076821D01*
X62640299Y57127291D01*
X62684843Y57182568D01*
X62752206Y57204991D01*
X62820998Y57187434D01*
X62869377Y57135473D01*
X62879225Y57108485D01*
X62915495Y56957409D01*
X63012384Y56723498D01*
X63144672Y56507624D01*
X63309102Y56315102D01*
X63501624Y56150672D01*
X63717498Y56018384D01*
X63951409Y55921495D01*
X64197597Y55862391D01*
X64450000Y55842526D01*
X64702403Y55862391D01*
X64948591Y55921495D01*
X65182502Y56018384D01*
X65398376Y56150672D01*
X65417858Y56167312D01*
X65482647Y56196342D01*
X65499688Y56197500D01*
X66970522Y56197500D01*
X67038643Y56177498D01*
X67059617Y56160595D01*
X67704595Y55515617D01*
X67738621Y55453305D01*
X67741500Y55426522D01*
X67741500Y45453479D01*
X67721498Y45385358D01*
X67667842Y45338865D01*
X67597568Y45328761D01*
X67532988Y45358255D01*
X67526405Y45364384D01*
X66539860Y46350929D01*
X66379601Y46467364D01*
X66379600Y46467365D01*
X66379598Y46467366D01*
X66203097Y46557298D01*
X66014700Y46618512D01*
X65819046Y46649500D01*
X65819043Y46649500D01*
X65499688Y46649500D01*
X65431567Y46669502D01*
X65417861Y46679686D01*
X65398376Y46696328D01*
X65398374Y46696330D01*
X65398372Y46696331D01*
X65398368Y46696334D01*
X65222775Y46803938D01*
X65199514Y46822275D01*
X64615772Y47406018D01*
X64662292Y47418482D01*
X64787708Y47490890D01*
X64890110Y47593292D01*
X64962518Y47718708D01*
X64974982Y47765227D01*
X65755820Y46984389D01*
X65755822Y46984389D01*
X65887167Y47198723D01*
X65984028Y47432566D01*
X66043113Y47678677D01*
X66062971Y47931000D01*
X66043113Y48183324D01*
X65984028Y48429435D01*
X65887169Y48663273D01*
X65810658Y48788127D01*
X65792120Y48856660D01*
X65813576Y48924337D01*
X65842579Y48954828D01*
X65913261Y49007739D01*
X66000889Y49124796D01*
X66051989Y49261799D01*
X66054008Y49280571D01*
X66058499Y49322351D01*
X66058500Y49322368D01*
X66058500Y51619633D01*
X66058499Y51619650D01*
X66051990Y51680197D01*
X66051988Y51680205D01*
X66022924Y51758125D01*
X66000889Y51817204D01*
X66000888Y51817206D01*
X66000887Y51817208D01*
X65913261Y51934262D01*
X65796207Y52021888D01*
X65796202Y52021890D01*
X65659204Y52072989D01*
X65659196Y52072991D01*
X65598649Y52079500D01*
X65598638Y52079500D01*
X63966371Y52079500D01*
X63898250Y52099502D01*
X63877276Y52116405D01*
X62804519Y53189162D01*
X62804515Y53189166D01*
X62680284Y53272174D01*
X62542247Y53329351D01*
X62468976Y53343926D01*
X62468975Y53343927D01*
X62395711Y53358500D01*
X62395706Y53358500D01*
X50641797Y53358500D01*
X50573676Y53378502D01*
X50527183Y53432158D01*
X50515798Y53484980D01*
X50523298Y55453305D01*
X50536095Y58811708D01*
X50556355Y58879748D01*
X50572989Y58900309D01*
X55277276Y63604595D01*
X55339588Y63638621D01*
X55366371Y63641500D01*
X62219629Y63641500D01*
X62287750Y63621498D01*
G37*
%TD.AperFunction*%
%TA.AperFunction,Conductor*%
G36*
X61826541Y75621498D02*
G01*
X61873034Y75567842D01*
X61883138Y75497568D01*
X61853644Y75432988D01*
X61793918Y75394604D01*
X61783004Y75391922D01*
X61744785Y75384320D01*
X61676502Y75370737D01*
X61676497Y75370735D01*
X61530820Y75310394D01*
X61399715Y75222792D01*
X61399708Y75222787D01*
X61288213Y75111292D01*
X61288208Y75111285D01*
X61200606Y74980180D01*
X61140265Y74834503D01*
X61140263Y74834498D01*
X61109500Y74679845D01*
X61109500Y74679842D01*
X61109500Y74522158D01*
X61140263Y74367503D01*
X61200606Y74221821D01*
X61288211Y74090711D01*
X61399711Y73979211D01*
X61530821Y73891606D01*
X61676503Y73831263D01*
X61831158Y73800500D01*
X61831159Y73800500D01*
X61988841Y73800500D01*
X61988842Y73800500D01*
X62143497Y73831263D01*
X62289179Y73891606D01*
X62420289Y73979211D01*
X62531789Y74090711D01*
X62610735Y74208863D01*
X62665211Y74254390D01*
X62735654Y74263239D01*
X62799699Y74232598D01*
X62837010Y74172196D01*
X62841500Y74138861D01*
X62841500Y73452351D01*
X62848009Y73391804D01*
X62848011Y73391796D01*
X62899110Y73254798D01*
X62899112Y73254793D01*
X62986738Y73137739D01*
X63057417Y73084830D01*
X63099964Y73027995D01*
X63105029Y72957179D01*
X63089341Y72918128D01*
X63012832Y72793276D01*
X62915971Y72559434D01*
X62879551Y72407731D01*
X62844199Y72346162D01*
X62781172Y72313479D01*
X62710481Y72320060D01*
X62654570Y72363814D01*
X62640623Y72388927D01*
X62632834Y72407731D01*
X62619394Y72440179D01*
X62531789Y72571289D01*
X62420289Y72682789D01*
X62289179Y72770394D01*
X62143497Y72830737D01*
X61988844Y72861500D01*
X61988842Y72861500D01*
X61831158Y72861500D01*
X61831155Y72861500D01*
X61676502Y72830737D01*
X61676497Y72830735D01*
X61530820Y72770394D01*
X61399715Y72682792D01*
X61399708Y72682787D01*
X61288213Y72571292D01*
X61288208Y72571285D01*
X61200606Y72440180D01*
X61140265Y72294503D01*
X61140263Y72294498D01*
X61109500Y72139845D01*
X61109500Y72139842D01*
X61109500Y71982158D01*
X61140263Y71827503D01*
X61200606Y71681821D01*
X61288211Y71550711D01*
X61399711Y71439211D01*
X61530821Y71351606D01*
X61676503Y71291263D01*
X61831158Y71260500D01*
X61831159Y71260500D01*
X61988841Y71260500D01*
X61988842Y71260500D01*
X62143497Y71291263D01*
X62289179Y71351606D01*
X62420289Y71439211D01*
X62531789Y71550711D01*
X62619394Y71681821D01*
X62640623Y71733074D01*
X62685170Y71788354D01*
X62752534Y71810776D01*
X62821325Y71793218D01*
X62869704Y71741257D01*
X62879551Y71714270D01*
X62915971Y71562566D01*
X63012830Y71328728D01*
X63144177Y71114389D01*
X63144178Y71114389D01*
X63925016Y71895228D01*
X63937482Y71848708D01*
X64009890Y71723292D01*
X64112292Y71620890D01*
X64237708Y71548482D01*
X64284226Y71536018D01*
X63700478Y70952270D01*
X63677218Y70933934D01*
X63501631Y70826334D01*
X63501627Y70826331D01*
X63309102Y70661898D01*
X63144671Y70469375D01*
X63012383Y70253501D01*
X62915494Y70019589D01*
X62879225Y69868516D01*
X62843873Y69806947D01*
X62780846Y69774264D01*
X62710155Y69780845D01*
X62654244Y69824599D01*
X62640300Y69849707D01*
X62619394Y69900179D01*
X62531789Y70031289D01*
X62420289Y70142789D01*
X62289179Y70230394D01*
X62143497Y70290737D01*
X61988844Y70321500D01*
X61988842Y70321500D01*
X61831158Y70321500D01*
X61831155Y70321500D01*
X61676502Y70290737D01*
X61676497Y70290735D01*
X61530820Y70230394D01*
X61399715Y70142792D01*
X61399708Y70142787D01*
X61288213Y70031292D01*
X61288208Y70031285D01*
X61200606Y69900180D01*
X61140265Y69754503D01*
X61140263Y69754498D01*
X61109500Y69599845D01*
X61109500Y69599842D01*
X61109500Y69442158D01*
X61140263Y69287503D01*
X61200606Y69141821D01*
X61288211Y69010711D01*
X61399711Y68899211D01*
X61530821Y68811606D01*
X61676503Y68751263D01*
X61831158Y68720500D01*
X61831159Y68720500D01*
X61988841Y68720500D01*
X61988842Y68720500D01*
X62143497Y68751263D01*
X62289179Y68811606D01*
X62420289Y68899211D01*
X62531789Y69010711D01*
X62619394Y69141821D01*
X62640299Y69192291D01*
X62684843Y69247568D01*
X62752206Y69269991D01*
X62820998Y69252434D01*
X62869377Y69200473D01*
X62879225Y69173485D01*
X62915495Y69022409D01*
X63012384Y68788498D01*
X63144672Y68572624D01*
X63309102Y68380102D01*
X63501624Y68215672D01*
X63717498Y68083384D01*
X63951409Y67986495D01*
X64197597Y67927391D01*
X64450000Y67907526D01*
X64702403Y67927391D01*
X64948591Y67986495D01*
X65182502Y68083384D01*
X65398376Y68215672D01*
X65417858Y68232312D01*
X65482647Y68261342D01*
X65499688Y68262500D01*
X65654522Y68262500D01*
X65722643Y68242498D01*
X65743617Y68225595D01*
X67704595Y66264617D01*
X67738621Y66202305D01*
X67741500Y66175522D01*
X67741500Y58840500D01*
X67721498Y58772379D01*
X67667842Y58725886D01*
X67615500Y58714500D01*
X65499688Y58714500D01*
X65431567Y58734502D01*
X65417861Y58744686D01*
X65398376Y58761328D01*
X65398374Y58761330D01*
X65398372Y58761331D01*
X65398368Y58761334D01*
X65222775Y58868938D01*
X65199514Y58887275D01*
X64615772Y59471018D01*
X64662292Y59483482D01*
X64787708Y59555890D01*
X64890110Y59658292D01*
X64962518Y59783708D01*
X64974982Y59830227D01*
X65755820Y59049389D01*
X65755822Y59049389D01*
X65887167Y59263723D01*
X65984028Y59497566D01*
X66043113Y59743677D01*
X66062971Y59996000D01*
X66043113Y60248324D01*
X65984028Y60494435D01*
X65887169Y60728273D01*
X65810658Y60853127D01*
X65792120Y60921660D01*
X65813576Y60989337D01*
X65842579Y61019828D01*
X65913261Y61072739D01*
X66000889Y61189796D01*
X66051989Y61326799D01*
X66058500Y61387362D01*
X66058500Y63684638D01*
X66058499Y63684650D01*
X66051990Y63745197D01*
X66051988Y63745205D01*
X66000889Y63882203D01*
X66000887Y63882208D01*
X65913261Y63999262D01*
X65796207Y64086888D01*
X65796202Y64086890D01*
X65659204Y64137989D01*
X65659196Y64137991D01*
X65598649Y64144500D01*
X65598638Y64144500D01*
X63966371Y64144500D01*
X63898250Y64164502D01*
X63877276Y64181405D01*
X63069519Y64989162D01*
X63069517Y64989164D01*
X63069515Y64989166D01*
X62945284Y65072174D01*
X62807247Y65129351D01*
X62733976Y65143926D01*
X62733975Y65143927D01*
X62660711Y65158500D01*
X62660706Y65158500D01*
X54925294Y65158500D01*
X54925288Y65158500D01*
X54852024Y65143927D01*
X54852024Y65143926D01*
X54778753Y65129351D01*
X54778751Y65129351D01*
X54778750Y65129350D01*
X54778749Y65129350D01*
X54721576Y65105668D01*
X54640716Y65072174D01*
X54640715Y65072173D01*
X54516482Y64989164D01*
X54516476Y64989159D01*
X50760757Y61233440D01*
X50698445Y61199414D01*
X50627629Y61204479D01*
X50570794Y61247026D01*
X50545983Y61313546D01*
X50545663Y61322987D01*
X50590107Y72986660D01*
X50599745Y75515980D01*
X50620006Y75584024D01*
X50673839Y75630312D01*
X50725744Y75641500D01*
X61758420Y75641500D01*
X61826541Y75621498D01*
G37*
%TD.AperFunction*%
%TA.AperFunction,Conductor*%
G36*
X61432171Y87521498D02*
G01*
X61478664Y87467842D01*
X61488768Y87397568D01*
X61459274Y87332988D01*
X61434052Y87310735D01*
X61399715Y87287792D01*
X61399708Y87287787D01*
X61288213Y87176292D01*
X61288208Y87176285D01*
X61200606Y87045180D01*
X61140265Y86899503D01*
X61140263Y86899498D01*
X61109500Y86744845D01*
X61109500Y86744842D01*
X61109500Y86587158D01*
X61140263Y86432503D01*
X61200606Y86286821D01*
X61288211Y86155711D01*
X61399711Y86044211D01*
X61530821Y85956606D01*
X61676503Y85896263D01*
X61831158Y85865500D01*
X61831159Y85865500D01*
X61988841Y85865500D01*
X61988842Y85865500D01*
X62143497Y85896263D01*
X62289179Y85956606D01*
X62420289Y86044211D01*
X62531789Y86155711D01*
X62610735Y86273863D01*
X62665211Y86319390D01*
X62735654Y86328239D01*
X62799699Y86297598D01*
X62837010Y86237196D01*
X62841500Y86203861D01*
X62841500Y85517351D01*
X62848009Y85456804D01*
X62848011Y85456796D01*
X62899110Y85319798D01*
X62899112Y85319793D01*
X62986738Y85202739D01*
X63057417Y85149830D01*
X63099964Y85092995D01*
X63105029Y85022179D01*
X63089341Y84983128D01*
X63012832Y84858276D01*
X62915971Y84624434D01*
X62879551Y84472731D01*
X62844199Y84411162D01*
X62781172Y84378479D01*
X62710481Y84385060D01*
X62654570Y84428814D01*
X62640623Y84453927D01*
X62632834Y84472731D01*
X62619394Y84505179D01*
X62531789Y84636289D01*
X62420289Y84747789D01*
X62289179Y84835394D01*
X62143497Y84895737D01*
X61988844Y84926500D01*
X61988842Y84926500D01*
X61831158Y84926500D01*
X61831155Y84926500D01*
X61676502Y84895737D01*
X61676497Y84895735D01*
X61530820Y84835394D01*
X61399715Y84747792D01*
X61399708Y84747787D01*
X61288213Y84636292D01*
X61288208Y84636285D01*
X61200606Y84505180D01*
X61140265Y84359503D01*
X61140263Y84359498D01*
X61109500Y84204845D01*
X61109500Y84204842D01*
X61109500Y84047158D01*
X61140263Y83892503D01*
X61200606Y83746821D01*
X61288211Y83615711D01*
X61399711Y83504211D01*
X61530821Y83416606D01*
X61676503Y83356263D01*
X61831158Y83325500D01*
X61831159Y83325500D01*
X61988841Y83325500D01*
X61988842Y83325500D01*
X62143497Y83356263D01*
X62289179Y83416606D01*
X62420289Y83504211D01*
X62531789Y83615711D01*
X62619394Y83746821D01*
X62640623Y83798074D01*
X62685170Y83853354D01*
X62752534Y83875776D01*
X62821325Y83858218D01*
X62869704Y83806257D01*
X62879551Y83779270D01*
X62915971Y83627566D01*
X63012830Y83393728D01*
X63144177Y83179389D01*
X63144178Y83179389D01*
X63925016Y83960228D01*
X63937482Y83913708D01*
X64009890Y83788292D01*
X64112292Y83685890D01*
X64237708Y83613482D01*
X64284226Y83601018D01*
X63700478Y83017270D01*
X63677218Y82998934D01*
X63501631Y82891334D01*
X63501627Y82891331D01*
X63309102Y82726898D01*
X63144671Y82534375D01*
X63012383Y82318501D01*
X62915494Y82084589D01*
X62879225Y81933516D01*
X62843873Y81871947D01*
X62780846Y81839264D01*
X62710155Y81845845D01*
X62654244Y81889599D01*
X62640300Y81914707D01*
X62619394Y81965179D01*
X62531789Y82096289D01*
X62420289Y82207789D01*
X62289179Y82295394D01*
X62143497Y82355737D01*
X61988844Y82386500D01*
X61988842Y82386500D01*
X61831158Y82386500D01*
X61831155Y82386500D01*
X61676502Y82355737D01*
X61676497Y82355735D01*
X61530820Y82295394D01*
X61399715Y82207792D01*
X61399708Y82207787D01*
X61288213Y82096292D01*
X61288208Y82096285D01*
X61200606Y81965180D01*
X61140265Y81819503D01*
X61140263Y81819498D01*
X61109500Y81664845D01*
X61109500Y81664842D01*
X61109500Y81507158D01*
X61140263Y81352503D01*
X61200606Y81206821D01*
X61288211Y81075711D01*
X61399711Y80964211D01*
X61530821Y80876606D01*
X61676503Y80816263D01*
X61831158Y80785500D01*
X61831159Y80785500D01*
X61988841Y80785500D01*
X61988842Y80785500D01*
X62143497Y80816263D01*
X62289179Y80876606D01*
X62420289Y80964211D01*
X62531789Y81075711D01*
X62619394Y81206821D01*
X62640299Y81257291D01*
X62684843Y81312568D01*
X62752206Y81334991D01*
X62820998Y81317434D01*
X62869377Y81265473D01*
X62879225Y81238485D01*
X62915495Y81087409D01*
X63012384Y80853498D01*
X63144672Y80637624D01*
X63309102Y80445102D01*
X63501624Y80280672D01*
X63717498Y80148384D01*
X63951409Y80051495D01*
X64173920Y79998076D01*
X64202412Y79991235D01*
X64201848Y79988887D01*
X64257023Y79962877D01*
X64262458Y79957754D01*
X67704595Y76515617D01*
X67738621Y76453305D01*
X67741500Y76426522D01*
X67741500Y70091479D01*
X67721498Y70023358D01*
X67667842Y69976865D01*
X67597568Y69966761D01*
X67532988Y69996255D01*
X67526405Y70002384D01*
X67047860Y70480929D01*
X66887601Y70597364D01*
X66887600Y70597365D01*
X66887598Y70597366D01*
X66711097Y70687298D01*
X66522700Y70748512D01*
X66327046Y70779500D01*
X66327043Y70779500D01*
X65499688Y70779500D01*
X65431567Y70799502D01*
X65417861Y70809686D01*
X65398376Y70826328D01*
X65398374Y70826330D01*
X65398372Y70826331D01*
X65398368Y70826334D01*
X65222775Y70933938D01*
X65199514Y70952275D01*
X64615772Y71536018D01*
X64662292Y71548482D01*
X64787708Y71620890D01*
X64890110Y71723292D01*
X64962518Y71848708D01*
X64974982Y71895227D01*
X65755820Y71114389D01*
X65755822Y71114389D01*
X65887167Y71328723D01*
X65984028Y71562566D01*
X66043113Y71808677D01*
X66062971Y72061000D01*
X66043113Y72313324D01*
X65984028Y72559435D01*
X65887169Y72793273D01*
X65810658Y72918127D01*
X65792120Y72986660D01*
X65813576Y73054337D01*
X65842579Y73084828D01*
X65913261Y73137739D01*
X66000889Y73254796D01*
X66051989Y73391799D01*
X66058500Y73452362D01*
X66058500Y75749638D01*
X66058499Y75749650D01*
X66051990Y75810197D01*
X66051988Y75810205D01*
X66000889Y75947203D01*
X66000887Y75947208D01*
X65913261Y76064262D01*
X65796207Y76151888D01*
X65796202Y76151890D01*
X65659204Y76202989D01*
X65659196Y76202991D01*
X65598649Y76209500D01*
X65598638Y76209500D01*
X63966371Y76209500D01*
X63898250Y76229502D01*
X63877276Y76246405D01*
X63134519Y76989162D01*
X63134515Y76989166D01*
X63010284Y77072174D01*
X62872247Y77129351D01*
X62798976Y77143926D01*
X62798975Y77143927D01*
X62725711Y77158500D01*
X62725706Y77158500D01*
X50732484Y77158500D01*
X50664363Y77178502D01*
X50617870Y77232158D01*
X50606485Y77284980D01*
X50609342Y78034760D01*
X50629030Y83201699D01*
X50649290Y83269739D01*
X50665924Y83290300D01*
X54880220Y87504595D01*
X54942532Y87538621D01*
X54969315Y87541500D01*
X61364050Y87541500D01*
X61432171Y87521498D01*
G37*
%TD.AperFunction*%
%TA.AperFunction,Conductor*%
G36*
X61524202Y97904498D02*
G01*
X61570695Y97850842D01*
X61580799Y97780568D01*
X61554147Y97719386D01*
X61459389Y97601929D01*
X61239472Y97272529D01*
X61050119Y96924682D01*
X60892855Y96561191D01*
X60892852Y96561184D01*
X60768964Y96185029D01*
X60768958Y96185008D01*
X60679443Y95799217D01*
X60679441Y95799205D01*
X60674370Y95762643D01*
X60625567Y95410791D01*
X60625029Y95406915D01*
X60625028Y95406905D01*
X60606161Y95011319D01*
X60606161Y95011297D01*
X60613212Y94845535D01*
X60622991Y94615620D01*
X60633278Y94538544D01*
X60675385Y94223043D01*
X60762907Y93836815D01*
X60762911Y93836800D01*
X60762912Y93836795D01*
X60762914Y93836789D01*
X60817728Y93667431D01*
X60884872Y93459976D01*
X61040262Y93095680D01*
X61040266Y93095672D01*
X61227820Y92746867D01*
X61227825Y92746859D01*
X61446034Y92416342D01*
X61693115Y92106823D01*
X61967078Y91820796D01*
X62265664Y91560616D01*
X62265669Y91560612D01*
X62586481Y91328368D01*
X62586484Y91328366D01*
X62586487Y91328364D01*
X62756659Y91227134D01*
X62756671Y91227127D01*
X62777757Y91214590D01*
X62777757Y91214591D01*
X62777758Y91214590D01*
X62846482Y91220923D01*
X62846505Y91220668D01*
X62865130Y91224501D01*
X69798500Y91224501D01*
X69866621Y91204499D01*
X69913114Y91150843D01*
X69924500Y91098501D01*
X69924500Y78159478D01*
X69904498Y78091357D01*
X69850842Y78044864D01*
X69780568Y78034760D01*
X69715988Y78064254D01*
X69709405Y78070383D01*
X66085210Y81694578D01*
X66051184Y81756890D01*
X66048695Y81773775D01*
X66043609Y81838403D01*
X65984505Y82084591D01*
X65887616Y82318502D01*
X65755328Y82534376D01*
X65590898Y82726898D01*
X65398376Y82891328D01*
X65398374Y82891330D01*
X65398372Y82891331D01*
X65398368Y82891334D01*
X65222775Y82998938D01*
X65199514Y83017275D01*
X64615772Y83601018D01*
X64662292Y83613482D01*
X64787708Y83685890D01*
X64890110Y83788292D01*
X64962518Y83913708D01*
X64974982Y83960227D01*
X65755820Y83179389D01*
X65755822Y83179389D01*
X65887167Y83393723D01*
X65984028Y83627566D01*
X66043113Y83873677D01*
X66062971Y84126000D01*
X66043113Y84378324D01*
X65984028Y84624435D01*
X65887169Y84858273D01*
X65810658Y84983127D01*
X65792120Y85051660D01*
X65813576Y85119337D01*
X65842579Y85149828D01*
X65913261Y85202739D01*
X66000889Y85319796D01*
X66051989Y85456799D01*
X66058500Y85517362D01*
X66058500Y87814638D01*
X66058499Y87814650D01*
X66051990Y87875197D01*
X66051988Y87875205D01*
X66000889Y88012203D01*
X66000887Y88012208D01*
X65913261Y88129262D01*
X65796207Y88216888D01*
X65796202Y88216890D01*
X65659204Y88267989D01*
X65659196Y88267991D01*
X65598649Y88274500D01*
X65598638Y88274500D01*
X63966371Y88274500D01*
X63898250Y88294502D01*
X63877276Y88311405D01*
X63299519Y88889162D01*
X63299515Y88889166D01*
X63175284Y88972174D01*
X63037247Y89029351D01*
X62963976Y89043926D01*
X62963975Y89043927D01*
X62890711Y89058500D01*
X62890706Y89058500D01*
X54528238Y89058500D01*
X54528232Y89058500D01*
X54454968Y89043927D01*
X54454968Y89043926D01*
X54381697Y89029351D01*
X54381695Y89029351D01*
X54381694Y89029350D01*
X54381693Y89029350D01*
X54324520Y89005668D01*
X54243659Y88972174D01*
X54233343Y88965280D01*
X54233341Y88965279D01*
X54119432Y88889169D01*
X54119421Y88889160D01*
X50853692Y85623431D01*
X50791380Y85589405D01*
X50720564Y85594470D01*
X50663729Y85637017D01*
X50638918Y85703537D01*
X50638599Y85712974D01*
X50671080Y94237358D01*
X50684652Y97798980D01*
X50704913Y97867024D01*
X50758746Y97913312D01*
X50810651Y97924500D01*
X61456081Y97924500D01*
X61524202Y97904498D01*
G37*
%TD.AperFunction*%
%TD*%
M02*
