M48
; DRILL file {KiCad 8.0.5} date 2024-09-29T22:33:30-0400
; FORMAT={-:-/ absolute / inch / decimal}
; #@! TF.CreationDate,2024-09-29T22:33:30-04:00
; #@! TF.GenerationSoftware,Kicad,Pcbnew,8.0.5
; #@! TF.FileFunction,NonPlated,1,2,NPTH
FMAT,2
INCH
; #@! TA.AperFunction,NonPlated,NPTH,ComponentDrill
T1C0.0433
; #@! TA.AperFunction,NonPlated,NPTH,ComponentDrill
T2C0.1969
%
G90
G05
T1
X2.4374Y3.412
X2.4374Y3.312
X2.4374Y3.212
X2.4374Y2.937
X2.4374Y2.837
X2.4374Y2.737
X2.4374Y2.462
X2.4374Y2.362
X2.4374Y2.262
X2.4374Y1.987
X2.4374Y1.887
X2.4374Y1.787
X2.4374Y1.512
X2.4374Y1.412
X2.4374Y1.312
X2.4374Y0.642
X2.4374Y0.542
T2
X0.1969Y3.7402
X0.1969Y0.1969
X2.5591Y3.7402
X2.5591Y0.1969
M30
